                                                                        S0000001
,,31HOpen CASCADE IGES processor 7.8,13HFilename.iges,                  G0000001
16HOpen CASCADE 7.8,31HOpen CASCADE IGES processor 7.8,32,308,15,308,15,G0000002
,1.,2,2HMM,1,0.01,15H20260709.233255,1E-07,100.,6Handrej,,11,0,         G0000003
15H20260709.233255,;                                                    G0000004
     402       1       0       0       0       0       0       000000000D0000001
     402       0       0       1       1                               0D0000002
     110       2       0       0       0       0       0       000020000D0000003
     110       0       0       1       0                               0D0000004
     110       3       0       0       0       0       0       000020000D0000005
     110       0       0       1       0                               0D0000006
     110       4       0       0       0       0       0       000020000D0000007
     110       0       0       1       0                               0D0000008
402,3,3,5,7;                                                     0000001P0000001
110,100.,50.,25.,100.,100.,25.;                                  0000003P0000002
110,100.,50.,25.,50.,50.,25.;                                    0000005P0000003
110,100.,50.,25.,100.,50.,75.;                                   0000007P0000004
S      1G      4D      8P      4                                        T0000001
