ISO-10303-21;
HEADER;
FILE_DESCRIPTION (( 'STEP AP203' ),
    '1' );
FILE_NAME ('simple_L021.STEP',
    '2020-05-07T02:28:34',
    ( '' ),
    ( '' ),
    'SwSTEP 2.0',
    'SolidWorks 2018',
    '' );
FILE_SCHEMA (( 'CONFIG_CONTROL_DESIGN' ));
ENDSEC;

DATA;
#1 = EDGE_CURVE ( 'NONE', #753, #771, #25, .T. ) ;
#2 = EDGE_CURVE ( 'NONE', #640, #769, #793, .T. ) ;
#3 = VECTOR ( 'NONE', #547, 100.0000000000000000 ) ;
#4 = CIRCLE ( 'NONE', #902, 0.4000000000000000222 ) ;
#5 = CARTESIAN_POINT ( 'NONE',  ( -3.035766082959412415E-16, -1.139672219213314852, 0.0000000000000000000 ) ) ;
#6 = EDGE_LOOP ( 'NONE', ( #345, #970, #691, #629 ) ) ;
#7 = CARTESIAN_POINT ( 'NONE',  ( 0.0000000000000000000, 0.0000000000000000000, 1.500000000000000000 ) ) ;
#8 = ORIENTED_EDGE ( 'NONE', *, *, #717, .F. ) ;
#9 = ORIENTED_EDGE ( 'NONE', *, *, #940, .T. ) ;
#10 = DIRECTION ( 'NONE',  ( 0.0000000000000000000, 0.0000000000000000000, 1.000000000000000000 ) ) ;
#11 = DIRECTION ( 'NONE',  ( -0.5734623443633297679, 0.8192319205190395914, 0.0000000000000000000 ) ) ;
#12 = DIRECTION ( 'NONE',  ( -1.000000000000000000, -0.0000000000000000000, -0.0000000000000000000 ) ) ;
#13 = VECTOR ( 'NONE', #495, 100.0000000000000142 ) ;
#14 = AXIS2_PLACEMENT_3D ( 'NONE', #647, #571, #424 ) ;
#15 = ORIENTED_EDGE ( 'NONE', *, *, #490, .T. ) ;
#16 = ORIENTED_EDGE ( 'NONE', *, *, #911, .F. ) ;
#17 = ORIENTED_EDGE ( 'NONE', *, *, #522, .F. ) ;
#18 = EDGE_CURVE ( 'NONE', #818, #507, #651, .T. ) ;
#19 = ORIENTED_EDGE ( 'NONE', *, *, #775, .F. ) ;
#20 = CARTESIAN_POINT ( 'NONE',  ( 0.2293849377453310578, 1.467364987420931577, 0.0000000000000000000 ) ) ;
#21 = LOCAL_TIME ( 21, 28, 34.00000000000000000, #822 ) ;
#22 = LINE ( 'NONE', #302, #539 ) ;
#23 = TOROIDAL_SURFACE ( 'NONE', #932, 1.099999999999999867, 0.1000000000000000056 ) ;
#24 = CARTESIAN_POINT ( 'NONE',  ( 0.2867311721816639403, 1.549288179472835481, -0.3499999999999999778 ) ) ;
#25 = CIRCLE ( 'NONE', #652, 0.5000000000000001110 ) ;
#26 = ORIENTED_EDGE ( 'NONE', *, *, #572, .T. ) ;
#27 = EDGE_LOOP ( 'NONE', ( #854, #406, #338, #268 ) ) ;
#28 = CARTESIAN_POINT ( 'NONE',  ( 0.2867311721816638848, -1.549288179472835036, -0.3499999999999999778 ) ) ;
#29 = EDGE_CURVE ( 'NONE', #405, #828, #625, .T. ) ;
#30 = DIRECTION ( 'NONE',  ( 0.0000000000000000000, -0.0000000000000000000, 1.000000000000000000 ) ) ;
#31 = AXIS2_PLACEMENT_3D ( 'NONE', #721, #809, #832 ) ;
#32 = CARTESIAN_POINT ( 'NONE',  ( 2.442653765563666646, 0.08192319205190477793, -0.1000000000000000056 ) ) ;
#33 = TOROIDAL_SURFACE ( 'NONE', #712, 0.4000000000000000222, 0.1000000000000000056 ) ;
#34 = ORIENTED_EDGE ( 'NONE', *, *, #810, .F. ) ;
#35 = CARTESIAN_POINT ( 'NONE',  ( 0.0000000000000000000, 0.0000000000000000000, 0.1000000000000000888 ) ) ;
#36 = AXIS2_PLACEMENT_3D ( 'NONE', #605, #923, #296 ) ;
#37 = ORIENTED_EDGE ( 'NONE', *, *, #118, .F. ) ;
#38 = DIRECTION ( 'NONE',  ( 0.0000000000000000000, 0.0000000000000000000, -1.000000000000000000 ) ) ;
#39 = ORIENTED_EDGE ( 'NONE', *, *, #578, .F. ) ;
#40 = ORIENTED_EDGE ( 'NONE', *, *, #775, .T. ) ;
#41 = DIRECTION ( 'NONE',  ( 0.0000000000000000000, 0.0000000000000000000, 1.000000000000000000 ) ) ;
#42 = ADVANCED_FACE ( 'NONE', ( #390 ), #241, .F. ) ;
#43 = CC_DESIGN_SECURITY_CLASSIFICATION ( #179, ( #525 ) ) ;
#44 = DATE_AND_TIME ( #456, #661 ) ;
#45 = LINE ( 'NONE', #24, #219 ) ;
#46 = CARTESIAN_POINT ( 'NONE',  ( 1.914834342486399388, -0.4096159602595194626, -0.3499999999999999778 ) ) ;
#47 = VECTOR ( 'NONE', #218, 100.0000000000000000 ) ;
#48 = VERTEX_POINT ( 'NONE', #861 ) ;
#49 = EDGE_LOOP ( 'NONE', ( #37, #428, #169, #299 ) ) ;
#50 = CARTESIAN_POINT ( 'NONE',  ( 1.628103170304735059, 6.071532165918824830E-16, -0.3499999999999999778 ) ) ;
#51 = CARTESIAN_POINT ( 'NONE',  ( 0.0000000000000000000, 0.0000000000000000000, 0.0000000000000000000 ) ) ;
#52 = ADVANCED_FACE ( 'NONE', ( #947, #891 ), #697, .T. ) ;
#53 = LINE ( 'NONE', #295, #621 ) ;
#54 = LINE ( 'NONE', #291, #724 ) ;
#55 = CARTESIAN_POINT ( 'NONE',  ( 1.586949067577090089, -0.5170700965386989534, 0.0000000000000000000 ) ) ;
#56 = ORIENTED_EDGE ( 'NONE', *, *, #1, .F. ) ;
#57 = EDGE_CURVE ( 'NONE', #405, #753, #207, .T. ) ;
#58 = AXIS2_PLACEMENT_3D ( 'NONE', #50, #487, #478 ) ;
#59 = CARTESIAN_POINT ( 'NONE',  ( 0.2867311721816639403, 1.549288179472835481, -0.3499999999999999778 ) ) ;
#60 = DIRECTION ( 'NONE',  ( 0.0000000000000000000, 0.0000000000000000000, -1.000000000000000000 ) ) ;
#61 = PLANE ( 'NONE',  #964 ) ;
#62 = EDGE_CURVE ( 'NONE', #193, #655, #188, .T. ) ;
#63 = CARTESIAN_POINT ( 'NONE',  ( -0.2293849377453316962, -1.467364987420930911, 0.0000000000000000000 ) ) ;
#64 = AXIS2_PLACEMENT_3D ( 'NONE', #7, #516, #733 ) ;
#65 = CIRCLE ( 'NONE', #373, 0.1000000000000000056 ) ;
#66 = DIRECTION ( 'NONE',  ( -1.000000000000000000, 0.0000000000000000000, 0.0000000000000000000 ) ) ;
#67 = FACE_OUTER_BOUND ( 'NONE', #581, .T. ) ;
#68 = CARTESIAN_POINT ( 'NONE',  ( 1.628103170304735059, 6.071532165918824830E-16, -0.3499999999999999778 ) ) ;
#69 = LINE ( 'NONE', #215, #79 ) ;
#70 = ORIENTED_EDGE ( 'NONE', *, *, #842, .F. ) ;
#71 = ORIENTED_EDGE ( 'NONE', *, *, #797, .T. ) ;
#72 = CARTESIAN_POINT ( 'NONE',  ( -0.04085004790150663367, -0.4604914490715207309, 1.149999999999999911 ) ) ;
#73 = DIRECTION ( 'NONE',  ( 1.000000000000000000, 0.0000000000000000000, 0.0000000000000000000 ) ) ;
#74 = DIRECTION ( 'NONE',  ( -0.0000000000000000000, -0.0000000000000000000, 1.000000000000000000 ) ) ;
#75 = DIRECTION ( 'NONE',  ( -1.000000000000000000, 0.0000000000000000000, -0.0000000000000000000 ) ) ;
#76 = EDGE_CURVE ( 'NONE', #828, #381, #506, .T. ) ;
#77 = APPROVAL ( #768, 'UNSPECIFIED' ) ;
#78 = APPROVAL_DATE_TIME ( #276, #574 ) ;
#79 = VECTOR ( 'NONE', #821, 100.0000000000000000 ) ;
#80 =( NAMED_UNIT ( * ) SI_UNIT ( $, .STERADIAN. ) SOLID_ANGLE_UNIT ( ) );
#81 = VERTEX_POINT ( 'NONE', #784 ) ;
#82 = DIRECTION ( 'NONE',  ( -0.0000000000000000000, -0.0000000000000000000, -1.000000000000000000 ) ) ;
#83 = EDGE_LOOP ( 'NONE', ( #336, #896, #176, #418 ) ) ;
#84 = VERTEX_POINT ( 'NONE', #458 ) ;
#85 = AXIS2_PLACEMENT_3D ( 'NONE', #595, #158, #394 ) ;
#86 = DIRECTION ( 'NONE',  ( -0.7071067811865463515, 0.0000000000000000000, -0.7071067811865486830 ) ) ;
#87 = DATE_TIME_ROLE ( 'classification_date' ) ;
#88 = APPROVAL_PERSON_ORGANIZATION ( #284, #77, #849 ) ;
#89 = CARTESIAN_POINT ( 'NONE',  ( -2.128103170304735503, 4.336808689942017736E-16, -0.1000000000000000056 ) ) ;
#90 = FACE_OUTER_BOUND ( 'NONE', #27, .T. ) ;
#91 = CC_DESIGN_APPROVAL ( #77, ( #353 ) ) ;
#92 = FACE_OUTER_BOUND ( 'NONE', #669, .T. ) ;
#93 = EDGE_LOOP ( 'NONE', ( #379, #614, #552, #743 ) ) ;
#94 = PERSON_AND_ORGANIZATION_ROLE ( 'classification_officer' ) ;
#95 = DIRECTION ( 'NONE',  ( 0.0000000000000000000, 0.0000000000000000000, 1.000000000000000000 ) ) ;
#96 = EDGE_LOOP ( 'NONE', ( #15, #135, #918, #949 ) ) ;
#97 = DIRECTION ( 'NONE',  ( 0.0000000000000000000, 0.0000000000000000000, -1.000000000000000000 ) ) ;
#98 = ORIENTED_EDGE ( 'NONE', *, *, #931, .F. ) ;
#99 = ORIENTED_EDGE ( 'NONE', *, *, #409, .F. ) ;
#100 = EDGE_CURVE ( 'NONE', #818, #753, #713, .T. ) ;
#101 = EDGE_CURVE ( 'NONE', #927, #894, #344, .T. ) ;
#102 = CARTESIAN_POINT ( 'NONE',  ( -0.2293849377453310023, 1.467364987420931577, -0.1000000000000000056 ) ) ;
#103 = DATE_AND_TIME ( #619, #660 ) ;
#104 = LINE ( 'NONE', #28, #3 ) ;
#105 = EDGE_CURVE ( 'NONE', #494, #795, #890, .T. ) ;
#106 = TOROIDAL_SURFACE ( 'NONE', #246, 1.099999999999999867, 0.1000000000000000056 ) ;
#107 = PLANE ( 'NONE',  #431 ) ;
#108 = ORIENTED_EDGE ( 'NONE', *, *, #797, .F. ) ;
#109 = VERTEX_POINT ( 'NONE', #339 ) ;
#110 = DIRECTION ( 'NONE',  ( 0.0000000000000000000, 0.0000000000000000000, -1.000000000000000000 ) ) ;
#111 = PLANE ( 'NONE',  #477 ) ;
#112 = DIRECTION ( 'NONE',  ( 0.8192319205190399245, 0.5734623443633291018, -0.0000000000000000000 ) ) ;
#113 = AXIS2_PLACEMENT_3D ( 'NONE', #350, #355, #972 ) ;
#114 = DIRECTION ( 'NONE',  ( -0.0000000000000000000, 0.0000000000000000000, 1.000000000000000000 ) ) ;
#115 = DIRECTION ( 'NONE',  ( 0.5734623443633284356, 0.8192319205190403686, 0.0000000000000000000 ) ) ;
#116 = CARTESIAN_POINT ( 'NONE',  ( -1.628103170304735503, 4.336808689942017736E-16, -0.3499999999999999778 ) ) ;
#117 = ADVANCED_FACE ( 'NONE', ( #904 ), #690, .T. ) ;
#118 = EDGE_CURVE ( 'NONE', #367, #315, #482, .T. ) ;
#119 = CIRCLE ( 'NONE', #250, 1.000000000000000000 ) ;
#120 = ORIENTED_EDGE ( 'NONE', *, *, #100, .F. ) ;
#121 = AXIS2_PLACEMENT_3D ( 'NONE', #304, #227, #237 ) ;
#122 = EDGE_LOOP ( 'NONE', ( #19, #692, #243, #612 ) ) ;
#123 = CARTESIAN_POINT ( 'NONE',  ( 2.499999999999999556, 7.505710259521395320E-16, -0.3499999999999999778 ) ) ;
#124 = ORIENTED_EDGE ( 'NONE', *, *, #895, .F. ) ;
#125 = EDGE_LOOP ( 'NONE', ( #348, #798, #589, #556 ) ) ;
#126 = ADVANCED_FACE ( 'NONE', ( #678 ), #633, .F. ) ;
#127 = DIRECTION ( 'NONE',  ( 0.0000000000000000000, 0.0000000000000000000, -1.000000000000000000 ) ) ;
#128 = CARTESIAN_POINT ( 'NONE',  ( -1.914834342486399388, -0.4096159602595196292, -0.3499999999999999778 ) ) ;
#129 = CARTESIAN_POINT ( 'NONE',  ( 1.000000000000000000, 1.224646799147353207E-16, 0.1000000000000000888 ) ) ;
#130 = DIRECTION ( 'NONE',  ( 1.000000000000000000, 0.0000000000000000000, 0.0000000000000000000 ) ) ;
#131 = FACE_OUTER_BOUND ( 'NONE', #926, .T. ) ;
#132 = CYLINDRICAL_SURFACE ( 'NONE', #64, 1.000000000000000000 ) ;
#133 = EDGE_LOOP ( 'NONE', ( #961, #508, #311, #815 ) ) ;
#134 = ADVANCED_FACE ( 'NONE', ( #450 ), #847, .T. ) ;
#135 = ORIENTED_EDGE ( 'NONE', *, *, #364, .F. ) ;
#136 = CC_DESIGN_PERSON_AND_ORGANIZATION_ASSIGNMENT ( #549, #238, ( #525 ) ) ;
#137 = DIRECTION ( 'NONE',  ( 0.8192319205190404796, -0.5734623443633284356, 0.0000000000000000000 ) ) ;
#138 = DIRECTION ( 'NONE',  ( 0.8192319205190403686, -0.5734623443633283246, 0.0000000000000000000 ) ) ;
#139 = ADVANCED_FACE ( 'NONE', ( #623 ), #944, .F. ) ;
#140 = AXIS2_PLACEMENT_3D ( 'NONE', #770, #97, #173 ) ;
#141 = FACE_OUTER_BOUND ( 'NONE', #212, .T. ) ;
#142 = CARTESIAN_POINT ( 'NONE',  ( 1.914834342486399388, 0.4096159602595206839, -0.1000000000000000056 ) ) ;
#143 = FACE_OUTER_BOUND ( 'NONE', #971, .T. ) ;
#144 = VERTEX_POINT ( 'NONE', #129 ) ;
#145 = DIRECTION ( 'NONE',  ( -0.5734623443633292128, -0.8192319205190399245, 0.0000000000000000000 ) ) ;
#146 = ORIENTED_EDGE ( 'NONE', *, *, #730, .F. ) ;
#147 = ORIENTED_EDGE ( 'NONE', *, *, #682, .T. ) ;
#148 = CARTESIAN_POINT ( 'NONE',  ( -0.04085004790150663367, 0.4604914490715207309, 1.149999999999999911 ) ) ;
#149 = EDGE_CURVE ( 'NONE', #727, #48, #649, .T. ) ;
#150 = CARTESIAN_POINT ( 'NONE',  ( -0.04085004790150663367, 0.4604914490715207309, 1.500000000000000000 ) ) ;
#151 = AXIS2_PLACEMENT_3D ( 'NONE', #488, #476, #639 ) ;
#152 = DIRECTION ( 'NONE',  ( -1.000000000000000000, 0.0000000000000000000, 0.0000000000000000000 ) ) ;
#153 = VECTOR ( 'NONE', #12, 100.0000000000000000 ) ;
#154 = DIRECTION ( 'NONE',  ( -1.000000000000000000, 0.0000000000000000000, 0.0000000000000000000 ) ) ;
#155 = FACE_OUTER_BOUND ( 'NONE', #122, .T. ) ;
#156 = ORIENTED_EDGE ( 'NONE', *, *, #105, .F. ) ;
#157 = AXIS2_PLACEMENT_3D ( 'NONE', #843, #754, #677 ) ;
#158 = DIRECTION ( 'NONE',  ( -0.8192319205190398135, 0.5734623443633293238, 0.0000000000000000000 ) ) ;
#159 = APPROVAL_STATUS ( 'not_yet_approved' ) ;
#160 = CARTESIAN_POINT ( 'NONE',  ( -0.2867311721816644399, -1.549288179472834814, -0.3499999999999999778 ) ) ;
#161 = EDGE_CURVE ( 'NONE', #769, #828, #813, .T. ) ;
#162 = CARTESIAN_POINT ( 'NONE',  ( 1.099999999999999867, 1.347111479062088503E-16, 4.336808689942017736E-17 ) ) ;
#163 =( GEOMETRIC_REPRESENTATION_CONTEXT ( 3 ) GLOBAL_UNCERTAINTY_ASSIGNED_CONTEXT ( ( #694 ) ) GLOBAL_UNIT_ASSIGNED_CONTEXT ( ( #228, #833, #80 ) ) REPRESENTATION_CONTEXT ( 'NONE', 'WORKASPACE' ) );
#164 = LINE ( 'NONE', #747, #804 ) ;
#165 = FACE_OUTER_BOUND ( 'NONE', #715, .T. ) ;
#166 = VERTEX_POINT ( 'NONE', #415 ) ;
#167 = CARTESIAN_POINT ( 'NONE',  ( 1.914834342486399388, 0.4096159602595206839, -0.3499999999999999778 ) ) ;
#168 = ORIENTED_EDGE ( 'NONE', *, *, #620, .F. ) ;
#169 = ORIENTED_EDGE ( 'NONE', *, *, #951, .T. ) ;
#170 = EDGE_CURVE ( 'NONE', #917, #81, #400, .T. ) ;
#171 = DIRECTION ( 'NONE',  ( -0.8192319205190404796, 0.5734623443633284356, -0.0000000000000000000 ) ) ;
#172 = CARTESIAN_POINT ( 'NONE',  ( -1.000000000000000000, 0.0000000000000000000, 1.500000000000000000 ) ) ;
#173 = DIRECTION ( 'NONE',  ( -1.000000000000000000, 0.0000000000000000000, 0.0000000000000000000 ) ) ;
#174 = LINE ( 'NONE', #449, #153 ) ;
#175 = LINE ( 'NONE', #837, #220 ) ;
#176 = ORIENTED_EDGE ( 'NONE', *, *, #914, .T. ) ;
#177 = ORIENTED_EDGE ( 'NONE', *, *, #118, .T. ) ;
#178 = EDGE_CURVE ( 'NONE', #836, #756, #288, .T. ) ;
#179 = SECURITY_CLASSIFICATION ( '', '', #695 ) ;
#180 = DIRECTION ( 'NONE',  ( 0.0000000000000000000, 0.0000000000000000000, -1.000000000000000000 ) ) ;
#181 = CARTESIAN_POINT ( 'NONE',  ( 0.0000000000000000000, 0.0000000000000000000, 1.500000000000000000 ) ) ;
#182 = CARTESIAN_POINT ( 'NONE',  ( -1.857488108050066700, -0.3276927682076158366, 0.0000000000000000000 ) ) ;
#183 = CIRCLE ( 'NONE', #501, 0.09999999999999996392 ) ;
#184 = CARTESIAN_POINT ( 'NONE',  ( 1.628103170304735059, 6.071532165918824830E-16, -0.3499999999999999778 ) ) ;
#185 = AXIS2_PLACEMENT_3D ( 'NONE', #102, #323, #609 ) ;
#186 = VECTOR ( 'NONE', #271, 100.0000000000000000 ) ;
#187 = DIRECTION ( 'NONE',  ( -1.000000000000000000, 0.0000000000000000000, -0.0000000000000000000 ) ) ;
#188 = LINE ( 'NONE', #172, #807 ) ;
#189 = ORIENTED_EDGE ( 'NONE', *, *, #851, .T. ) ;
#190 = ORIENTED_EDGE ( 'NONE', *, *, #310, .F. ) ;
#191 = DIRECTION ( 'NONE',  ( 0.8192319205190404796, -0.5734623443633284356, 0.0000000000000000000 ) ) ;
#192 = PLANE ( 'NONE',  #858 ) ;
#193 = VERTEX_POINT ( 'NONE', #788 ) ;
#194 = CARTESIAN_POINT ( 'NONE',  ( 0.04085004790150663367, 0.4604914490715207309, 1.149999999999999911 ) ) ;
#195 = CARTESIAN_POINT ( 'NONE',  ( 1.857488108050066700, 0.3276927682076167248, -0.1000000000000000056 ) ) ;
#196 = PERSON_AND_ORGANIZATION ( #446, #688 ) ;
#197 = FACE_OUTER_BOUND ( 'NONE', #300, .T. ) ;
#198 = VECTOR ( 'NONE', #82, 100.0000000000000000 ) ;
#199 = CARTESIAN_POINT ( 'NONE',  ( 1.000000000000000000, 1.224646799147353207E-16, 1.500000000000000000 ) ) ;
#200 = ORIENTED_EDGE ( 'NONE', *, *, #76, .T. ) ;
#201 = CARTESIAN_POINT ( 'NONE',  ( 0.04085004790150663367, 0.4604914490715207309, 1.149999999999999911 ) ) ;
#202 = AXIS2_PLACEMENT_3D ( 'NONE', #417, #187, #114 ) ;
#203 = LOCAL_TIME ( 21, 28, 34.00000000000000000, #933 ) ;
#204 = ADVANCED_FACE ( 'NONE', ( #806 ), #871, .F. ) ;
#205 = VECTOR ( 'NONE', #889, 100.0000000000000000 ) ;
#206 = EDGE_CURVE ( 'NONE', #443, #144, #664, .T. ) ;
#207 = LINE ( 'NONE', #321, #577 ) ;
#208 = VERTEX_POINT ( 'NONE', #474 ) ;
#209 = CC_DESIGN_PERSON_AND_ORGANIZATION_ASSIGNMENT ( #635, #844, ( #353 ) ) ;
#210 = ORIENTED_EDGE ( 'NONE', *, *, #745, .F. ) ;
#211 = DIRECTION ( 'NONE',  ( -0.0000000000000000000, -0.0000000000000000000, 1.000000000000000000 ) ) ;
#212 = EDGE_LOOP ( 'NONE', ( #557, #937, #314, #210, #39 ) ) ;
#213 = CARTESIAN_POINT ( 'NONE',  ( 2.128103170304735059, 6.071532165918824830E-16, -0.3499999999999999778 ) ) ;
#214 = EDGE_CURVE ( 'NONE', #193, #783, #438, .T. ) ;
#215 = CARTESIAN_POINT ( 'NONE',  ( -0.04085004790150663367, 0.4604914490715207309, 1.149999999999999911 ) ) ;
#216 = CARTESIAN_POINT ( 'NONE',  ( 1.857488108050066256, -0.3276927682076154480, 0.0000000000000000000 ) ) ;
#217 = FACE_OUTER_BOUND ( 'NONE', #133, .T. ) ;
#218 = DIRECTION ( 'NONE',  ( -0.0000000000000000000, -0.0000000000000000000, 1.000000000000000000 ) ) ;
#219 = VECTOR ( 'NONE', #705, 100.0000000000000000 ) ;
#220 = VECTOR ( 'NONE', #307, 100.0000000000000142 ) ;
#221 = DIRECTION ( 'NONE',  ( 0.0000000000000000000, 0.0000000000000000000, -1.000000000000000000 ) ) ;
#222 = ORIENTED_EDGE ( 'NONE', *, *, #57, .F. ) ;
#223 = DIRECTION ( 'NONE',  ( -0.0000000000000000000, -0.0000000000000000000, -1.000000000000000000 ) ) ;
#224 = ORIENTED_EDGE ( 'NONE', *, *, #895, .T. ) ;
#225 = ORIENTED_EDGE ( 'NONE', *, *, #745, .T. ) ;
#226 = DIRECTION ( 'NONE',  ( -0.8192319205190400355, 0.5734623443633287687, 0.0000000000000000000 ) ) ;
#227 = DIRECTION ( 'NONE',  ( 0.0000000000000000000, 0.0000000000000000000, 1.000000000000000000 ) ) ;
#228 =( LENGTH_UNIT ( ) NAMED_UNIT ( * ) SI_UNIT ( .CENTI., .METRE. ) );
#229 = EDGE_CURVE ( 'NONE', #741, #909, #425, .T. ) ;
#230 = CONICAL_SURFACE ( 'NONE', #259, 0.9000000000000004663, 0.7853981633974466137 ) ;
#231 = CARTESIAN_POINT ( 'NONE',  ( -3.035766082959412415E-16, -1.139672219213314852, -0.3499999999999999778 ) ) ;
#232 = VECTOR ( 'NONE', #505, 100.0000000000000142 ) ;
#233 = VERTEX_POINT ( 'NONE', #658 ) ;
#234 = ORIENTED_EDGE ( 'NONE', *, *, #717, .T. ) ;
#235 = VERTEX_POINT ( 'NONE', #287 ) ;
#236 = AXIS2_PLACEMENT_3D ( 'NONE', #472, #248, #782 ) ;
#237 = DIRECTION ( 'NONE',  ( 1.000000000000000000, 0.0000000000000000000, 0.0000000000000000000 ) ) ;
#238 = PERSON_AND_ORGANIZATION_ROLE ( 'creator' ) ;
#239 = FACE_OUTER_BOUND ( 'NONE', #354, .T. ) ;
#240 = VECTOR ( 'NONE', #461, 100.0000000000000000 ) ;
#241 = PLANE ( 'NONE',  #759 ) ;
#242 = LINE ( 'NONE', #148, #47 ) ;
#243 = ORIENTED_EDGE ( 'NONE', *, *, #62, .T. ) ;
#244 = ORIENTED_EDGE ( 'NONE', *, *, #723, .T. ) ;
#245 = DIRECTION ( 'NONE',  ( -1.000000000000000000, 0.0000000000000000000, 0.0000000000000000000 ) ) ;
#246 = AXIS2_PLACEMENT_3D ( 'NONE', #35, #746, #293 ) ;
#247 = CARTESIAN_POINT ( 'NONE',  ( 0.0000000000000000000, 1.750000000000000222, -0.3499999999999999778 ) ) ;
#248 = DIRECTION ( 'NONE',  ( -0.0000000000000000000, -0.0000000000000000000, 1.000000000000000000 ) ) ;
#249 = DIRECTION ( 'NONE',  ( 1.000000000000000000, 0.0000000000000000000, -0.0000000000000000000 ) ) ;
#250 = AXIS2_PLACEMENT_3D ( 'NONE', #952, #475, #256 ) ;
#251 = PLANE ( 'NONE',  #264 ) ;
#252 = COORDINATED_UNIVERSAL_TIME_OFFSET ( 6, 0, .BEHIND. ) ;
#253 = VECTOR ( 'NONE', #561, 99.99999999999998579 ) ;
#254 = CARTESIAN_POINT ( 'NONE',  ( -1.914834342486399610, -0.4096159602595197957, -0.3499999999999999778 ) ) ;
#255 = ORIENTED_EDGE ( 'NONE', *, *, #948, .F. ) ;
#256 = DIRECTION ( 'NONE',  ( 1.000000000000000000, 0.0000000000000000000, 0.0000000000000000000 ) ) ;
#257 = ORIENTED_EDGE ( 'NONE', *, *, #360, .T. ) ;
#258 = ORIENTED_EDGE ( 'NONE', *, *, #448, .F. ) ;
#259 = AXIS2_PLACEMENT_3D ( 'NONE', #369, #823, #665 ) ;
#260 = CARTESIAN_POINT ( 'NONE',  ( -1.586949067577090533, -0.5170700965386999526, 0.0000000000000000000 ) ) ;
#261 = APPROVAL_DATE_TIME ( #44, #77 ) ;
#262 = ADVANCED_FACE ( 'NONE', ( #469 ), #106, .F. ) ;
#263 = CARTESIAN_POINT ( 'NONE',  ( -0.04085004790150663367, -0.4604914490715207309, 1.149999999999999911 ) ) ;
#264 = AXIS2_PLACEMENT_3D ( 'NONE', #327, #180, #396 ) ;
#265 = CIRCLE ( 'NONE', #631, 0.5000000000000001110 ) ;
#266 = FACE_OUTER_BOUND ( 'NONE', #49, .T. ) ;
#267 = ORIENTED_EDGE ( 'NONE', *, *, #62, .F. ) ;
#268 = ORIENTED_EDGE ( 'NONE', *, *, #364, .T. ) ;
#269 = DIRECTION ( 'NONE',  ( 1.000000000000000000, 0.0000000000000000000, 0.0000000000000000000 ) ) ;
#270 = ORIENTED_EDGE ( 'NONE', *, *, #914, .F. ) ;
#271 = DIRECTION ( 'NONE',  ( -0.0000000000000000000, 1.000000000000000000, -0.0000000000000000000 ) ) ;
#272 = MANIFOLD_SOLID_BREP ( 'Fillet1', #483 ) ;
#273 = CARTESIAN_POINT ( 'NONE',  ( 0.0000000000000000000, 1.750000000000000222, -0.3499999999999999778 ) ) ;
#274 = CARTESIAN_POINT ( 'NONE',  ( 6.985463661651572895E-17, 1.750000000000000222, 0.0000000000000000000 ) ) ;
#275 = EDGE_CURVE ( 'NONE', #166, #533, #54, .T. ) ;
#276 = DATE_AND_TIME ( #468, #676 ) ;
#277 = AXIS2_PLACEMENT_3D ( 'NONE', #195, #720, #329 ) ;
#278 = ORIENTED_EDGE ( 'NONE', *, *, #812, .T. ) ;
#279 = ADVANCED_FACE ( 'NONE', ( #155 ), #781, .T. ) ;
#280 = EDGE_LOOP ( 'NONE', ( #848, #403 ) ) ;
#281 = DIRECTION ( 'NONE',  ( 0.0000000000000000000, 0.0000000000000000000, -1.000000000000000000 ) ) ;
#282 = AXIS2_PLACEMENT_3D ( 'NONE', #330, #112, #548 ) ;
#283 = CARTESIAN_POINT ( 'NONE',  ( -1.914834342486399610, 0.4096159602595206839, -0.3499999999999999778 ) ) ;
#284 = PERSON_AND_ORGANIZATION ( #446, #688 ) ;
#285 = DIRECTION ( 'NONE',  ( -1.000000000000000000, 0.0000000000000000000, 0.0000000000000000000 ) ) ;
#286 = LINE ( 'NONE', #696, #945 ) ;
#287 = CARTESIAN_POINT ( 'NONE',  ( 0.2867311721816638848, -1.549288179472835036, -0.3499999999999999778 ) ) ;
#288 = LINE ( 'NONE', #708, #597 ) ;
#289 = ORIENTED_EDGE ( 'NONE', *, *, #275, .T. ) ;
#290 = VERTEX_POINT ( 'NONE', #748 ) ;
#291 = CARTESIAN_POINT ( 'NONE',  ( -0.2867311721816638848, 1.549288179472835703, -0.3499999999999999778 ) ) ;
#292 = ORIENTED_EDGE ( 'NONE', *, *, #962, .T. ) ;
#293 = DIRECTION ( 'NONE',  ( -1.000000000000000000, 0.0000000000000000000, 0.0000000000000000000 ) ) ;
#294 = EDGE_CURVE ( 'NONE', #771, #533, #414, .T. ) ;
#295 = CARTESIAN_POINT ( 'NONE',  ( 2.128103170304735059, 6.071532165918824830E-16, -0.3499999999999999778 ) ) ;
#296 = DIRECTION ( 'NONE',  ( -0.5734623443633293238, 0.8192319205190397025, 0.0000000000000000000 ) ) ;
#297 = LINE ( 'NONE', #401, #308 ) ;
#298 = CIRCLE ( 'NONE', #378, 0.5000000000000001110 ) ;
#299 = ORIENTED_EDGE ( 'NONE', *, *, #682, .F. ) ;
#300 = EDGE_LOOP ( 'NONE', ( #120, #667, #189, #258, #56 ) ) ;
#301 = ORIENTED_EDGE ( 'NONE', *, *, #560, .T. ) ;
#302 = CARTESIAN_POINT ( 'NONE',  ( -0.9000000000000004663, 0.0000000000000000000, 1.500000000000000000 ) ) ;
#303 = APPROVAL_ROLE ( '' ) ;
#304 = CARTESIAN_POINT ( 'NONE',  ( -2.168404344971008868E-16, 1.139672219213315296, -0.3499999999999999778 ) ) ;
#305 = AXIS2_PLACEMENT_3D ( 'NONE', #886, #211, #503 ) ;
#306 = FACE_OUTER_BOUND ( 'NONE', #738, .T. ) ;
#307 = DIRECTION ( 'NONE',  ( 0.7071067811865463515, 8.659560562354916834E-17, -0.7071067811865486830 ) ) ;
#308 = VECTOR ( 'NONE', #332, 100.0000000000000000 ) ;
#309 = ORIENTED_EDGE ( 'NONE', *, *, #752, .T. ) ;
#310 = EDGE_CURVE ( 'NONE', #535, #367, #298, .T. ) ;
#311 = ORIENTED_EDGE ( 'NONE', *, *, #214, .F. ) ;
#312 = APPROVAL_STATUS ( 'not_yet_approved' ) ;
#313 = CARTESIAN_POINT ( 'NONE',  ( -1.628103170304735503, 4.336808689942017736E-16, -0.1000000000000000056 ) ) ;
#314 = ORIENTED_EDGE ( 'NONE', *, *, #592, .F. ) ;
#315 = VERTEX_POINT ( 'NONE', #662 ) ;
#316 = CARTESIAN_POINT ( 'NONE',  ( -0.04085004790150663367, 0.4604914490715207309, 1.149999999999999911 ) ) ;
#317 = CARTESIAN_POINT ( 'NONE',  ( 0.04085004790150663367, -0.4604914490715207309, 1.149999999999999911 ) ) ;
#318 = DIRECTION ( 'NONE',  ( -0.0000000000000000000, -0.0000000000000000000, -1.000000000000000000 ) ) ;
#319 = DIRECTION ( 'NONE',  ( 0.8192319205190403686, -0.5734623443633283246, 0.0000000000000000000 ) ) ;
#320 = TOROIDAL_SURFACE ( 'NONE', #347, 0.4000000000000000222, 0.1000000000000000056 ) ;
#321 = CARTESIAN_POINT ( 'NONE',  ( 0.0000000000000000000, -1.750000000000000222, -0.3499999999999999778 ) ) ;
#322 = VECTOR ( 'NONE', #318, 100.0000000000000000 ) ;
#323 = DIRECTION ( 'NONE',  ( 0.8192319205190407017, 0.5734623443633281026, 1.065855633595459117E-15 ) ) ;
#324 = ORIENTED_EDGE ( 'NONE', *, *, #606, .T. ) ;
#325 = EDGE_CURVE ( 'NONE', #756, #906, #69, .T. ) ;
#326 = AXIS2_PLACEMENT_3D ( 'NONE', #968, #965, #499 ) ;
#327 = CARTESIAN_POINT ( 'NONE',  ( 6.985463661651572895E-17, 1.750000000000000222, -0.3499999999999999778 ) ) ;
#328 = CARTESIAN_POINT ( 'NONE',  ( 0.04085004790150663367, 0.4604914490715207309, 1.149999999999999911 ) ) ;
#329 = DIRECTION ( 'NONE',  ( -0.5734623443633268813, -0.8192319205190415898, 0.0000000000000000000 ) ) ;
#330 = CARTESIAN_POINT ( 'NONE',  ( 1.857488108050066256, -0.3276927682076154480, -0.1000000000000000056 ) ) ;
#331 = AXIS2_PLACEMENT_3D ( 'NONE', #884, #191, #877 ) ;
#332 = DIRECTION ( 'NONE',  ( -0.8192319205190402576, -0.5734623443633285467, 0.0000000000000000000 ) ) ;
#333 = VECTOR ( 'NONE', #630, 100.0000000000000000 ) ;
#334 = EDGE_LOOP ( 'NONE', ( #958, #542, #301, #70 ) ) ;
#335 = DIRECTION ( 'NONE',  ( 0.0000000000000000000, 0.0000000000000000000, -1.000000000000000000 ) ) ;
#336 = ORIENTED_EDGE ( 'NONE', *, *, #206, .F. ) ;
#337 = PLANE ( 'NONE',  #202 ) ;
#338 = ORIENTED_EDGE ( 'NONE', *, *, #325, .F. ) ;
#339 = CARTESIAN_POINT ( 'NONE',  ( 0.04085004790150663367, 0.4604914490715207309, 1.500000000000000000 ) ) ;
#340 = ADVANCED_FACE ( 'NONE', ( #266 ), #459, .T. ) ;
#341 = DIRECTION ( 'NONE',  ( -0.8192319205190403686, 0.5734623443633284356, 0.0000000000000000000 ) ) ;
#342 = AXIS2_PLACEMENT_3D ( 'NONE', #313, #110, #245 ) ;
#343 = VECTOR ( 'NONE', #171, 99.99999999999998579 ) ;
#344 = CIRCLE ( 'NONE', #719, 0.9000000000000004663 ) ;
#345 = ORIENTED_EDGE ( 'NONE', *, *, #2, .T. ) ;
#346 = CARTESIAN_POINT ( 'NONE',  ( -2.168404344971008868E-16, 1.139672219213315296, 0.0000000000000000000 ) ) ;
#347 = AXIS2_PLACEMENT_3D ( 'NONE', #382, #764, #523 ) ;
#348 = ORIENTED_EDGE ( 'NONE', *, *, #637, .T. ) ;
#349 = ADVANCED_FACE ( 'NONE', ( #518 ), #132, .T. ) ;
#350 = CARTESIAN_POINT ( 'NONE',  ( -1.628103170304735503, 4.336808689942017736E-16, -0.1000000000000000056 ) ) ;
#351 = ADVANCED_FACE ( 'NONE', ( #92 ), #611, .T. ) ;
#352 = FACE_OUTER_BOUND ( 'NONE', #6, .T. ) ;
#353 = PRODUCT_DEFINITION ( 'UNKNOWN', '', #525, #451 ) ;
#354 = EDGE_LOOP ( 'NONE', ( #392, #554, #289, #377 ) ) ;
#355 = DIRECTION ( 'NONE',  ( 0.0000000000000000000, 0.0000000000000000000, -1.000000000000000000 ) ) ;
#356 = ORIENTED_EDGE ( 'NONE', *, *, #851, .F. ) ;
#357 = CARTESIAN_POINT ( 'NONE',  ( -2.499999999999999556, 7.505710259521395320E-16, -0.3499999999999999778 ) ) ;
#358 = EDGE_LOOP ( 'NONE', ( #973, #9, #627, #524 ) ) ;
#359 = ORIENTED_EDGE ( 'NONE', *, *, #294, .T. ) ;
#360 = EDGE_CURVE ( 'NONE', #144, #655, #862, .T. ) ;
#361 = DIRECTION ( 'NONE',  ( -1.000000000000000000, 0.0000000000000000000, 0.0000000000000000000 ) ) ;
#362 = AXIS2_PLACEMENT_3D ( 'NONE', #936, #617, #703 ) ;
#363 = VECTOR ( 'NONE', #868, 100.0000000000000000 ) ;
#364 = EDGE_CURVE ( 'NONE', #756, #741, #242, .T. ) ;
#365 = DIRECTION ( 'NONE',  ( 0.0000000000000000000, -1.000000000000000000, 0.0000000000000000000 ) ) ;
#366 = FACE_OUTER_BOUND ( 'NONE', #925, .T. ) ;
#367 = VERTEX_POINT ( 'NONE', #213 ) ;
#368 = EDGE_LOOP ( 'NONE', ( #255, #190, #716, #841 ) ) ;
#369 = CARTESIAN_POINT ( 'NONE',  ( 0.0000000000000000000, 0.0000000000000000000, 1.500000000000000000 ) ) ;
#370 = DIRECTION ( 'NONE',  ( 0.8192319205190398135, 0.5734623443633293238, -4.973992956778816706E-16 ) ) ;
#371 = DIRECTION ( 'NONE',  ( 0.0000000000000000000, 0.0000000000000000000, 1.000000000000000000 ) ) ;
#372 = EDGE_CURVE ( 'NONE', #81, #769, #826, .T. ) ;
#373 = AXIS2_PLACEMENT_3D ( 'NONE', #744, #513, #905 ) ;
#374 = CARTESIAN_POINT ( 'NONE',  ( -0.2293849377453311411, 1.467364987420931577, 0.0000000000000000000 ) ) ;
#375 = CIRCLE ( 'NONE', #683, 0.4000000000000000222 ) ;
#376 = LINE ( 'NONE', #194, #186 ) ;
#377 = ORIENTED_EDGE ( 'NONE', *, *, #294, .F. ) ;
#378 = AXIS2_PLACEMENT_3D ( 'NONE', #817, #60, #154 ) ;
#379 = ORIENTED_EDGE ( 'NONE', *, *, #962, .F. ) ;
#380 = ORIENTED_EDGE ( 'NONE', *, *, #522, .T. ) ;
#381 = VERTEX_POINT ( 'NONE', #63 ) ;
#382 = CARTESIAN_POINT ( 'NONE',  ( -3.035766082959412415E-16, -1.139672219213314852, -0.1000000000000000056 ) ) ;
#383 = PERSON_AND_ORGANIZATION_ROLE ( 'design_owner' ) ;
#384 = DIRECTION ( 'NONE',  ( 1.000000000000000000, 0.0000000000000000000, 0.0000000000000000000 ) ) ;
#385 = CIRCLE ( 'NONE', #659, 0.1000000000000000056 ) ;
#386 = CARTESIAN_POINT ( 'NONE',  ( 0.2293849377453310023, -1.467364987420930911, 0.0000000000000000000 ) ) ;
#387 = LINE ( 'NONE', #260, #504 ) ;
#388 = VECTOR ( 'NONE', #901, 100.0000000000000142 ) ;
#389 = EDGE_CURVE ( 'NONE', #404, #535, #588, .T. ) ;
#390 = FACE_OUTER_BOUND ( 'NONE', #96, .T. ) ;
#391 = DIRECTION ( 'NONE',  ( -0.0000000000000000000, -0.0000000000000000000, -1.000000000000000000 ) ) ;
#392 = ORIENTED_EDGE ( 'NONE', *, *, #448, .T. ) ;
#393 = AXIS2_PLACEMENT_3D ( 'NONE', #68, #514, #976 ) ;
#394 = DIRECTION ( 'NONE',  ( -0.5734623443633297679, -0.8192319205190395914, 0.0000000000000000000 ) ) ;
#395 = CARTESIAN_POINT ( 'NONE',  ( -0.2867311721816644954, -1.549288179472834814, -0.3499999999999999778 ) ) ;
#396 = DIRECTION ( 'NONE',  ( -1.000000000000000000, 0.0000000000000000000, -0.0000000000000000000 ) ) ;
#397 = AXIS2_PLACEMENT_3D ( 'NONE', #32, #853, #536 ) ;
#398 = PERSON_AND_ORGANIZATION ( #446, #688 ) ;
#399 = LINE ( 'NONE', #199, #205 ) ;
#400 = CIRCLE ( 'NONE', #282, 0.1000000000000000472 ) ;
#401 = CARTESIAN_POINT ( 'NONE',  ( 2.499999999999999556, 7.505710259521395320E-16, -0.3499999999999999778 ) ) ;
#402 = PRODUCT_DEFINITION_SHAPE ( 'NONE', 'NONE',  #353 ) ;
#403 = ORIENTED_EDGE ( 'NONE', *, *, #857, .T. ) ;
#404 = VERTEX_POINT ( 'NONE', #142 ) ;
#405 = VERTEX_POINT ( 'NONE', #160 ) ;
#406 = ORIENTED_EDGE ( 'NONE', *, *, #645, .F. ) ;
#407 = CC_DESIGN_APPROVAL ( #574, ( #525 ) ) ;
#408 = DIRECTION ( 'NONE',  ( 0.8192319205190403686, -0.5734623443633284356, -0.0000000000000000000 ) ) ;
#409 = EDGE_CURVE ( 'NONE', #927, #783, #175, .T. ) ;
#410 = DIRECTION ( 'NONE',  ( 0.0000000000000000000, -1.000000000000000000, 0.0000000000000000000 ) ) ;
#411 = AXIS2_PLACEMENT_3D ( 'NONE', #794, #335, #553 ) ;
#412 = CIRCLE ( 'NONE', #326, 1.099999999999999867 ) ;
#413 = TOROIDAL_SURFACE ( 'NONE', #140, 0.4000000000000000222, 0.1000000000000000056 ) ;
#414 = LINE ( 'NONE', #357, #388 ) ;
#415 = CARTESIAN_POINT ( 'NONE',  ( -0.2867311721816638848, 1.549288179472835703, -0.1000000000000000056 ) ) ;
#416 = VERTEX_POINT ( 'NONE', #20 ) ;
#417 = CARTESIAN_POINT ( 'NONE',  ( -0.04085004790150663367, 0.4604914490715207309, 1.149999999999999911 ) ) ;
#418 = ORIENTED_EDGE ( 'NONE', *, *, #360, .F. ) ;
#419 = ADVANCED_FACE ( 'NONE', ( #366 ), #540, .T. ) ;
#420 = DIRECTION ( 'NONE',  ( -1.000000000000000000, 0.0000000000000000000, 0.0000000000000000000 ) ) ;
#421 = EDGE_CURVE ( 'NONE', #208, #714, #4, .T. ) ;
#422 = AXIS2_PLACEMENT_3D ( 'NONE', #519, #975, #675 ) ;
#423 = CIRCLE ( 'NONE', #113, 0.5000000000000001110 ) ;
#424 = DIRECTION ( 'NONE',  ( 1.000000000000000000, 0.0000000000000000000, 0.0000000000000000000 ) ) ;
#425 = LINE ( 'NONE', #150, #566 ) ;
#426 = ORIENTED_EDGE ( 'NONE', *, *, #527, .F. ) ;
#427 = ADVANCED_FACE ( 'NONE', ( #750 ), #23, .F. ) ;
#428 = ORIENTED_EDGE ( 'NONE', *, *, #948, .T. ) ;
#429 = ORIENTED_EDGE ( 'NONE', *, *, #389, .T. ) ;
#430 = DIRECTION ( 'NONE',  ( -1.224646799147353207E-16, 1.000000000000000000, 0.0000000000000000000 ) ) ;
#431 = AXIS2_PLACEMENT_3D ( 'NONE', #317, #464, #384 ) ;
#432 = ORIENTED_EDGE ( 'NONE', *, *, #445, .T. ) ;
#433 = CARTESIAN_POINT ( 'NONE',  ( -2.499999999999999556, 7.505710259521395320E-16, -0.3499999999999999778 ) ) ;
#434 = CARTESIAN_POINT ( 'NONE',  ( 1.628103170304735059, 6.071532165918824830E-16, -0.1000000000000000056 ) ) ;
#435 = CIRCLE ( 'NONE', #31, 1.000000000000000000 ) ;
#436 = CARTESIAN_POINT ( 'NONE',  ( 1.914834342486399388, 0.4096159602595206839, -0.3499999999999999778 ) ) ;
#437 = FACE_OUTER_BOUND ( 'NONE', #808, .T. ) ;
#438 = CIRCLE ( 'NONE', #799, 1.000000000000000000 ) ;
#439 = APPLICATION_PROTOCOL_DEFINITION ( 'international standard', 'config_control_design', 1994, #742 ) ;
#440 = EDGE_LOOP ( 'NONE', ( #309, #543, #816, #939 ) ) ;
#441 = DIRECTION ( 'NONE',  ( -1.000000000000000000, -1.224646799147351235E-16, 0.0000000000000000000 ) ) ;
#442 = ORIENTED_EDGE ( 'NONE', *, *, #881, .F. ) ;
#443 = VERTEX_POINT ( 'NONE', #162 ) ;
#444 = DIRECTION ( 'NONE',  ( -0.0000000000000000000, -1.000000000000000000, -0.0000000000000000000 ) ) ;
#445 = EDGE_CURVE ( 'NONE', #166, #84, #957, .T. ) ;
#446 = PERSON ( 'UNSPECIFIED', 'UNSPECIFIED', 'UNSPECIFIED', ('UNSPECIFIED'), ('UNSPECIFIED'), ('UNSPECIFIED') ) ;
#447 = CARTESIAN_POINT ( 'NONE',  ( 0.2293849377453310578, 1.467364987420931577, -0.1000000000000000056 ) ) ;
#448 = EDGE_CURVE ( 'NONE', #771, #496, #701, .T. ) ;
#449 = CARTESIAN_POINT ( 'NONE',  ( -0.04085004790150663367, 0.4604914490715207309, 1.500000000000000000 ) ) ;
#450 = FACE_OUTER_BOUND ( 'NONE', #334, .T. ) ;
#451 = DESIGN_CONTEXT ( 'detailed design', #773, 'design' ) ;
#452 = ORIENTED_EDGE ( 'NONE', *, *, #2, .F. ) ;
#453 = CARTESIAN_POINT ( 'NONE',  ( -1.628103170304735503, 4.336808689942017736E-16, 0.0000000000000000000 ) ) ;
#454 = CC_DESIGN_PERSON_AND_ORGANIZATION_ASSIGNMENT ( #398, #94, ( #179 ) ) ;
#455 = DIRECTION ( 'NONE',  ( 1.000000000000000000, 0.0000000000000000000, 0.0000000000000000000 ) ) ;
#456 = CALENDAR_DATE ( 2020, 6, 5 ) ;
#457 = FACE_OUTER_BOUND ( 'NONE', #368, .T. ) ;
#458 = CARTESIAN_POINT ( 'NONE',  ( 0.2867311721816639403, 1.549288179472835481, -0.1000000000000000056 ) ) ;
#459 = CYLINDRICAL_SURFACE ( 'NONE', #393, 0.5000000000000001110 ) ;
#460 = AXIS2_PLACEMENT_3D ( 'NONE', #825, #668, #907 ) ;
#461 = DIRECTION ( 'NONE',  ( 1.000000000000000000, 0.0000000000000000000, 0.0000000000000000000 ) ) ;
#462 = ORIENTED_EDGE ( 'NONE', *, *, #510, .T. ) ;
#463 = ORIENTED_EDGE ( 'NONE', *, *, #583, .T. ) ;
#464 = DIRECTION ( 'NONE',  ( -0.0000000000000000000, 0.0000000000000000000, 1.000000000000000000 ) ) ;
#465 = CARTESIAN_POINT ( 'NONE',  ( -0.05734623443633279222, 1.668076807948096096, 0.0000000000000000000 ) ) ;
#466 = DIRECTION ( 'NONE',  ( -0.5734623443633277695, 0.8192319205190409237, 0.0000000000000000000 ) ) ;
#467 = COORDINATED_UNIVERSAL_TIME_OFFSET ( 6, 0, .BEHIND. ) ;
#468 = CALENDAR_DATE ( 2020, 6, 5 ) ;
#469 = FACE_OUTER_BOUND ( 'NONE', #83, .T. ) ;
#470 = ORIENTED_EDGE ( 'NONE', *, *, #100, .T. ) ;
#471 = ORIENTED_EDGE ( 'NONE', *, *, #578, .T. ) ;
#472 = CARTESIAN_POINT ( 'NONE',  ( 1.628103170304735059, 6.071532165918824830E-16, 0.0000000000000000000 ) ) ;
#473 = EDGE_LOOP ( 'NONE', ( #929, #40, #257, #267 ) ) ;
#474 = CARTESIAN_POINT ( 'NONE',  ( -2.028103170304735414, 4.336808689942017736E-16, 0.0000000000000000000 ) ) ;
#475 = DIRECTION ( 'NONE',  ( 0.0000000000000000000, 0.0000000000000000000, -1.000000000000000000 ) ) ;
#476 = DIRECTION ( 'NONE',  ( 0.0000000000000000000, 0.0000000000000000000, -1.000000000000000000 ) ) ;
#477 = AXIS2_PLACEMENT_3D ( 'NONE', #247, #930, #319 ) ;
#478 = DIRECTION ( 'NONE',  ( 1.000000000000000000, 0.0000000000000000000, 0.0000000000000000000 ) ) ;
#479 = PERSON_AND_ORGANIZATION ( #446, #688 ) ;
#480 = DIRECTION ( 'NONE',  ( -0.0000000000000000000, -0.0000000000000000000, 1.000000000000000000 ) ) ;
#481 = CYLINDRICAL_SURFACE ( 'NONE', #585, 0.5000000000000001110 ) ;
#482 = CIRCLE ( 'NONE', #777, 0.5000000000000001110 ) ;
#483 = CLOSED_SHELL ( 'NONE', ( #564, #427, #340, #960, #349, #279, #52, #650, #204, #126, #656, #42, #570, #887, #814, #573, #732, #139, #632, #718, #419, #728, #498, #262, #493, #646, #351, #955, #559, #117, #489, #134 ) ) ;
#484 = EDGE_LOOP ( 'NONE', ( #521, #642, #359, #234, #71, #852, #177, #838, #511 ) ) ;
#485 = CARTESIAN_POINT ( 'NONE',  ( 0.0000000000000000000, -1.750000000000000222, -0.3499999999999999778 ) ) ;
#486 = CC_DESIGN_DATE_AND_TIME_ASSIGNMENT ( #607, #928, ( #353 ) ) ;
#487 = DIRECTION ( 'NONE',  ( 0.0000000000000000000, 0.0000000000000000000, 1.000000000000000000 ) ) ;
#488 = CARTESIAN_POINT ( 'NONE',  ( -2.168404344971008868E-16, 1.139672219213315296, -0.1000000000000000056 ) ) ;
#489 = ADVANCED_FACE ( 'NONE', ( #765 ), #530, .T. ) ;
#490 = EDGE_CURVE ( 'NONE', #109, #741, #174, .T. ) ;
#491 = CYLINDRICAL_SURFACE ( 'NONE', #397, 0.1000000000000000749 ) ;
#492 = VECTOR ( 'NONE', #526, 100.0000000000000000 ) ;
#493 = ADVANCED_FACE ( 'NONE', ( #143 ), #320, .T. ) ;
#494 = VERTEX_POINT ( 'NONE', #374 ) ;
#495 = DIRECTION ( 'NONE',  ( 0.8192319205190403686, 0.5734623443633284356, -0.0000000000000000000 ) ) ;
#496 = VERTEX_POINT ( 'NONE', #920 ) ;
#497 = CARTESIAN_POINT ( 'NONE',  ( -1.857488108050066700, 0.3276927682076167248, 0.0000000000000000000 ) ) ;
#498 = ADVANCED_FACE ( 'NONE', ( #437 ), #956, .T. ) ;
#499 = DIRECTION ( 'NONE',  ( -1.000000000000000000, 0.0000000000000000000, 0.0000000000000000000 ) ) ;
#500 = DIRECTION ( 'NONE',  ( -0.0000000000000000000, -0.0000000000000000000, 1.000000000000000000 ) ) ;
#501 = AXIS2_PLACEMENT_3D ( 'NONE', #447, #226, #145 ) ;
#502 = LINE ( 'NONE', #55, #13 ) ;
#503 = DIRECTION ( 'NONE',  ( -1.000000000000000000, -8.881784197001252323E-16, 0.0000000000000000000 ) ) ;
#504 = VECTOR ( 'NONE', #408, 100.0000000000000142 ) ;
#505 = DIRECTION ( 'NONE',  ( -0.8192319205190403686, -0.5734623443633284356, 0.0000000000000000000 ) ) ;
#506 = CIRCLE ( 'NONE', #362, 0.09999999999999996392 ) ;
#507 = VERTEX_POINT ( 'NONE', #89 ) ;
#508 = ORIENTED_EDGE ( 'NONE', *, *, #409, .T. ) ;
#509 = DIRECTION ( 'NONE',  ( 0.0000000000000000000, 0.0000000000000000000, -1.000000000000000000 ) ) ;
#510 = EDGE_CURVE ( 'NONE', #894, #193, #22, .T. ) ;
#511 = ORIENTED_EDGE ( 'NONE', *, *, #911, .T. ) ;
#512 = AXIS2_PLACEMENT_3D ( 'NONE', #584, #500, #361 ) ;
#513 = DIRECTION ( 'NONE',  ( -0.0000000000000000000, -1.000000000000000000, -0.0000000000000000000 ) ) ;
#514 = DIRECTION ( 'NONE',  ( 0.0000000000000000000, 0.0000000000000000000, 1.000000000000000000 ) ) ;
#515 = DATE_AND_TIME ( #872, #203 ) ;
#516 = DIRECTION ( 'NONE',  ( -0.0000000000000000000, -0.0000000000000000000, -1.000000000000000000 ) ) ;
#517 = FACE_OUTER_BOUND ( 'NONE', #440, .T. ) ;
#518 = FACE_OUTER_BOUND ( 'NONE', #473, .T. ) ;
#519 = CARTESIAN_POINT ( 'NONE',  ( 1.628103170304735059, 6.071532165918824830E-16, -0.1000000000000000056 ) ) ;
#520 = EDGE_LOOP ( 'NONE', ( #292, #600, #679, #702 ) ) ;
#521 = ORIENTED_EDGE ( 'NONE', *, *, #57, .T. ) ;
#522 = EDGE_CURVE ( 'NONE', #496, #795, #711, .T. ) ;
#523 = DIRECTION ( 'NONE',  ( -1.000000000000000000, 0.0000000000000000000, 0.0000000000000000000 ) ) ;
#524 = ORIENTED_EDGE ( 'NONE', *, *, #527, .T. ) ;
#525 = PRODUCT_DEFINITION_FORMATION_WITH_SPECIFIED_SOURCE ( 'ANY', '', #912, .NOT_KNOWN. ) ;
#526 = DIRECTION ( 'NONE',  ( 0.0000000000000000000, 0.0000000000000000000, 1.000000000000000000 ) ) ;
#527 = EDGE_CURVE ( 'NONE', #818, #714, #722, .T. ) ;
#528 = AXIS2_PLACEMENT_3D ( 'NONE', #800, #38, #550 ) ;
#529 = CARTESIAN_POINT ( 'NONE',  ( -1.857488108050066700, 0.3276927682076166137, -0.1000000000000000056 ) ) ;
#530 = CYLINDRICAL_SURFACE ( 'NONE', #36, 0.1000000000000000749 ) ;
#531 = EDGE_LOOP ( 'NONE', ( #882, #767 ) ) ;
#532 = ORIENTED_EDGE ( 'NONE', *, *, #787, .T. ) ;
#533 = VERTEX_POINT ( 'NONE', #922 ) ;
#534 = DIRECTION ( 'NONE',  ( -0.0000000000000000000, -0.0000000000000000000, 1.000000000000000000 ) ) ;
#535 = VERTEX_POINT ( 'NONE', #167 ) ;
#536 = DIRECTION ( 'NONE',  ( 0.5734623443633293238, -0.8192319205190398135, 0.0000000000000000000 ) ) ;
#537 = CC_DESIGN_APPROVAL ( #941, ( #179 ) ) ;
#538 = CARTESIAN_POINT ( 'NONE',  ( 0.2293849377453310023, -1.467364987420930911, -0.1000000000000000056 ) ) ;
#539 = VECTOR ( 'NONE', #86, 100.0000000000000142 ) ;
#540 = CYLINDRICAL_SURFACE ( 'NONE', #706, 0.5000000000000001110 ) ;
#541 = ORIENTED_EDGE ( 'NONE', *, *, #275, .F. ) ;
#542 = ORIENTED_EDGE ( 'NONE', *, *, #445, .F. ) ;
#543 = ORIENTED_EDGE ( 'NONE', *, *, #178, .T. ) ;
#544 = DIRECTION ( 'NONE',  ( -1.000000000000000000, 0.0000000000000000000, 0.0000000000000000000 ) ) ;
#545 = CARTESIAN_POINT ( 'NONE',  ( -1.628103170304735503, 4.336808689942017736E-16, -0.3499999999999999778 ) ) ;
#546 = AXIS2_PLACEMENT_3D ( 'NONE', #328, #269, #866 ) ;
#547 = DIRECTION ( 'NONE',  ( -0.0000000000000000000, -0.0000000000000000000, -1.000000000000000000 ) ) ;
#548 = DIRECTION ( 'NONE',  ( -0.5734623443633295459, 0.8192319205190395914, 0.0000000000000000000 ) ) ;
#549 = PERSON_AND_ORGANIZATION ( #446, #688 ) ;
#550 = DIRECTION ( 'NONE',  ( -1.000000000000000000, 0.0000000000000000000, 0.0000000000000000000 ) ) ;
#551 = FACE_OUTER_BOUND ( 'NONE', #484, .T. ) ;
#552 = ORIENTED_EDGE ( 'NONE', *, *, #229, .F. ) ;
#553 = DIRECTION ( 'NONE',  ( -1.000000000000000000, 0.0000000000000000000, 0.0000000000000000000 ) ) ;
#554 = ORIENTED_EDGE ( 'NONE', *, *, #670, .T. ) ;
#555 = CARTESIAN_POINT ( 'NONE',  ( -2.168404344971008868E-16, 1.139672219213315296, -0.3499999999999999778 ) ) ;
#556 = ORIENTED_EDGE ( 'NONE', *, *, #645, .T. ) ;
#557 = ORIENTED_EDGE ( 'NONE', *, *, #170, .T. ) ;
#558 = CARTESIAN_POINT ( 'NONE',  ( 0.04085004790150663367, -0.4604914490715207309, 1.149999999999999911 ) ) ;
#559 = ADVANCED_FACE ( 'NONE', ( #903 ), #413, .T. ) ;
#560 = EDGE_CURVE ( 'NONE', #166, #494, #824, .T. ) ;
#561 = DIRECTION ( 'NONE',  ( -0.8192319205190404796, -0.5734623443633284356, -0.0000000000000000000 ) ) ;
#562 = AXIS2_PLACEMENT_3D ( 'NONE', #529, #370, #11 ) ;
#563 = CARTESIAN_POINT ( 'NONE',  ( 0.2867311721816638848, -1.549288179472835036, -0.1000000000000000056 ) ) ;
#564 = ADVANCED_FACE ( 'NONE', ( #610 ), #587, .T. ) ;
#565 = DIRECTION ( 'NONE',  ( 0.0000000000000000000, -0.0000000000000000000, -1.000000000000000000 ) ) ;
#566 = VECTOR ( 'NONE', #365, 100.0000000000000000 ) ;
#567 = ORIENTED_EDGE ( 'NONE', *, *, #940, .F. ) ;
#568 = ORIENTED_EDGE ( 'NONE', *, *, #206, .T. ) ;
#569 = CARTESIAN_POINT ( 'NONE',  ( -1.914834342486399610, -0.4096159602595197957, -0.1000000000000000056 ) ) ;
#570 = ADVANCED_FACE ( 'NONE', ( #517 ), #107, .T. ) ;
#571 = DIRECTION ( 'NONE',  ( 0.0000000000000000000, 0.0000000000000000000, 1.000000000000000000 ) ) ;
#572 = EDGE_CURVE ( 'NONE', #828, #818, #286, .T. ) ;
#573 = ADVANCED_FACE ( 'NONE', ( #131 ), #111, .F. ) ;
#574 = APPROVAL ( #159, 'UNSPECIFIED' ) ;
#575 = LINE ( 'NONE', #959, #943 ) ;
#576 = CONICAL_SURFACE ( 'NONE', #528, 0.9000000000000004663, 0.7853981633974466137 ) ;
#577 = VECTOR ( 'NONE', #613, 100.0000000000000000 ) ;
#578 = EDGE_CURVE ( 'NONE', #917, #829, #888, .T. ) ;
#579 = ORIENTED_EDGE ( 'NONE', *, *, #803, .T. ) ;
#580 = CARTESIAN_POINT ( 'NONE',  ( 1.099999999999999867, 1.347111479062088503E-16, 0.1000000000000000888 ) ) ;
#581 = EDGE_LOOP ( 'NONE', ( #147, #590, #672, #883 ) ) ;
#582 = DIRECTION ( 'NONE',  ( 1.000000000000000000, 0.0000000000000000000, 0.0000000000000000000 ) ) ;
#583 = EDGE_CURVE ( 'NONE', #880, #84, #45, .T. ) ;
#584 = CARTESIAN_POINT ( 'NONE',  ( 0.0000000000000000000, 0.0000000000000000000, 0.1000000000000000888 ) ) ;
#585 = AXIS2_PLACEMENT_3D ( 'NONE', #116, #707, #954 ) ;
#586 = SHAPE_DEFINITION_REPRESENTATION ( #402, #626 ) ;
#587 = TOROIDAL_SURFACE ( 'NONE', #827, 0.4000000000000000222, 0.1000000000000000056 ) ;
#588 = LINE ( 'NONE', #436, #198 ) ;
#589 = ORIENTED_EDGE ( 'NONE', *, *, #709, .F. ) ;
#590 = ORIENTED_EDGE ( 'NONE', *, *, #372, .T. ) ;
#591 = DIRECTION ( 'NONE',  ( 0.0000000000000000000, 0.0000000000000000000, -1.000000000000000000 ) ) ;
#592 = EDGE_CURVE ( 'NONE', #404, #290, #265, .T. ) ;
#593 = DIRECTION ( 'NONE',  ( 0.0000000000000000000, 0.0000000000000000000, -1.000000000000000000 ) ) ;
#594 = CC_DESIGN_PERSON_AND_ORGANIZATION_ASSIGNMENT ( #479, #383, ( #912 ) ) ;
#595 = CARTESIAN_POINT ( 'NONE',  ( -1.857488108050066700, -0.3276927682076157256, -0.1000000000000000056 ) ) ;
#596 = AXIS2_PLACEMENT_3D ( 'NONE', #538, #622, #466 ) ;
#597 = VECTOR ( 'NONE', #801, 100.0000000000000000 ) ;
#598 = VECTOR ( 'NONE', #95, 100.0000000000000000 ) ;
#599 = DIRECTION ( 'NONE',  ( 0.0000000000000000000, 0.0000000000000000000, 1.000000000000000000 ) ) ;
#600 = ORIENTED_EDGE ( 'NONE', *, *, #736, .F. ) ;
#601 = ORIENTED_EDGE ( 'NONE', *, *, #560, .F. ) ;
#602 = ORIENTED_EDGE ( 'NONE', *, *, #29, .F. ) ;
#603 = AXIS2_PLACEMENT_3D ( 'NONE', #274, #913, #75 ) ;
#604 = APPLICATION_PROTOCOL_DEFINITION ( 'international standard', 'config_control_design', 1994, #773 ) ;
#605 = CARTESIAN_POINT ( 'NONE',  ( -2.442653765563666646, -0.08192319205190329301, -0.1000000000000000056 ) ) ;
#606 = EDGE_CURVE ( 'NONE', #829, #416, #915, .T. ) ;
#607 = DATE_AND_TIME ( #860, #21 ) ;
#608 = AXIS2_PLACEMENT_3D ( 'NONE', #485, #115, #341 ) ;
#609 = DIRECTION ( 'NONE',  ( -0.5734623443633277695, 0.8192319205190409237, 0.0000000000000000000 ) ) ;
#610 = FACE_OUTER_BOUND ( 'NONE', #358, .T. ) ;
#611 = CYLINDRICAL_SURFACE ( 'NONE', #966, 0.09999999999999995004 ) ;
#612 = ORIENTED_EDGE ( 'NONE', *, *, #881, .T. ) ;
#613 = DIRECTION ( 'NONE',  ( -0.8192319205190402576, 0.5734623443633285467, 0.0000000000000000000 ) ) ;
#614 = ORIENTED_EDGE ( 'NONE', *, *, #637, .F. ) ;
#615 = DIRECTION ( 'NONE',  ( -0.0000000000000000000, -0.0000000000000000000, 1.000000000000000000 ) ) ;
#616 = CARTESIAN_POINT ( 'NONE',  ( -1.628103170304735503, 4.336808689942017736E-16, -0.1000000000000000056 ) ) ;
#617 = DIRECTION ( 'NONE',  ( -0.8192319205190400355, 0.5734623443633287687, 3.552852111984860764E-16 ) ) ;
#618 = DIRECTION ( 'NONE',  ( -0.8192319205190403686, 0.5734623443633284356, 0.0000000000000000000 ) ) ;
#619 = CALENDAR_DATE ( 2020, 6, 5 ) ;
#620 = EDGE_CURVE ( 'NONE', #769, #235, #104, .T. ) ;
#621 = VECTOR ( 'NONE', #371, 100.0000000000000000 ) ;
#622 = DIRECTION ( 'NONE',  ( 0.8192319205190407017, 0.5734623443633281026, -0.0000000000000000000 ) ) ;
#623 = FACE_OUTER_BOUND ( 'NONE', #892, .T. ) ;
#624 = AXIS2_PLACEMENT_3D ( 'NONE', #910, #221, #285 ) ;
#625 = LINE ( 'NONE', #395, #598 ) ;
#626 = ADVANCED_BREP_SHAPE_REPRESENTATION ( 'simple_L021', ( #272, #789 ), #163 ) ;
#627 = ORIENTED_EDGE ( 'NONE', *, *, #18, .F. ) ;
#628 = DIRECTION ( 'NONE',  ( -1.000000000000000000, 0.0000000000000000000, 0.0000000000000000000 ) ) ;
#629 = ORIENTED_EDGE ( 'NONE', *, *, #803, .F. ) ;
#630 = DIRECTION ( 'NONE',  ( 0.0000000000000000000, 0.0000000000000000000, 1.000000000000000000 ) ) ;
#631 = AXIS2_PLACEMENT_3D ( 'NONE', #934, #786, #859 ) ;
#632 = ADVANCED_FACE ( 'NONE', ( #551 ), #251, .T. ) ;
#633 = PLANE ( 'NONE',  #739 ) ;
#634 = DIRECTION ( 'NONE',  ( -0.5734623443633284356, 0.8192319205190403686, 0.0000000000000000000 ) ) ;
#635 = PERSON_AND_ORGANIZATION ( #446, #688 ) ;
#636 = CIRCLE ( 'NONE', #305, 0.4000000000000000222 ) ;
#637 = EDGE_CURVE ( 'NONE', #909, #48, #700, .T. ) ;
#638 = VECTOR ( 'NONE', #480, 100.0000000000000000 ) ;
#639 = DIRECTION ( 'NONE',  ( -1.000000000000000000, 0.0000000000000000000, 0.0000000000000000000 ) ) ;
#640 = VERTEX_POINT ( 'NONE', #386 ) ;
#641 = CARTESIAN_POINT ( 'NONE',  ( -0.04085004790150663367, 0.4604914490715207309, 1.149999999999999911 ) ) ;
#642 = ORIENTED_EDGE ( 'NONE', *, *, #1, .T. ) ;
#643 = ORIENTED_EDGE ( 'NONE', *, *, #842, .T. ) ;
#644 = PLANE ( 'NONE',  #603 ) ;
#645 = EDGE_CURVE ( 'NONE', #906, #909, #737, .T. ) ;
#646 = ADVANCED_FACE ( 'NONE', ( #352 ), #491, .T. ) ;
#647 = CARTESIAN_POINT ( 'NONE',  ( 0.0000000000000000000, 0.0000000000000000000, 1.500000000000000000 ) ) ;
#648 = LINE ( 'NONE', #273, #967 ) ;
#649 = LINE ( 'NONE', #710, #638 ) ;
#650 = ADVANCED_FACE ( 'NONE', ( #165 ), #576, .T. ) ;
#651 = CIRCLE ( 'NONE', #342, 0.5000000000000001110 ) ;
#652 = AXIS2_PLACEMENT_3D ( 'NONE', #545, #698, #856 ) ;
#653 = ORIENTED_EDGE ( 'NONE', *, *, #723, .F. ) ;
#654 = DIRECTION ( 'NONE',  ( 0.5734623443633284356, -0.8192319205190404796, 0.0000000000000000000 ) ) ;
#655 = VERTEX_POINT ( 'NONE', #796 ) ;
#656 = ADVANCED_FACE ( 'NONE', ( #90 ), #337, .F. ) ;
#657 = CARTESIAN_POINT ( 'NONE',  ( -0.2867311721816644954, -1.549288179472834814, -0.1000000000000000056 ) ) ;
#658 = CARTESIAN_POINT ( 'NONE',  ( -1.099999999999999867, 0.0000000000000000000, 4.336808689942017736E-17 ) ) ;
#659 = AXIS2_PLACEMENT_3D ( 'NONE', #674, #444, #591 ) ;
#660 = LOCAL_TIME ( 21, 28, 34.00000000000000000, #467 ) ;
#661 = LOCAL_TIME ( 21, 28, 34.00000000000000000, #875 ) ;
#662 = CARTESIAN_POINT ( 'NONE',  ( 1.914834342486399610, -0.4096159602595194626, -0.3499999999999999778 ) ) ;
#663 = LINE ( 'NONE', #946, #846 ) ;
#664 = CIRCLE ( 'NONE', #921, 0.1000000000000000888 ) ;
#665 = DIRECTION ( 'NONE',  ( -1.000000000000000000, 0.0000000000000000000, 0.0000000000000000000 ) ) ;
#666 = EDGE_CURVE ( 'NONE', #315, #235, #297, .T. ) ;
#667 = ORIENTED_EDGE ( 'NONE', *, *, #18, .T. ) ;
#668 = DIRECTION ( 'NONE',  ( -0.0000000000000000000, -0.0000000000000000000, -1.000000000000000000 ) ) ;
#669 = EDGE_LOOP ( 'NONE', ( #200, #653, #426, #725 ) ) ;
#670 = EDGE_CURVE ( 'NONE', #496, #166, #663, .T. ) ;
#671 = ORIENTED_EDGE ( 'NONE', *, *, #105, .T. ) ;
#672 = ORIENTED_EDGE ( 'NONE', *, *, #620, .T. ) ;
#673 = CARTESIAN_POINT ( 'NONE',  ( 0.0000000000000000000, 0.0000000000000000000, 1.400000000000000133 ) ) ;
#674 = CARTESIAN_POINT ( 'NONE',  ( -1.099999999999999867, 0.0000000000000000000, 0.1000000000000000888 ) ) ;
#675 = DIRECTION ( 'NONE',  ( -1.000000000000000000, 0.0000000000000000000, 0.0000000000000000000 ) ) ;
#676 = LOCAL_TIME ( 21, 28, 34.00000000000000000, #252 ) ;
#677 = DIRECTION ( 'NONE',  ( -1.000000000000000000, 0.0000000000000000000, 0.0000000000000000000 ) ) ;
#678 = FACE_OUTER_BOUND ( 'NONE', #125, .T. ) ;
#679 = ORIENTED_EDGE ( 'NONE', *, *, #752, .F. ) ;
#680 = ORIENTED_EDGE ( 'NONE', *, *, #76, .F. ) ;
#681 = APPROVAL_ROLE ( '' ) ;
#682 = EDGE_CURVE ( 'NONE', #315, #81, #876, .T. ) ;
#683 = AXIS2_PLACEMENT_3D ( 'NONE', #346, #898, #420 ) ;
#684 = DIRECTION ( 'NONE',  ( -1.000000000000000000, 0.0000000000000000000, 0.0000000000000000000 ) ) ;
#685 = AXIS2_PLACEMENT_3D ( 'NONE', #555, #802, #874 ) ;
#686 = APPROVAL_DATE_TIME ( #515, #941 ) ;
#687 = DIRECTION ( 'NONE',  ( 0.0000000000000000000, 0.0000000000000000000, -1.000000000000000000 ) ) ;
#688 = ORGANIZATION ( 'UNSPECIFIED', 'UNSPECIFIED', '' ) ;
#689 = VECTOR ( 'NONE', #615, 100.0000000000000000 ) ;
#690 = CYLINDRICAL_SURFACE ( 'NONE', #331, 0.09999999999999993616 ) ;
#691 = ORIENTED_EDGE ( 'NONE', *, *, #170, .F. ) ;
#692 = ORIENTED_EDGE ( 'NONE', *, *, #730, .T. ) ;
#693 = ORIENTED_EDGE ( 'NONE', *, *, #670, .F. ) ;
#694 = UNCERTAINTY_MEASURE_WITH_UNIT (LENGTH_MEASURE( 1.000000000000000082E-05 ), #228, 'distance_accuracy_value', 'NONE');
#695 = SECURITY_CLASSIFICATION_LEVEL ( 'unclassified' ) ;
#696 = CARTESIAN_POINT ( 'NONE',  ( 0.0000000000000000000, -1.750000000000000222, -0.1000000000000000056 ) ) ;
#697 = PLANE ( 'NONE',  #867 ) ;
#698 = DIRECTION ( 'NONE',  ( 0.0000000000000000000, 0.0000000000000000000, -1.000000000000000000 ) ) ;
#699 = PERSON_AND_ORGANIZATION ( #446, #688 ) ;
#700 = LINE ( 'NONE', #774, #240 ) ;
#701 = LINE ( 'NONE', #760, #492 ) ;
#702 = ORIENTED_EDGE ( 'NONE', *, *, #149, .T. ) ;
#703 = DIRECTION ( 'NONE',  ( -0.5734623443633292128, -0.8192319205190399245, 0.0000000000000000000 ) ) ;
#704 = ORIENTED_EDGE ( 'NONE', *, *, #787, .F. ) ;
#705 = DIRECTION ( 'NONE',  ( 0.0000000000000000000, 0.0000000000000000000, 1.000000000000000000 ) ) ;
#706 = AXIS2_PLACEMENT_3D ( 'NONE', #231, #599, #455 ) ;
#707 = DIRECTION ( 'NONE',  ( 0.0000000000000000000, 0.0000000000000000000, 1.000000000000000000 ) ) ;
#708 = CARTESIAN_POINT ( 'NONE',  ( -0.04085004790150663367, 0.4604914490715207309, 1.149999999999999911 ) ) ;
#709 = EDGE_CURVE ( 'NONE', #906, #727, #805, .T. ) ;
#710 = CARTESIAN_POINT ( 'NONE',  ( 0.04085004790150663367, -0.4604914490715207309, 1.149999999999999911 ) ) ;
#711 = CIRCLE ( 'NONE', #562, 0.1000000000000000056 ) ;
#712 = AXIS2_PLACEMENT_3D ( 'NONE', #434, #509, #66 ) ;
#713 = LINE ( 'NONE', #254, #322 ) ;
#714 = VERTEX_POINT ( 'NONE', #182 ) ;
#715 = EDGE_LOOP ( 'NONE', ( #99, #34, #462, #146 ) ) ;
#716 = ORIENTED_EDGE ( 'NONE', *, *, #389, .F. ) ;
#717 = EDGE_CURVE ( 'NONE', #533, #880, #935, .T. ) ;
#718 = ADVANCED_FACE ( 'NONE', ( #197 ), #481, .T. ) ;
#719 = AXIS2_PLACEMENT_3D ( 'NONE', #950, #41, #869 ) ;
#720 = DIRECTION ( 'NONE',  ( -0.8192319205190410347, 0.5734623443633275475, 0.0000000000000000000 ) ) ;
#721 = CARTESIAN_POINT ( 'NONE',  ( 0.0000000000000000000, 0.0000000000000000000, 0.1000000000000000888 ) ) ;
#722 = CIRCLE ( 'NONE', #85, 0.1000000000000000056 ) ;
#723 = EDGE_CURVE ( 'NONE', #714, #381, #387, .T. ) ;
#724 = VECTOR ( 'NONE', #223, 100.0000000000000000 ) ;
#725 = ORIENTED_EDGE ( 'NONE', *, *, #572, .F. ) ;
#726 = CARTESIAN_POINT ( 'NONE',  ( -0.9000000000000004663, 0.0000000000000000000, 1.500000000000000000 ) ) ;
#727 = VERTEX_POINT ( 'NONE', #558 ) ;
#728 = ADVANCED_FACE ( 'NONE', ( #457 ), #792, .T. ) ;
#729 = DIRECTION ( 'NONE',  ( -1.000000000000000000, 0.0000000000000000000, 0.0000000000000000000 ) ) ;
#730 = EDGE_CURVE ( 'NONE', #783, #193, #119, .T. ) ;
#731 = AXIS2_PLACEMENT_3D ( 'NONE', #5, #74, #152 ) ;
#732 = ADVANCED_FACE ( 'NONE', ( #67 ), #192, .F. ) ;
#733 = DIRECTION ( 'NONE',  ( -1.000000000000000000, 0.0000000000000000000, 0.0000000000000000000 ) ) ;
#734 = CIRCLE ( 'NONE', #731, 0.4000000000000000222 ) ;
#735 = CARTESIAN_POINT ( 'NONE',  ( 1.000000000000000000, 1.224646799147353207E-16, 1.400000000000000133 ) ) ;
#736 = EDGE_CURVE ( 'NONE', #836, #109, #780, .T. ) ;
#737 = LINE ( 'NONE', #778, #689 ) ;
#738 = EDGE_LOOP ( 'NONE', ( #324, #643, #671, #532, #755, #244, #224, #579, #471 ) ) ;
#739 = AXIS2_PLACEMENT_3D ( 'NONE', #263, #410, #565 ) ;
#740 = EDGE_LOOP ( 'NONE', ( #567, #704, #17, #356 ) ) ;
#741 = VERTEX_POINT ( 'NONE', #942 ) ;
#742 = APPLICATION_CONTEXT ( 'configuration controlled 3d designs of mechanical parts and assemblies' ) ;
#743 = ORIENTED_EDGE ( 'NONE', *, *, #490, .F. ) ;
#744 = CARTESIAN_POINT ( 'NONE',  ( -2.028103170304735414, 4.336808689942017736E-16, -0.1000000000000000056 ) ) ;
#745 = EDGE_CURVE ( 'NONE', #829, #404, #749, .T. ) ;
#746 = DIRECTION ( 'NONE',  ( 0.0000000000000000000, 0.0000000000000000000, -1.000000000000000000 ) ) ;
#747 = CARTESIAN_POINT ( 'NONE',  ( 0.04085004790150663367, 0.4604914490715207309, 1.500000000000000000 ) ) ;
#748 = CARTESIAN_POINT ( 'NONE',  ( 2.128103170304735059, 6.071532165918824830E-16, -0.1000000000000000056 ) ) ;
#749 = CIRCLE ( 'NONE', #277, 0.09999999999999990841 ) ;
#750 = FACE_OUTER_BOUND ( 'NONE', #938, .T. ) ;
#751 = CARTESIAN_POINT ( 'NONE',  ( -0.04085004790150663367, -0.4604914490715207309, 1.500000000000000000 ) ) ;
#752 = EDGE_CURVE ( 'NONE', #727, #836, #376, .T. ) ;
#753 = VERTEX_POINT ( 'NONE', #128 ) ;
#754 = DIRECTION ( 'NONE',  ( 0.0000000000000000000, 0.0000000000000000000, -1.000000000000000000 ) ) ;
#755 = ORIENTED_EDGE ( 'NONE', *, *, #421, .T. ) ;
#756 = VERTEX_POINT ( 'NONE', #641 ) ;
#757 = CARTESIAN_POINT ( 'NONE',  ( 0.0000000000000000000, 0.0000000000000000000, 0.0000000000000000000 ) ) ;
#758 = CARTESIAN_POINT ( 'NONE',  ( 0.0000000000000000000, 0.0000000000000000000, 0.1000000000000000888 ) ) ;
#759 = AXIS2_PLACEMENT_3D ( 'NONE', #316, #850, #30 ) ;
#760 = CARTESIAN_POINT ( 'NONE',  ( -1.914834342486399610, 0.4096159602595206839, -0.3499999999999999778 ) ) ;
#761 = APPROVAL_PERSON_ORGANIZATION ( #900, #941, #681 ) ;
#762 = MECHANICAL_CONTEXT ( 'NONE', #742, 'mechanical' ) ;
#763 = CIRCLE ( 'NONE', #422, 0.5000000000000001110 ) ;
#764 = DIRECTION ( 'NONE',  ( 0.0000000000000000000, 0.0000000000000000000, -1.000000000000000000 ) ) ;
#765 = FACE_OUTER_BOUND ( 'NONE', #908, .T. ) ;
#766 = ORIENTED_EDGE ( 'NONE', *, *, #161, .T. ) ;
#767 = ORIENTED_EDGE ( 'NONE', *, *, #101, .T. ) ;
#768 = APPROVAL_STATUS ( 'not_yet_approved' ) ;
#769 = VERTEX_POINT ( 'NONE', #563 ) ;
#770 = CARTESIAN_POINT ( 'NONE',  ( -1.628103170304735503, 4.336808689942017736E-16, -0.1000000000000000056 ) ) ;
#771 = VERTEX_POINT ( 'NONE', #283 ) ;
#772 = EDGE_LOOP ( 'NONE', ( #225, #864, #98, #963 ) ) ;
#773 = APPLICATION_CONTEXT ( 'configuration controlled 3d designs of mechanical parts and assemblies' ) ;
#774 = CARTESIAN_POINT ( 'NONE',  ( -0.04085004790150663367, -0.4604914490715207309, 1.500000000000000000 ) ) ;
#775 = EDGE_CURVE ( 'NONE', #783, #144, #399, .T. ) ;
#776 = DIRECTION ( 'NONE',  ( 0.0000000000000000000, 0.0000000000000000000, 1.000000000000000000 ) ) ;
#777 = AXIS2_PLACEMENT_3D ( 'NONE', #184, #127, #628 ) ;
#778 = CARTESIAN_POINT ( 'NONE',  ( -0.04085004790150663367, -0.4604914490715207309, 1.149999999999999911 ) ) ;
#779 = APPROVAL_PERSON_ORGANIZATION ( #196, #574, #303 ) ;
#780 = LINE ( 'NONE', #790, #363 ) ;
#781 = CYLINDRICAL_SURFACE ( 'NONE', #460, 1.000000000000000000 ) ;
#782 = DIRECTION ( 'NONE',  ( -1.000000000000000000, 0.0000000000000000000, 0.0000000000000000000 ) ) ;
#783 = VERTEX_POINT ( 'NONE', #735 ) ;
#784 = CARTESIAN_POINT ( 'NONE',  ( 1.914834342486399388, -0.4096159602595194626, -0.1000000000000000056 ) ) ;
#785 = EDGE_CURVE ( 'NONE', #233, #443, #969, .T. ) ;
#786 = DIRECTION ( 'NONE',  ( 0.0000000000000000000, 0.0000000000000000000, -1.000000000000000000 ) ) ;
#787 = EDGE_CURVE ( 'NONE', #795, #208, #636, .T. ) ;
#788 = CARTESIAN_POINT ( 'NONE',  ( -1.000000000000000000, 0.0000000000000000000, 1.400000000000000133 ) ) ;
#789 = AXIS2_PLACEMENT_3D ( 'NONE', #757, #10, #582 ) ;
#790 = CARTESIAN_POINT ( 'NONE',  ( 0.04085004790150663367, 0.4604914490715207309, 1.149999999999999911 ) ) ;
#791 = CIRCLE ( 'NONE', #14, 0.9000000000000004663 ) ;
#792 = CYLINDRICAL_SURFACE ( 'NONE', #58, 0.5000000000000001110 ) ;
#793 = CIRCLE ( 'NONE', #596, 0.1000000000000000472 ) ;
#794 = CARTESIAN_POINT ( 'NONE',  ( -3.035766082959412415E-16, -1.139672219213314852, -0.1000000000000000056 ) ) ;
#795 = VERTEX_POINT ( 'NONE', #497 ) ;
#796 = CARTESIAN_POINT ( 'NONE',  ( -1.000000000000000000, 0.0000000000000000000, 0.1000000000000000888 ) ) ;
#797 = EDGE_CURVE ( 'NONE', #880, #535, #648, .T. ) ;
#798 = ORIENTED_EDGE ( 'NONE', *, *, #149, .F. ) ;
#799 = AXIS2_PLACEMENT_3D ( 'NONE', #673, #593, #73 ) ;
#800 = CARTESIAN_POINT ( 'NONE',  ( 0.0000000000000000000, 0.0000000000000000000, 1.500000000000000000 ) ) ;
#801 = DIRECTION ( 'NONE',  ( -1.000000000000000000, -0.0000000000000000000, -0.0000000000000000000 ) ) ;
#802 = DIRECTION ( 'NONE',  ( 0.0000000000000000000, 0.0000000000000000000, -1.000000000000000000 ) ) ;
#803 = EDGE_CURVE ( 'NONE', #640, #917, #502, .T. ) ;
#804 = VECTOR ( 'NONE', #830, 100.0000000000000000 ) ;
#805 = LINE ( 'NONE', #879, #924 ) ;
#806 = FACE_OUTER_BOUND ( 'NONE', #520, .T. ) ;
#807 = VECTOR ( 'NONE', #391, 100.0000000000000000 ) ;
#808 = EDGE_LOOP ( 'NONE', ( #541, #432, #865, #8 ) ) ;
#809 = DIRECTION ( 'NONE',  ( -0.0000000000000000000, -0.0000000000000000000, 1.000000000000000000 ) ) ;
#810 = EDGE_CURVE ( 'NONE', #894, #927, #791, .T. ) ;
#811 = CARTESIAN_POINT ( 'NONE',  ( 1.857488108050066700, 0.3276927682076167248, 0.0000000000000000000 ) ) ;
#812 = EDGE_CURVE ( 'NONE', #84, #404, #575, .T. ) ;
#813 = CIRCLE ( 'NONE', #411, 0.4999999999999999445 ) ;
#814 = ADVANCED_FACE ( 'NONE', ( #239 ), #61, .F. ) ;
#815 = ORIENTED_EDGE ( 'NONE', *, *, #510, .F. ) ;
#816 = ORIENTED_EDGE ( 'NONE', *, *, #325, .T. ) ;
#817 = CARTESIAN_POINT ( 'NONE',  ( 1.628103170304735059, 6.071532165918824830E-16, -0.3499999999999999778 ) ) ;
#818 = VERTEX_POINT ( 'NONE', #569 ) ;
#819 = ORIENTED_EDGE ( 'NONE', *, *, #29, .T. ) ;
#820 = DIRECTION ( 'NONE',  ( -0.5734623443633288797, -0.8192319205190400355, 0.0000000000000000000 ) ) ;
#821 = DIRECTION ( 'NONE',  ( 0.0000000000000000000, -1.000000000000000000, 0.0000000000000000000 ) ) ;
#822 = COORDINATED_UNIVERSAL_TIME_OFFSET ( 6, 0, .BEHIND. ) ;
#823 = DIRECTION ( 'NONE',  ( 0.0000000000000000000, 0.0000000000000000000, -1.000000000000000000 ) ) ;
#824 = CIRCLE ( 'NONE', #185, 0.1000000000000000472 ) ;
#825 = CARTESIAN_POINT ( 'NONE',  ( 0.0000000000000000000, 0.0000000000000000000, 1.500000000000000000 ) ) ;
#826 = LINE ( 'NONE', #899, #232 ) ;
#827 = AXIS2_PLACEMENT_3D ( 'NONE', #616, #863, #544 ) ;
#828 = VERTEX_POINT ( 'NONE', #657 ) ;
#829 = VERTEX_POINT ( 'NONE', #811 ) ;
#830 = DIRECTION ( 'NONE',  ( -0.0000000000000000000, 1.000000000000000000, -0.0000000000000000000 ) ) ;
#831 = CARTESIAN_POINT ( 'NONE',  ( 0.05734623443633284773, -1.668076807948096096, -0.1000000000000000056 ) ) ;
#832 = DIRECTION ( 'NONE',  ( -1.000000000000000000, 0.0000000000000000000, 0.0000000000000000000 ) ) ;
#833 =( NAMED_UNIT ( * ) PLANE_ANGLE_UNIT ( ) SI_UNIT ( $, .RADIAN. ) );
#834 = CIRCLE ( 'NONE', #624, 0.4999999999999999445 ) ;
#835 = PERSON_AND_ORGANIZATION_ROLE ( 'design_supplier' ) ;
#836 = VERTEX_POINT ( 'NONE', #201 ) ;
#837 = CARTESIAN_POINT ( 'NONE',  ( 0.9000000000000004663, 1.102182119232618527E-16, 1.500000000000000000 ) ) ;
#838 = ORIENTED_EDGE ( 'NONE', *, *, #666, .T. ) ;
#839 = CC_DESIGN_PERSON_AND_ORGANIZATION_ASSIGNMENT ( #699, #835, ( #525 ) ) ;
#840 = DIRECTION ( 'NONE',  ( -1.000000000000000000, 0.0000000000000000000, 0.0000000000000000000 ) ) ;
#841 = ORIENTED_EDGE ( 'NONE', *, *, #592, .T. ) ;
#842 = EDGE_CURVE ( 'NONE', #416, #494, #375, .T. ) ;
#843 = CARTESIAN_POINT ( 'NONE',  ( -2.168404344971008868E-16, 1.139672219213315296, -0.1000000000000000056 ) ) ;
#844 = PERSON_AND_ORGANIZATION_ROLE ( 'creator' ) ;
#845 = FACE_BOUND ( 'NONE', #280, .T. ) ;
#846 = VECTOR ( 'NONE', #870, 99.99999999999998579 ) ;
#847 = TOROIDAL_SURFACE ( 'NONE', #151, 0.4000000000000000222, 0.1000000000000000056 ) ;
#848 = ORIENTED_EDGE ( 'NONE', *, *, #785, .T. ) ;
#849 = APPROVAL_ROLE ( '' ) ;
#850 = DIRECTION ( 'NONE',  ( -0.0000000000000000000, 1.000000000000000000, 0.0000000000000000000 ) ) ;
#851 = EDGE_CURVE ( 'NONE', #507, #496, #423, .T. ) ;
#852 = ORIENTED_EDGE ( 'NONE', *, *, #310, .T. ) ;
#853 = DIRECTION ( 'NONE',  ( -0.8192319205190404796, -0.5734623443633285467, 0.0000000000000000000 ) ) ;
#854 = ORIENTED_EDGE ( 'NONE', *, *, #229, .T. ) ;
#855 = ORIENTED_EDGE ( 'NONE', *, *, #161, .F. ) ;
#856 = DIRECTION ( 'NONE',  ( -1.000000000000000000, 0.0000000000000000000, 0.0000000000000000000 ) ) ;
#857 = EDGE_CURVE ( 'NONE', #443, #233, #412, .T. ) ;
#858 = AXIS2_PLACEMENT_3D ( 'NONE', #123, #634, #885 ) ;
#859 = DIRECTION ( 'NONE',  ( -1.000000000000000000, 0.0000000000000000000, 0.0000000000000000000 ) ) ;
#860 = CALENDAR_DATE ( 2020, 6, 5 ) ;
#861 = CARTESIAN_POINT ( 'NONE',  ( 0.04085004790150663367, -0.4604914490715207309, 1.500000000000000000 ) ) ;
#862 = CIRCLE ( 'NONE', #512, 1.000000000000000000 ) ;
#863 = DIRECTION ( 'NONE',  ( 0.0000000000000000000, 0.0000000000000000000, -1.000000000000000000 ) ) ;
#864 = ORIENTED_EDGE ( 'NONE', *, *, #812, .F. ) ;
#865 = ORIENTED_EDGE ( 'NONE', *, *, #583, .F. ) ;
#866 = DIRECTION ( 'NONE',  ( 0.0000000000000000000, 0.0000000000000000000, -1.000000000000000000 ) ) ;
#867 = AXIS2_PLACEMENT_3D ( 'NONE', #181, #776, #249 ) ;
#868 = DIRECTION ( 'NONE',  ( -0.0000000000000000000, -0.0000000000000000000, 1.000000000000000000 ) ) ;
#869 = DIRECTION ( 'NONE',  ( 1.000000000000000000, 0.0000000000000000000, 0.0000000000000000000 ) ) ;
#870 = DIRECTION ( 'NONE',  ( 0.8192319205190404796, 0.5734623443633284356, 0.0000000000000000000 ) ) ;
#871 = PLANE ( 'NONE',  #546 ) ;
#872 = CALENDAR_DATE ( 2020, 6, 5 ) ;
#873 = PRODUCT_RELATED_PRODUCT_CATEGORY ( 'detail', '', ( #912 ) ) ;
#874 = DIRECTION ( 'NONE',  ( -1.000000000000000000, 0.0000000000000000000, 0.0000000000000000000 ) ) ;
#875 = COORDINATED_UNIVERSAL_TIME_OFFSET ( 6, 0, .BEHIND. ) ;
#876 = LINE ( 'NONE', #46, #333 ) ;
#877 = DIRECTION ( 'NONE',  ( 0.5734623443633287687, 0.8192319205190401465, 0.0000000000000000000 ) ) ;
#878 = ORIENTED_EDGE ( 'NONE', *, *, #857, .F. ) ;
#879 = CARTESIAN_POINT ( 'NONE',  ( -0.04085004790150663367, -0.4604914490715207309, 1.149999999999999911 ) ) ;
#880 = VERTEX_POINT ( 'NONE', #59 ) ;
#881 = EDGE_CURVE ( 'NONE', #655, #144, #435, .T. ) ;
#882 = ORIENTED_EDGE ( 'NONE', *, *, #810, .T. ) ;
#883 = ORIENTED_EDGE ( 'NONE', *, *, #666, .F. ) ;
#884 = CARTESIAN_POINT ( 'NONE',  ( -0.05734623443633284079, 1.668076807948096096, -0.1000000000000000056 ) ) ;
#885 = DIRECTION ( 'NONE',  ( -0.8192319205190403686, -0.5734623443633284356, 0.0000000000000000000 ) ) ;
#886 = CARTESIAN_POINT ( 'NONE',  ( -1.628103170304735503, 4.336808689942017736E-16, 0.0000000000000000000 ) ) ;
#887 = ADVANCED_FACE ( 'NONE', ( #845, #306 ), #644, .F. ) ;
#888 = CIRCLE ( 'NONE', #236, 0.4000000000000000222 ) ;
#889 = DIRECTION ( 'NONE',  ( -0.0000000000000000000, -0.0000000000000000000, -1.000000000000000000 ) ) ;
#890 = LINE ( 'NONE', #953, #253 ) ;
#891 = FACE_OUTER_BOUND ( 'NONE', #531, .T. ) ;
#892 = EDGE_LOOP ( 'NONE', ( #819, #26, #470, #222 ) ) ;
#893 = DIRECTION ( 'NONE',  ( 0.8192319205190403686, 0.5734623443633283246, 0.0000000000000000000 ) ) ;
#894 = VERTEX_POINT ( 'NONE', #726 ) ;
#895 = EDGE_CURVE ( 'NONE', #381, #640, #734, .T. ) ;
#896 = ORIENTED_EDGE ( 'NONE', *, *, #785, .F. ) ;
#897 = CC_DESIGN_DATE_AND_TIME_ASSIGNMENT ( #103, #87, ( #179 ) ) ;
#898 = DIRECTION ( 'NONE',  ( -0.0000000000000000000, -0.0000000000000000000, 1.000000000000000000 ) ) ;
#899 = CARTESIAN_POINT ( 'NONE',  ( 2.499999999999999556, 7.505710259521395320E-16, -0.1000000000000000056 ) ) ;
#900 = PERSON_AND_ORGANIZATION ( #446, #688 ) ;
#901 = DIRECTION ( 'NONE',  ( 0.8192319205190403686, 0.5734623443633283246, 0.0000000000000000000 ) ) ;
#902 = AXIS2_PLACEMENT_3D ( 'NONE', #453, #534, #684 ) ;
#903 = FACE_OUTER_BOUND ( 'NONE', #740, .T. ) ;
#904 = FACE_OUTER_BOUND ( 'NONE', #772, .T. ) ;
#905 = DIRECTION ( 'NONE',  ( 0.0000000000000000000, 0.0000000000000000000, -1.000000000000000000 ) ) ;
#906 = VERTEX_POINT ( 'NONE', #72 ) ;
#907 = DIRECTION ( 'NONE',  ( -1.000000000000000000, 0.0000000000000000000, 0.0000000000000000000 ) ) ;
#908 = EDGE_LOOP ( 'NONE', ( #380, #156, #601, #693 ) ) ;
#909 = VERTEX_POINT ( 'NONE', #751 ) ;
#910 = CARTESIAN_POINT ( 'NONE',  ( -3.035766082959412415E-16, -1.139672219213314852, -0.3499999999999999778 ) ) ;
#911 = EDGE_CURVE ( 'NONE', #235, #405, #834, .T. ) ;
#912 = PRODUCT ( 'simple_L021', 'simple_L021', '', ( #762 ) ) ;
#913 = DIRECTION ( 'NONE',  ( 0.0000000000000000000, 0.0000000000000000000, -1.000000000000000000 ) ) ;
#914 = EDGE_CURVE ( 'NONE', #233, #655, #385, .T. ) ;
#915 = LINE ( 'NONE', #465, #343 ) ;
#916 = AXIS2_PLACEMENT_3D ( 'NONE', #51, #281, #729 ) ;
#917 = VERTEX_POINT ( 'NONE', #216 ) ;
#918 = ORIENTED_EDGE ( 'NONE', *, *, #178, .F. ) ;
#919 = CARTESIAN_POINT ( 'NONE',  ( 0.9000000000000004663, 1.163414459189985929E-16, 1.500000000000000000 ) ) ;
#920 = CARTESIAN_POINT ( 'NONE',  ( -1.914834342486399610, 0.4096159602595206839, -0.1000000000000000056 ) ) ;
#921 = AXIS2_PLACEMENT_3D ( 'NONE', #580, #430, #441 ) ;
#922 = CARTESIAN_POINT ( 'NONE',  ( -0.2867311721816638848, 1.549288179472835481, -0.3499999999999999778 ) ) ;
#923 = DIRECTION ( 'NONE',  ( 0.8192319205190404796, 0.5734623443633284356, 0.0000000000000000000 ) ) ;
#924 = VECTOR ( 'NONE', #130, 100.0000000000000000 ) ;
#925 = EDGE_LOOP ( 'NONE', ( #168, #766, #602, #16 ) ) ;
#926 = EDGE_LOOP ( 'NONE', ( #463, #278, #429, #108 ) ) ;
#927 = VERTEX_POINT ( 'NONE', #919 ) ;
#928 = DATE_TIME_ROLE ( 'creation_date' ) ;
#929 = ORIENTED_EDGE ( 'NONE', *, *, #214, .T. ) ;
#930 = DIRECTION ( 'NONE',  ( -0.5734623443633284356, -0.8192319205190404796, 0.0000000000000000000 ) ) ;
#931 = EDGE_CURVE ( 'NONE', #416, #84, #183, .T. ) ;
#932 = AXIS2_PLACEMENT_3D ( 'NONE', #758, #687, #840 ) ;
#933 = COORDINATED_UNIVERSAL_TIME_OFFSET ( 6, 0, .BEHIND. ) ;
#934 = CARTESIAN_POINT ( 'NONE',  ( 1.628103170304735059, 6.071532165918824830E-16, -0.1000000000000000056 ) ) ;
#935 = CIRCLE ( 'NONE', #685, 0.5000000000000001110 ) ;
#936 = CARTESIAN_POINT ( 'NONE',  ( -0.2293849377453316962, -1.467364987420930911, -0.1000000000000000056 ) ) ;
#937 = ORIENTED_EDGE ( 'NONE', *, *, #951, .F. ) ;
#938 = EDGE_LOOP ( 'NONE', ( #878, #568, #442, #270 ) ) ;
#939 = ORIENTED_EDGE ( 'NONE', *, *, #709, .T. ) ;
#940 = EDGE_CURVE ( 'NONE', #208, #507, #65, .T. ) ;
#941 = APPROVAL ( #312, 'UNSPECIFIED' ) ;
#942 = CARTESIAN_POINT ( 'NONE',  ( -0.04085004790150663367, 0.4604914490715207309, 1.500000000000000000 ) ) ;
#943 = VECTOR ( 'NONE', #137, 99.99999999999998579 ) ;
#944 = PLANE ( 'NONE',  #608 ) ;
#945 = VECTOR ( 'NONE', #618, 100.0000000000000142 ) ;
#946 = CARTESIAN_POINT ( 'NONE',  ( -2.499999999999999556, 7.505710259521395320E-16, -0.1000000000000000056 ) ) ;
#947 = FACE_BOUND ( 'NONE', #93, .T. ) ;
#948 = EDGE_CURVE ( 'NONE', #367, #290, #53, .T. ) ;
#949 = ORIENTED_EDGE ( 'NONE', *, *, #736, .T. ) ;
#950 = CARTESIAN_POINT ( 'NONE',  ( 0.0000000000000000000, 0.0000000000000000000, 1.500000000000000000 ) ) ;
#951 = EDGE_CURVE ( 'NONE', #290, #81, #763, .T. ) ;
#952 = CARTESIAN_POINT ( 'NONE',  ( 0.0000000000000000000, 0.0000000000000000000, 1.400000000000000133 ) ) ;
#953 = CARTESIAN_POINT ( 'NONE',  ( 0.05734623443633276446, 1.668076807948096096, 0.0000000000000000000 ) ) ;
#954 = DIRECTION ( 'NONE',  ( 1.000000000000000000, 0.0000000000000000000, 0.0000000000000000000 ) ) ;
#955 = ADVANCED_FACE ( 'NONE', ( #141 ), #33, .T. ) ;
#956 = CYLINDRICAL_SURFACE ( 'NONE', #121, 0.4999999999999999445 ) ;
#957 = CIRCLE ( 'NONE', #157, 0.5000000000000001110 ) ;
#958 = ORIENTED_EDGE ( 'NONE', *, *, #931, .T. ) ;
#959 = CARTESIAN_POINT ( 'NONE',  ( 0.0000000000000000000, 1.750000000000000222, -0.1000000000000000056 ) ) ;
#960 = ADVANCED_FACE ( 'NONE', ( #217 ), #230, .T. ) ;
#961 = ORIENTED_EDGE ( 'NONE', *, *, #101, .F. ) ;
#962 = EDGE_CURVE ( 'NONE', #48, #109, #164, .T. ) ;
#963 = ORIENTED_EDGE ( 'NONE', *, *, #606, .F. ) ;
#964 = AXIS2_PLACEMENT_3D ( 'NONE', #433, #654, #893 ) ;
#965 = DIRECTION ( 'NONE',  ( 0.0000000000000000000, 0.0000000000000000000, -1.000000000000000000 ) ) ;
#966 = AXIS2_PLACEMENT_3D ( 'NONE', #831, #974, #820 ) ;
#967 = VECTOR ( 'NONE', #138, 100.0000000000000142 ) ;
#968 = CARTESIAN_POINT ( 'NONE',  ( 0.0000000000000000000, 0.0000000000000000000, 0.0000000000000000000 ) ) ;
#969 = CIRCLE ( 'NONE', #916, 1.099999999999999867 ) ;
#970 = ORIENTED_EDGE ( 'NONE', *, *, #372, .F. ) ;
#971 = EDGE_LOOP ( 'NONE', ( #680, #855, #452, #124 ) ) ;
#972 = DIRECTION ( 'NONE',  ( -1.000000000000000000, 0.0000000000000000000, 0.0000000000000000000 ) ) ;
#973 = ORIENTED_EDGE ( 'NONE', *, *, #421, .F. ) ;
#974 = DIRECTION ( 'NONE',  ( -0.8192319205190404796, 0.5734623443633285467, 0.0000000000000000000 ) ) ;
#975 = DIRECTION ( 'NONE',  ( 0.0000000000000000000, 0.0000000000000000000, -1.000000000000000000 ) ) ;
#976 = DIRECTION ( 'NONE',  ( 1.000000000000000000, 0.0000000000000000000, 0.0000000000000000000 ) ) ;
ENDSEC;
END-ISO-10303-21;
