ISO-10303-21;
HEADER;
/* Generated by software containing ST-Developer
 * from STEP Tools, Inc. (www.steptools.com) 
 */
/* OPTION: using custom schema-name function */

FILE_DESCRIPTION(
/* description */ (''),
/* implementation_level */ '2;1');

FILE_NAME(
/* name */ 'mr',
/* time_stamp */ '2012-07-05T23:38:14+01:00',
/* author */ (''),
/* organization */ (''),
/* preprocessor_version */ 'ST-DEVELOPER v10',
/* originating_system */ '',
/* authorisation */ '');

FILE_SCHEMA (('CONFIG_CONTROL_DESIGN'));
ENDSEC;

DATA;
#10=SHAPE_REPRESENTATION_RELATIONSHIP($,$,#598,#12);
#11=MANIFOLD_SOLID_BREP('brep_1',#13);
#12=ADVANCED_BREP_SHAPE_REPRESENTATION('',(#11,#599),#597);
#13=CLOSED_SHELL('',(#15,#16,#17,#18,#19,#20,#21,#22,#23,#24,#25,#26,#27,
#28,#29,#30,#31,#32,#33,#34,#35,#36,#37,#38,#39,#40,#41,#42,#43,#44,#45));
#14=FACE_BOUND('',#86,.T.);
#15=ADVANCED_FACE('',(#46),#401,.T.);
#16=ADVANCED_FACE('',(#47),#402,.T.);
#17=ADVANCED_FACE('',(#48),#403,.T.);
#18=ADVANCED_FACE('',(#49),#404,.T.);
#19=ADVANCED_FACE('',(#50),#405,.T.);
#20=ADVANCED_FACE('',(#51),#406,.T.);
#21=ADVANCED_FACE('',(#52),#407,.T.);
#22=ADVANCED_FACE('',(#53),#408,.T.);
#23=ADVANCED_FACE('',(#54,#14),#409,.T.);
#24=ADVANCED_FACE('',(#55),#410,.T.);
#25=ADVANCED_FACE('',(#56),#411,.T.);
#26=ADVANCED_FACE('',(#57),#412,.T.);
#27=ADVANCED_FACE('',(#58),#413,.T.);
#28=ADVANCED_FACE('',(#59),#414,.T.);
#29=ADVANCED_FACE('',(#60),#415,.T.);
#30=ADVANCED_FACE('',(#61),#416,.T.);
#31=ADVANCED_FACE('',(#62),#417,.T.);
#32=ADVANCED_FACE('',(#63),#418,.T.);
#33=ADVANCED_FACE('',(#64),#419,.T.);
#34=ADVANCED_FACE('',(#65),#420,.T.);
#35=ADVANCED_FACE('',(#66),#421,.T.);
#36=ADVANCED_FACE('',(#67),#422,.T.);
#37=ADVANCED_FACE('',(#68),#423,.T.);
#38=ADVANCED_FACE('',(#69),#424,.T.);
#39=ADVANCED_FACE('',(#70),#425,.T.);
#40=ADVANCED_FACE('',(#71),#426,.T.);
#41=ADVANCED_FACE('',(#72),#427,.T.);
#42=ADVANCED_FACE('',(#73),#428,.T.);
#43=ADVANCED_FACE('',(#74),#429,.T.);
#44=ADVANCED_FACE('',(#75),#430,.T.);
#45=ADVANCED_FACE('',(#76),#431,.T.);
#46=FACE_OUTER_BOUND('',#77,.T.);
#47=FACE_OUTER_BOUND('',#78,.T.);
#48=FACE_OUTER_BOUND('',#79,.T.);
#49=FACE_OUTER_BOUND('',#80,.T.);
#50=FACE_OUTER_BOUND('',#81,.T.);
#51=FACE_OUTER_BOUND('',#82,.T.);
#52=FACE_OUTER_BOUND('',#83,.T.);
#53=FACE_OUTER_BOUND('',#84,.T.);
#54=FACE_OUTER_BOUND('',#85,.T.);
#55=FACE_OUTER_BOUND('',#87,.T.);
#56=FACE_OUTER_BOUND('',#88,.T.);
#57=FACE_OUTER_BOUND('',#89,.T.);
#58=FACE_OUTER_BOUND('',#90,.T.);
#59=FACE_OUTER_BOUND('',#91,.T.);
#60=FACE_OUTER_BOUND('',#92,.T.);
#61=FACE_OUTER_BOUND('',#93,.T.);
#62=FACE_OUTER_BOUND('',#94,.T.);
#63=FACE_OUTER_BOUND('',#95,.T.);
#64=FACE_OUTER_BOUND('',#96,.T.);
#65=FACE_OUTER_BOUND('',#97,.T.);
#66=FACE_OUTER_BOUND('',#98,.T.);
#67=FACE_OUTER_BOUND('',#99,.T.);
#68=FACE_OUTER_BOUND('',#100,.T.);
#69=FACE_OUTER_BOUND('',#101,.T.);
#70=FACE_OUTER_BOUND('',#102,.T.);
#71=FACE_OUTER_BOUND('',#103,.T.);
#72=FACE_OUTER_BOUND('',#104,.T.);
#73=FACE_OUTER_BOUND('',#105,.T.);
#74=FACE_OUTER_BOUND('',#106,.T.);
#75=FACE_OUTER_BOUND('',#107,.T.);
#76=FACE_OUTER_BOUND('',#108,.T.);
#77=EDGE_LOOP('',(#109,#110,#111,#112));
#78=EDGE_LOOP('',(#113,#114,#115,#116));
#79=EDGE_LOOP('',(#117,#118,#119,#120));
#80=EDGE_LOOP('',(#121,#122,#123,#124));
#81=EDGE_LOOP('',(#125,#126,#127,#128,#129,#130,#131,#132,#133,#134,#135,
#136,#137,#138,#139,#140));
#82=EDGE_LOOP('',(#141,#142,#143,#144,#145,#146,#147,#148,#149,#150,#151,
#152));
#83=EDGE_LOOP('',(#153,#154));
#84=EDGE_LOOP('',(#155,#156,#157,#158));
#85=EDGE_LOOP('',(#159,#160));
#86=EDGE_LOOP('',(#161,#162));
#87=EDGE_LOOP('',(#163,#164,#165,#166,#167,#168,#169,#170,#171,#172,#173,
#174,#175,#176,#177,#178,#179,#180,#181,#182));
#88=EDGE_LOOP('',(#183,#184,#185,#186));
#89=EDGE_LOOP('',(#187,#188,#189,#190));
#90=EDGE_LOOP('',(#191,#192,#193,#194));
#91=EDGE_LOOP('',(#195,#196,#197,#198));
#92=EDGE_LOOP('',(#199,#200,#201,#202));
#93=EDGE_LOOP('',(#203,#204,#205,#206,#207));
#94=EDGE_LOOP('',(#208,#209,#210,#211));
#95=EDGE_LOOP('',(#212,#213,#214,#215));
#96=EDGE_LOOP('',(#216,#217,#218,#219));
#97=EDGE_LOOP('',(#220,#221,#222,#223));
#98=EDGE_LOOP('',(#224,#225,#226,#227));
#99=EDGE_LOOP('',(#228,#229,#230,#231));
#100=EDGE_LOOP('',(#232,#233,#234,#235));
#101=EDGE_LOOP('',(#236,#237,#238,#239));
#102=EDGE_LOOP('',(#240,#241,#242,#243));
#103=EDGE_LOOP('',(#244,#245,#246,#247));
#104=EDGE_LOOP('',(#248,#249,#250,#251));
#105=EDGE_LOOP('',(#252,#253,#254,#255,#256));
#106=EDGE_LOOP('',(#257,#258,#259,#260));
#107=EDGE_LOOP('',(#261,#262,#263,#264));
#108=EDGE_LOOP('',(#265,#266,#267,#268));
#109=ORIENTED_EDGE('',*,*,#269,.F.);
#110=ORIENTED_EDGE('',*,*,#270,.T.);
#111=ORIENTED_EDGE('',*,*,#271,.T.);
#112=ORIENTED_EDGE('',*,*,#272,.F.);
#113=ORIENTED_EDGE('',*,*,#271,.F.);
#114=ORIENTED_EDGE('',*,*,#273,.T.);
#115=ORIENTED_EDGE('',*,*,#269,.T.);
#116=ORIENTED_EDGE('',*,*,#274,.F.);
#117=ORIENTED_EDGE('',*,*,#273,.F.);
#118=ORIENTED_EDGE('',*,*,#275,.F.);
#119=ORIENTED_EDGE('',*,*,#276,.F.);
#120=ORIENTED_EDGE('',*,*,#277,.T.);
#121=ORIENTED_EDGE('',*,*,#274,.T.);
#122=ORIENTED_EDGE('',*,*,#278,.T.);
#123=ORIENTED_EDGE('',*,*,#279,.F.);
#124=ORIENTED_EDGE('',*,*,#280,.F.);
#125=ORIENTED_EDGE('',*,*,#281,.T.);
#126=ORIENTED_EDGE('',*,*,#282,.T.);
#127=ORIENTED_EDGE('',*,*,#283,.F.);
#128=ORIENTED_EDGE('',*,*,#284,.F.);
#129=ORIENTED_EDGE('',*,*,#285,.F.);
#130=ORIENTED_EDGE('',*,*,#286,.T.);
#131=ORIENTED_EDGE('',*,*,#287,.F.);
#132=ORIENTED_EDGE('',*,*,#288,.F.);
#133=ORIENTED_EDGE('',*,*,#289,.F.);
#134=ORIENTED_EDGE('',*,*,#290,.T.);
#135=ORIENTED_EDGE('',*,*,#291,.F.);
#136=ORIENTED_EDGE('',*,*,#292,.F.);
#137=ORIENTED_EDGE('',*,*,#293,.F.);
#138=ORIENTED_EDGE('',*,*,#294,.T.);
#139=ORIENTED_EDGE('',*,*,#295,.F.);
#140=ORIENTED_EDGE('',*,*,#296,.F.);
#141=ORIENTED_EDGE('',*,*,#282,.F.);
#142=ORIENTED_EDGE('',*,*,#297,.T.);
#143=ORIENTED_EDGE('',*,*,#296,.T.);
#144=ORIENTED_EDGE('',*,*,#298,.F.);
#145=ORIENTED_EDGE('',*,*,#299,.F.);
#146=ORIENTED_EDGE('',*,*,#300,.F.);
#147=ORIENTED_EDGE('',*,*,#301,.T.);
#148=ORIENTED_EDGE('',*,*,#302,.F.);
#149=ORIENTED_EDGE('',*,*,#303,.F.);
#150=ORIENTED_EDGE('',*,*,#304,.F.);
#151=ORIENTED_EDGE('',*,*,#305,.T.);
#152=ORIENTED_EDGE('',*,*,#306,.F.);
#153=ORIENTED_EDGE('',*,*,#307,.T.);
#154=ORIENTED_EDGE('',*,*,#276,.T.);
#155=ORIENTED_EDGE('',*,*,#278,.F.);
#156=ORIENTED_EDGE('',*,*,#272,.T.);
#157=ORIENTED_EDGE('',*,*,#280,.T.);
#158=ORIENTED_EDGE('',*,*,#308,.F.);
#159=ORIENTED_EDGE('',*,*,#279,.T.);
#160=ORIENTED_EDGE('',*,*,#308,.T.);
#161=ORIENTED_EDGE('',*,*,#281,.F.);
#162=ORIENTED_EDGE('',*,*,#297,.F.);
#163=ORIENTED_EDGE('',*,*,#285,.T.);
#164=ORIENTED_EDGE('',*,*,#309,.F.);
#165=ORIENTED_EDGE('',*,*,#310,.T.);
#166=ORIENTED_EDGE('',*,*,#311,.T.);
#167=ORIENTED_EDGE('',*,*,#304,.T.);
#168=ORIENTED_EDGE('',*,*,#312,.F.);
#169=ORIENTED_EDGE('',*,*,#313,.T.);
#170=ORIENTED_EDGE('',*,*,#314,.T.);
#171=ORIENTED_EDGE('',*,*,#300,.T.);
#172=ORIENTED_EDGE('',*,*,#315,.F.);
#173=ORIENTED_EDGE('',*,*,#316,.T.);
#174=ORIENTED_EDGE('',*,*,#317,.T.);
#175=ORIENTED_EDGE('',*,*,#293,.T.);
#176=ORIENTED_EDGE('',*,*,#318,.F.);
#177=ORIENTED_EDGE('',*,*,#319,.T.);
#178=ORIENTED_EDGE('',*,*,#320,.T.);
#179=ORIENTED_EDGE('',*,*,#289,.T.);
#180=ORIENTED_EDGE('',*,*,#321,.F.);
#181=ORIENTED_EDGE('',*,*,#322,.T.);
#182=ORIENTED_EDGE('',*,*,#323,.T.);
#183=ORIENTED_EDGE('',*,*,#270,.F.);
#184=ORIENTED_EDGE('',*,*,#277,.F.);
#185=ORIENTED_EDGE('',*,*,#307,.F.);
#186=ORIENTED_EDGE('',*,*,#275,.T.);
#187=ORIENTED_EDGE('',*,*,#324,.F.);
#188=ORIENTED_EDGE('',*,*,#302,.T.);
#189=ORIENTED_EDGE('',*,*,#325,.T.);
#190=ORIENTED_EDGE('',*,*,#326,.F.);
#191=ORIENTED_EDGE('',*,*,#312,.T.);
#192=ORIENTED_EDGE('',*,*,#303,.T.);
#193=ORIENTED_EDGE('',*,*,#324,.T.);
#194=ORIENTED_EDGE('',*,*,#327,.T.);
#195=ORIENTED_EDGE('',*,*,#301,.F.);
#196=ORIENTED_EDGE('',*,*,#314,.F.);
#197=ORIENTED_EDGE('',*,*,#328,.F.);
#198=ORIENTED_EDGE('',*,*,#325,.F.);
#199=ORIENTED_EDGE('',*,*,#328,.T.);
#200=ORIENTED_EDGE('',*,*,#313,.F.);
#201=ORIENTED_EDGE('',*,*,#327,.F.);
#202=ORIENTED_EDGE('',*,*,#326,.T.);
#203=ORIENTED_EDGE('',*,*,#329,.F.);
#204=ORIENTED_EDGE('',*,*,#298,.T.);
#205=ORIENTED_EDGE('',*,*,#295,.T.);
#206=ORIENTED_EDGE('',*,*,#330,.T.);
#207=ORIENTED_EDGE('',*,*,#331,.F.);
#208=ORIENTED_EDGE('',*,*,#315,.T.);
#209=ORIENTED_EDGE('',*,*,#299,.T.);
#210=ORIENTED_EDGE('',*,*,#329,.T.);
#211=ORIENTED_EDGE('',*,*,#332,.T.);
#212=ORIENTED_EDGE('',*,*,#294,.F.);
#213=ORIENTED_EDGE('',*,*,#317,.F.);
#214=ORIENTED_EDGE('',*,*,#333,.F.);
#215=ORIENTED_EDGE('',*,*,#330,.F.);
#216=ORIENTED_EDGE('',*,*,#333,.T.);
#217=ORIENTED_EDGE('',*,*,#316,.F.);
#218=ORIENTED_EDGE('',*,*,#332,.F.);
#219=ORIENTED_EDGE('',*,*,#331,.T.);
#220=ORIENTED_EDGE('',*,*,#334,.F.);
#221=ORIENTED_EDGE('',*,*,#291,.T.);
#222=ORIENTED_EDGE('',*,*,#335,.T.);
#223=ORIENTED_EDGE('',*,*,#336,.F.);
#224=ORIENTED_EDGE('',*,*,#318,.T.);
#225=ORIENTED_EDGE('',*,*,#292,.T.);
#226=ORIENTED_EDGE('',*,*,#334,.T.);
#227=ORIENTED_EDGE('',*,*,#337,.T.);
#228=ORIENTED_EDGE('',*,*,#290,.F.);
#229=ORIENTED_EDGE('',*,*,#320,.F.);
#230=ORIENTED_EDGE('',*,*,#338,.F.);
#231=ORIENTED_EDGE('',*,*,#335,.F.);
#232=ORIENTED_EDGE('',*,*,#338,.T.);
#233=ORIENTED_EDGE('',*,*,#319,.F.);
#234=ORIENTED_EDGE('',*,*,#337,.F.);
#235=ORIENTED_EDGE('',*,*,#336,.T.);
#236=ORIENTED_EDGE('',*,*,#339,.F.);
#237=ORIENTED_EDGE('',*,*,#287,.T.);
#238=ORIENTED_EDGE('',*,*,#340,.T.);
#239=ORIENTED_EDGE('',*,*,#341,.F.);
#240=ORIENTED_EDGE('',*,*,#321,.T.);
#241=ORIENTED_EDGE('',*,*,#288,.T.);
#242=ORIENTED_EDGE('',*,*,#339,.T.);
#243=ORIENTED_EDGE('',*,*,#342,.T.);
#244=ORIENTED_EDGE('',*,*,#286,.F.);
#245=ORIENTED_EDGE('',*,*,#323,.F.);
#246=ORIENTED_EDGE('',*,*,#343,.F.);
#247=ORIENTED_EDGE('',*,*,#340,.F.);
#248=ORIENTED_EDGE('',*,*,#343,.T.);
#249=ORIENTED_EDGE('',*,*,#322,.F.);
#250=ORIENTED_EDGE('',*,*,#342,.F.);
#251=ORIENTED_EDGE('',*,*,#341,.T.);
#252=ORIENTED_EDGE('',*,*,#344,.F.);
#253=ORIENTED_EDGE('',*,*,#283,.T.);
#254=ORIENTED_EDGE('',*,*,#306,.T.);
#255=ORIENTED_EDGE('',*,*,#345,.T.);
#256=ORIENTED_EDGE('',*,*,#346,.F.);
#257=ORIENTED_EDGE('',*,*,#309,.T.);
#258=ORIENTED_EDGE('',*,*,#284,.T.);
#259=ORIENTED_EDGE('',*,*,#344,.T.);
#260=ORIENTED_EDGE('',*,*,#347,.T.);
#261=ORIENTED_EDGE('',*,*,#305,.F.);
#262=ORIENTED_EDGE('',*,*,#311,.F.);
#263=ORIENTED_EDGE('',*,*,#348,.F.);
#264=ORIENTED_EDGE('',*,*,#345,.F.);
#265=ORIENTED_EDGE('',*,*,#348,.T.);
#266=ORIENTED_EDGE('',*,*,#310,.F.);
#267=ORIENTED_EDGE('',*,*,#347,.F.);
#268=ORIENTED_EDGE('',*,*,#346,.T.);
#269=EDGE_CURVE('',#350,#349,#432,.T.);
#270=EDGE_CURVE('',#350,#351,#433,.T.);
#271=EDGE_CURVE('',#351,#352,#434,.T.);
#272=EDGE_CURVE('',#349,#352,#435,.T.);
#273=EDGE_CURVE('',#351,#350,#436,.T.);
#274=EDGE_CURVE('',#352,#349,#437,.T.);
#275=EDGE_CURVE('',#353,#351,#438,.T.);
#276=EDGE_CURVE('',#354,#353,#439,.T.);
#277=EDGE_CURVE('',#354,#350,#440,.T.);
#278=EDGE_CURVE('',#349,#355,#441,.T.);
#279=EDGE_CURVE('',#356,#355,#442,.T.);
#280=EDGE_CURVE('',#352,#356,#443,.T.);
#281=EDGE_CURVE('',#357,#358,#444,.T.);
#282=EDGE_CURVE('',#358,#359,#445,.T.);
#283=EDGE_CURVE('',#360,#359,#446,.T.);
#284=EDGE_CURVE('',#361,#360,#447,.T.);
#285=EDGE_CURVE('',#362,#361,#448,.T.);
#286=EDGE_CURVE('',#362,#363,#449,.T.);
#287=EDGE_CURVE('',#364,#363,#450,.T.);
#288=EDGE_CURVE('',#365,#364,#451,.T.);
#289=EDGE_CURVE('',#366,#365,#452,.T.);
#290=EDGE_CURVE('',#366,#367,#453,.T.);
#291=EDGE_CURVE('',#368,#367,#454,.T.);
#292=EDGE_CURVE('',#369,#368,#455,.T.);
#293=EDGE_CURVE('',#370,#369,#456,.T.);
#294=EDGE_CURVE('',#370,#371,#457,.T.);
#295=EDGE_CURVE('',#372,#371,#458,.T.);
#296=EDGE_CURVE('',#357,#372,#459,.T.);
#297=EDGE_CURVE('',#358,#357,#460,.T.);
#298=EDGE_CURVE('',#373,#372,#461,.T.);
#299=EDGE_CURVE('',#374,#373,#462,.T.);
#300=EDGE_CURVE('',#375,#374,#463,.T.);
#301=EDGE_CURVE('',#375,#376,#464,.T.);
#302=EDGE_CURVE('',#377,#376,#465,.T.);
#303=EDGE_CURVE('',#378,#377,#466,.T.);
#304=EDGE_CURVE('',#379,#378,#467,.T.);
#305=EDGE_CURVE('',#379,#380,#468,.T.);
#306=EDGE_CURVE('',#359,#380,#469,.T.);
#307=EDGE_CURVE('',#353,#354,#470,.T.);
#308=EDGE_CURVE('',#355,#356,#471,.T.);
#309=EDGE_CURVE('',#381,#361,#472,.T.);
#310=EDGE_CURVE('',#381,#382,#473,.T.);
#311=EDGE_CURVE('',#382,#379,#474,.T.);
#312=EDGE_CURVE('',#383,#378,#475,.T.);
#313=EDGE_CURVE('',#383,#384,#476,.T.);
#314=EDGE_CURVE('',#384,#375,#477,.T.);
#315=EDGE_CURVE('',#385,#374,#478,.T.);
#316=EDGE_CURVE('',#385,#386,#479,.T.);
#317=EDGE_CURVE('',#386,#370,#480,.T.);
#318=EDGE_CURVE('',#387,#369,#481,.T.);
#319=EDGE_CURVE('',#387,#388,#482,.T.);
#320=EDGE_CURVE('',#388,#366,#483,.T.);
#321=EDGE_CURVE('',#389,#365,#484,.T.);
#322=EDGE_CURVE('',#389,#390,#485,.T.);
#323=EDGE_CURVE('',#390,#362,#486,.T.);
#324=EDGE_CURVE('',#377,#391,#487,.T.);
#325=EDGE_CURVE('',#376,#392,#488,.T.);
#326=EDGE_CURVE('',#391,#392,#489,.T.);
#327=EDGE_CURVE('',#391,#383,#490,.T.);
#328=EDGE_CURVE('',#392,#384,#491,.T.);
#329=EDGE_CURVE('',#373,#393,#492,.T.);
#330=EDGE_CURVE('',#371,#394,#493,.T.);
#331=EDGE_CURVE('',#393,#394,#494,.T.);
#332=EDGE_CURVE('',#393,#385,#495,.T.);
#333=EDGE_CURVE('',#394,#386,#496,.T.);
#334=EDGE_CURVE('',#368,#395,#497,.T.);
#335=EDGE_CURVE('',#367,#396,#498,.T.);
#336=EDGE_CURVE('',#395,#396,#499,.T.);
#337=EDGE_CURVE('',#395,#387,#500,.T.);
#338=EDGE_CURVE('',#396,#388,#501,.T.);
#339=EDGE_CURVE('',#364,#397,#502,.T.);
#340=EDGE_CURVE('',#363,#398,#503,.T.);
#341=EDGE_CURVE('',#397,#398,#504,.T.);
#342=EDGE_CURVE('',#397,#389,#505,.T.);
#343=EDGE_CURVE('',#398,#390,#506,.T.);
#344=EDGE_CURVE('',#360,#399,#507,.T.);
#345=EDGE_CURVE('',#380,#400,#508,.T.);
#346=EDGE_CURVE('',#399,#400,#509,.T.);
#347=EDGE_CURVE('',#399,#381,#510,.T.);
#348=EDGE_CURVE('',#400,#382,#511,.T.);
#349=VERTEX_POINT('',#1153);
#350=VERTEX_POINT('',#1154);
#351=VERTEX_POINT('',#1155);
#352=VERTEX_POINT('',#1156);
#353=VERTEX_POINT('',#1157);
#354=VERTEX_POINT('',#1158);
#355=VERTEX_POINT('',#1159);
#356=VERTEX_POINT('',#1160);
#357=VERTEX_POINT('',#1161);
#358=VERTEX_POINT('',#1162);
#359=VERTEX_POINT('',#1163);
#360=VERTEX_POINT('',#1164);
#361=VERTEX_POINT('',#1165);
#362=VERTEX_POINT('',#1166);
#363=VERTEX_POINT('',#1167);
#364=VERTEX_POINT('',#1168);
#365=VERTEX_POINT('',#1169);
#366=VERTEX_POINT('',#1170);
#367=VERTEX_POINT('',#1171);
#368=VERTEX_POINT('',#1172);
#369=VERTEX_POINT('',#1173);
#370=VERTEX_POINT('',#1174);
#371=VERTEX_POINT('',#1175);
#372=VERTEX_POINT('',#1176);
#373=VERTEX_POINT('',#1177);
#374=VERTEX_POINT('',#1178);
#375=VERTEX_POINT('',#1179);
#376=VERTEX_POINT('',#1180);
#377=VERTEX_POINT('',#1181);
#378=VERTEX_POINT('',#1182);
#379=VERTEX_POINT('',#1183);
#380=VERTEX_POINT('',#1184);
#381=VERTEX_POINT('',#1185);
#382=VERTEX_POINT('',#1186);
#383=VERTEX_POINT('',#1187);
#384=VERTEX_POINT('',#1188);
#385=VERTEX_POINT('',#1189);
#386=VERTEX_POINT('',#1190);
#387=VERTEX_POINT('',#1191);
#388=VERTEX_POINT('',#1192);
#389=VERTEX_POINT('',#1193);
#390=VERTEX_POINT('',#1194);
#391=VERTEX_POINT('',#1195);
#392=VERTEX_POINT('',#1196);
#393=VERTEX_POINT('',#1197);
#394=VERTEX_POINT('',#1198);
#395=VERTEX_POINT('',#1199);
#396=VERTEX_POINT('',#1200);
#397=VERTEX_POINT('',#1201);
#398=VERTEX_POINT('',#1202);
#399=VERTEX_POINT('',#1203);
#400=VERTEX_POINT('',#1204);
#401=(
BOUNDED_SURFACE()
B_SPLINE_SURFACE(3,3,((#965,#966,#967,#968),(#969,#970,#971,#972),(#973,
#974,#975,#976),(#977,#978,#979,#980)),.UNSPECIFIED.,.F.,.F.,.F.)
B_SPLINE_SURFACE_WITH_KNOTS((4,4),(4,4),(0.,1.),(0.,1.),.UNSPECIFIED.)
GEOMETRIC_REPRESENTATION_ITEM()
RATIONAL_B_SPLINE_SURFACE(((1.,0.333333333333333,0.333333333333333,1.),(0.949253021674191,
0.316417673891397,0.316417673891397,0.949253021674191),(0.949253021674191,
0.316417673891397,0.316417673891397,0.949253021674191),(1.,0.333333333333333,
0.333333333333333,1.)))
REPRESENTATION_ITEM('')
SURFACE()
);
#402=(
BOUNDED_SURFACE()
B_SPLINE_SURFACE(3,3,((#981,#982,#983,#984),(#985,#986,#987,#988),(#989,
#990,#991,#992),(#993,#994,#995,#996)),.UNSPECIFIED.,.F.,.F.,.F.)
B_SPLINE_SURFACE_WITH_KNOTS((4,4),(4,4),(0.,1.),(0.,1.),.UNSPECIFIED.)
GEOMETRIC_REPRESENTATION_ITEM()
RATIONAL_B_SPLINE_SURFACE(((1.,0.333333333333333,0.333333333333333,1.),(0.949253021674191,
0.316417673891397,0.316417673891397,0.949253021674191),(0.949253021674191,
0.316417673891397,0.316417673891397,0.949253021674191),(1.,0.333333333333333,
0.333333333333333,1.)))
REPRESENTATION_ITEM('')
SURFACE()
);
#403=(
BOUNDED_SURFACE()
B_SPLINE_SURFACE(3,3,((#997,#998,#999,#1000),(#1001,#1002,#1003,#1004),(#1005,
#1006,#1007,#1008),(#1009,#1010,#1011,#1012)),.UNSPECIFIED.,.F.,.F.,.F.)
B_SPLINE_SURFACE_WITH_KNOTS((4,4),(4,4),(0.,1.),(0.,1.),.UNSPECIFIED.)
GEOMETRIC_REPRESENTATION_ITEM()
RATIONAL_B_SPLINE_SURFACE(((1.,0.333333333333333,0.333333333333333,1.),(0.949253021674191,
0.316417673891397,0.316417673891397,0.949253021674191),(0.949253021674191,
0.316417673891397,0.316417673891397,0.949253021674191),(1.,0.333333333333333,
0.333333333333333,1.)))
REPRESENTATION_ITEM('')
SURFACE()
);
#404=(
BOUNDED_SURFACE()
B_SPLINE_SURFACE(3,1,((#1013,#1014),(#1015,#1016),(#1017,#1018),(#1019,#1020)),
.UNSPECIFIED.,.F.,.F.,.F.)
B_SPLINE_SURFACE_WITH_KNOTS((4,4),(2,2),(0.,1.),(0.,1.),.UNSPECIFIED.)
GEOMETRIC_REPRESENTATION_ITEM()
RATIONAL_B_SPLINE_SURFACE(((1.,1.),(0.333333333333333,0.333333333333333),
(0.333333333333333,0.333333333333333),(1.,1.)))
REPRESENTATION_ITEM('')
SURFACE()
);
#405=(
BOUNDED_SURFACE()
B_SPLINE_SURFACE(3,1,((#1021,#1022),(#1023,#1024),(#1025,#1026),(#1027,#1028)),
.UNSPECIFIED.,.F.,.F.,.F.)
B_SPLINE_SURFACE_WITH_KNOTS((4,4),(2,2),(0.,1.),(0.,1.),.UNSPECIFIED.)
GEOMETRIC_REPRESENTATION_ITEM()
RATIONAL_B_SPLINE_SURFACE(((1.,1.),(0.333333333333333,0.333333333333333),
(0.333333333333333,0.333333333333333),(1.,1.)))
REPRESENTATION_ITEM('')
SURFACE()
);
#406=(
BOUNDED_SURFACE()
B_SPLINE_SURFACE(3,1,((#1029,#1030),(#1031,#1032),(#1033,#1034),(#1035,#1036)),
.UNSPECIFIED.,.F.,.F.,.F.)
B_SPLINE_SURFACE_WITH_KNOTS((4,4),(2,2),(0.,1.),(0.,1.),.UNSPECIFIED.)
GEOMETRIC_REPRESENTATION_ITEM()
RATIONAL_B_SPLINE_SURFACE(((1.,1.),(0.333333333333333,0.333333333333333),
(0.333333333333333,0.333333333333333),(1.,1.)))
REPRESENTATION_ITEM('')
SURFACE()
);
#407=(
BOUNDED_SURFACE()
B_SPLINE_SURFACE(1,1,((#1037,#1038),(#1039,#1040)),.UNSPECIFIED.,.F.,.F.,
.F.)
B_SPLINE_SURFACE_WITH_KNOTS((2,2),(2,2),(0.33201581027668,0.66798418972332),
(0.33201581027668,0.66798418972332),.UNSPECIFIED.)
GEOMETRIC_REPRESENTATION_ITEM()
RATIONAL_B_SPLINE_SURFACE(((1.,1.),(1.,1.)))
REPRESENTATION_ITEM('')
SURFACE()
);
#408=(
BOUNDED_SURFACE()
B_SPLINE_SURFACE(3,1,((#1041,#1042),(#1043,#1044),(#1045,#1046),(#1047,#1048)),
.UNSPECIFIED.,.F.,.F.,.F.)
B_SPLINE_SURFACE_WITH_KNOTS((4,4),(2,2),(0.,1.),(0.,1.),.UNSPECIFIED.)
GEOMETRIC_REPRESENTATION_ITEM()
RATIONAL_B_SPLINE_SURFACE(((1.,1.),(0.333333333333333,0.333333333333333),
(0.333333333333333,0.333333333333333),(1.,1.)))
REPRESENTATION_ITEM('')
SURFACE()
);
#409=(
BOUNDED_SURFACE()
B_SPLINE_SURFACE(1,1,((#1049,#1050),(#1051,#1052)),.UNSPECIFIED.,.F.,.F.,
.F.)
B_SPLINE_SURFACE_WITH_KNOTS((2,2),(2,2),(0.33201581027668,0.66798418972332),
(0.33201581027668,0.66798418972332),.UNSPECIFIED.)
GEOMETRIC_REPRESENTATION_ITEM()
RATIONAL_B_SPLINE_SURFACE(((1.,1.),(1.,1.)))
REPRESENTATION_ITEM('')
SURFACE()
);
#410=(
BOUNDED_SURFACE()
B_SPLINE_SURFACE(1,1,((#1053,#1054),(#1055,#1056)),.UNSPECIFIED.,.F.,.F.,
.F.)
B_SPLINE_SURFACE_WITH_KNOTS((2,2),(2,2),(0.333333333333333,0.667992047713718),
(0.33201581027668,0.66798418972332),.UNSPECIFIED.)
GEOMETRIC_REPRESENTATION_ITEM()
RATIONAL_B_SPLINE_SURFACE(((1.,1.),(1.,1.)))
REPRESENTATION_ITEM('')
SURFACE()
);
#411=(
BOUNDED_SURFACE()
B_SPLINE_SURFACE(3,3,((#1057,#1058,#1059,#1060),(#1061,#1062,#1063,#1064),
(#1065,#1066,#1067,#1068),(#1069,#1070,#1071,#1072)),.UNSPECIFIED.,.F.,.F.,
.F.)
B_SPLINE_SURFACE_WITH_KNOTS((4,4),(4,4),(0.,1.),(0.,1.),.UNSPECIFIED.)
GEOMETRIC_REPRESENTATION_ITEM()
RATIONAL_B_SPLINE_SURFACE(((1.,0.333333333333333,0.333333333333333,1.),(0.949253021674191,
0.316417673891397,0.316417673891397,0.949253021674191),(0.949253021674191,
0.316417673891397,0.316417673891397,0.949253021674191),(1.,0.333333333333333,
0.333333333333333,1.)))
REPRESENTATION_ITEM('')
SURFACE()
);
#412=(
BOUNDED_SURFACE()
B_SPLINE_SURFACE(1,1,((#1073,#1074),(#1075,#1076)),.UNSPECIFIED.,.F.,.F.,
.F.)
B_SPLINE_SURFACE_WITH_KNOTS((2,2),(2,2),(0.333333333333333,0.666666666666667),
(0.333333333333333,0.66467859509609),.UNSPECIFIED.)
GEOMETRIC_REPRESENTATION_ITEM()
RATIONAL_B_SPLINE_SURFACE(((1.,1.),(1.,1.)))
REPRESENTATION_ITEM('')
SURFACE()
);
#413=(
BOUNDED_SURFACE()
B_SPLINE_SURFACE(1,1,((#1077,#1078),(#1079,#1080)),.UNSPECIFIED.,.F.,.F.,
.F.)
B_SPLINE_SURFACE_WITH_KNOTS((2,2),(2,2),(0.333333333333333,0.66467859509609),
(0.333333333333333,0.666666666666667),.UNSPECIFIED.)
GEOMETRIC_REPRESENTATION_ITEM()
RATIONAL_B_SPLINE_SURFACE(((1.,1.),(1.,1.)))
REPRESENTATION_ITEM('')
SURFACE()
);
#414=(
BOUNDED_SURFACE()
B_SPLINE_SURFACE(1,1,((#1081,#1082),(#1083,#1084)),.UNSPECIFIED.,.F.,.F.,
.F.)
B_SPLINE_SURFACE_WITH_KNOTS((2,2),(2,2),(0.333333333333333,0.666666666666667),
(0.333333333333333,0.66467859509609),.UNSPECIFIED.)
GEOMETRIC_REPRESENTATION_ITEM()
RATIONAL_B_SPLINE_SURFACE(((1.,1.),(1.,1.)))
REPRESENTATION_ITEM('')
SURFACE()
);
#415=(
BOUNDED_SURFACE()
B_SPLINE_SURFACE(1,1,((#1085,#1086),(#1087,#1088)),.UNSPECIFIED.,.F.,.F.,
.F.)
B_SPLINE_SURFACE_WITH_KNOTS((2,2),(2,2),(0.333333333333333,0.666666666666667),
(0.333333333333333,0.666666666666667),.UNSPECIFIED.)
GEOMETRIC_REPRESENTATION_ITEM()
RATIONAL_B_SPLINE_SURFACE(((1.,1.),(1.,1.)))
REPRESENTATION_ITEM('')
SURFACE()
);
#416=(
BOUNDED_SURFACE()
B_SPLINE_SURFACE(1,1,((#1089,#1090),(#1091,#1092)),.UNSPECIFIED.,.F.,.F.,
.F.)
B_SPLINE_SURFACE_WITH_KNOTS((2,2),(2,2),(0.33201581027668,0.66798418972332),
(0.33201581027668,0.66798418972332),.UNSPECIFIED.)
GEOMETRIC_REPRESENTATION_ITEM()
RATIONAL_B_SPLINE_SURFACE(((1.,1.),(1.,1.)))
REPRESENTATION_ITEM('')
SURFACE()
);
#417=(
BOUNDED_SURFACE()
B_SPLINE_SURFACE(1,1,((#1093,#1094),(#1095,#1096)),.UNSPECIFIED.,.F.,.F.,
.F.)
B_SPLINE_SURFACE_WITH_KNOTS((2,2),(2,2),(0.333333333333333,0.66467859509609),
(0.333333333333333,0.666666666666667),.UNSPECIFIED.)
GEOMETRIC_REPRESENTATION_ITEM()
RATIONAL_B_SPLINE_SURFACE(((1.,1.),(1.,1.)))
REPRESENTATION_ITEM('')
SURFACE()
);
#418=(
BOUNDED_SURFACE()
B_SPLINE_SURFACE(1,1,((#1097,#1098),(#1099,#1100)),.UNSPECIFIED.,.F.,.F.,
.F.)
B_SPLINE_SURFACE_WITH_KNOTS((2,2),(2,2),(0.333333333333333,0.666666666666667),
(0.333333333333333,0.66467859509609),.UNSPECIFIED.)
GEOMETRIC_REPRESENTATION_ITEM()
RATIONAL_B_SPLINE_SURFACE(((1.,1.),(1.,1.)))
REPRESENTATION_ITEM('')
SURFACE()
);
#419=(
BOUNDED_SURFACE()
B_SPLINE_SURFACE(1,1,((#1101,#1102),(#1103,#1104)),.UNSPECIFIED.,.F.,.F.,
.F.)
B_SPLINE_SURFACE_WITH_KNOTS((2,2),(2,2),(0.333333333333333,0.666666666666667),
(0.333333333333333,0.666666666666666),.UNSPECIFIED.)
GEOMETRIC_REPRESENTATION_ITEM()
RATIONAL_B_SPLINE_SURFACE(((1.,1.),(1.,1.)))
REPRESENTATION_ITEM('')
SURFACE()
);
#420=(
BOUNDED_SURFACE()
B_SPLINE_SURFACE(1,1,((#1105,#1106),(#1107,#1108)),.UNSPECIFIED.,.F.,.F.,
.F.)
B_SPLINE_SURFACE_WITH_KNOTS((2,2),(2,2),(0.33201581027668,0.66798418972332),
(0.33201581027668,0.66798418972332),.UNSPECIFIED.)
GEOMETRIC_REPRESENTATION_ITEM()
RATIONAL_B_SPLINE_SURFACE(((1.,1.),(1.,1.)))
REPRESENTATION_ITEM('')
SURFACE()
);
#421=(
BOUNDED_SURFACE()
B_SPLINE_SURFACE(1,1,((#1109,#1110),(#1111,#1112)),.UNSPECIFIED.,.F.,.F.,
.F.)
B_SPLINE_SURFACE_WITH_KNOTS((2,2),(2,2),(0.333333333333333,0.66467859509609),
(0.333333333333333,0.666666666666667),.UNSPECIFIED.)
GEOMETRIC_REPRESENTATION_ITEM()
RATIONAL_B_SPLINE_SURFACE(((1.,1.),(1.,1.)))
REPRESENTATION_ITEM('')
SURFACE()
);
#422=(
BOUNDED_SURFACE()
B_SPLINE_SURFACE(1,1,((#1113,#1114),(#1115,#1116)),.UNSPECIFIED.,.F.,.F.,
.F.)
B_SPLINE_SURFACE_WITH_KNOTS((2,2),(2,2),(0.333333333333333,0.666666666666667),
(0.333333333333333,0.66467859509609),.UNSPECIFIED.)
GEOMETRIC_REPRESENTATION_ITEM()
RATIONAL_B_SPLINE_SURFACE(((1.,1.),(1.,1.)))
REPRESENTATION_ITEM('')
SURFACE()
);
#423=(
BOUNDED_SURFACE()
B_SPLINE_SURFACE(1,1,((#1117,#1118),(#1119,#1120)),.UNSPECIFIED.,.F.,.F.,
.F.)
B_SPLINE_SURFACE_WITH_KNOTS((2,2),(2,2),(0.333333333333333,0.666666666666667),
(0.333333333333333,0.666666666666667),.UNSPECIFIED.)
GEOMETRIC_REPRESENTATION_ITEM()
RATIONAL_B_SPLINE_SURFACE(((1.,1.),(1.,1.)))
REPRESENTATION_ITEM('')
SURFACE()
);
#424=(
BOUNDED_SURFACE()
B_SPLINE_SURFACE(1,1,((#1121,#1122),(#1123,#1124)),.UNSPECIFIED.,.F.,.F.,
.F.)
B_SPLINE_SURFACE_WITH_KNOTS((2,2),(2,2),(0.33201581027668,0.66798418972332),
(0.33201581027668,0.66798418972332),.UNSPECIFIED.)
GEOMETRIC_REPRESENTATION_ITEM()
RATIONAL_B_SPLINE_SURFACE(((1.,1.),(1.,1.)))
REPRESENTATION_ITEM('')
SURFACE()
);
#425=(
BOUNDED_SURFACE()
B_SPLINE_SURFACE(1,1,((#1125,#1126),(#1127,#1128)),.UNSPECIFIED.,.F.,.F.,
.F.)
B_SPLINE_SURFACE_WITH_KNOTS((2,2),(2,2),(0.333333333333333,0.66467859509609),
(0.333333333333333,0.666666666666667),.UNSPECIFIED.)
GEOMETRIC_REPRESENTATION_ITEM()
RATIONAL_B_SPLINE_SURFACE(((1.,1.),(1.,1.)))
REPRESENTATION_ITEM('')
SURFACE()
);
#426=(
BOUNDED_SURFACE()
B_SPLINE_SURFACE(1,1,((#1129,#1130),(#1131,#1132)),.UNSPECIFIED.,.F.,.F.,
.F.)
B_SPLINE_SURFACE_WITH_KNOTS((2,2),(2,2),(0.333333333333333,0.666666666666667),
(0.333333333333333,0.66467859509609),.UNSPECIFIED.)
GEOMETRIC_REPRESENTATION_ITEM()
RATIONAL_B_SPLINE_SURFACE(((1.,1.),(1.,1.)))
REPRESENTATION_ITEM('')
SURFACE()
);
#427=(
BOUNDED_SURFACE()
B_SPLINE_SURFACE(1,1,((#1133,#1134),(#1135,#1136)),.UNSPECIFIED.,.F.,.F.,
.F.)
B_SPLINE_SURFACE_WITH_KNOTS((2,2),(2,2),(0.333333333333333,0.666666666666666),
(0.333333333333333,0.666666666666667),.UNSPECIFIED.)
GEOMETRIC_REPRESENTATION_ITEM()
RATIONAL_B_SPLINE_SURFACE(((1.,1.),(1.,1.)))
REPRESENTATION_ITEM('')
SURFACE()
);
#428=(
BOUNDED_SURFACE()
B_SPLINE_SURFACE(1,1,((#1137,#1138),(#1139,#1140)),.UNSPECIFIED.,.F.,.F.,
.F.)
B_SPLINE_SURFACE_WITH_KNOTS((2,2),(2,2),(0.33201581027668,0.66798418972332),
(0.33201581027668,0.66798418972332),.UNSPECIFIED.)
GEOMETRIC_REPRESENTATION_ITEM()
RATIONAL_B_SPLINE_SURFACE(((1.,1.),(1.,1.)))
REPRESENTATION_ITEM('')
SURFACE()
);
#429=(
BOUNDED_SURFACE()
B_SPLINE_SURFACE(1,1,((#1141,#1142),(#1143,#1144)),.UNSPECIFIED.,.F.,.F.,
.F.)
B_SPLINE_SURFACE_WITH_KNOTS((2,2),(2,2),(0.333333333333333,0.66467859509609),
(0.333333333333333,0.666666666666667),.UNSPECIFIED.)
GEOMETRIC_REPRESENTATION_ITEM()
RATIONAL_B_SPLINE_SURFACE(((1.,1.),(1.,1.)))
REPRESENTATION_ITEM('')
SURFACE()
);
#430=(
BOUNDED_SURFACE()
B_SPLINE_SURFACE(1,1,((#1145,#1146),(#1147,#1148)),.UNSPECIFIED.,.F.,.F.,
.F.)
B_SPLINE_SURFACE_WITH_KNOTS((2,2),(2,2),(0.333333333333333,0.666666666666667),
(0.333333333333333,0.66467859509609),.UNSPECIFIED.)
GEOMETRIC_REPRESENTATION_ITEM()
RATIONAL_B_SPLINE_SURFACE(((1.,1.),(1.,1.)))
REPRESENTATION_ITEM('')
SURFACE()
);
#431=(
BOUNDED_SURFACE()
B_SPLINE_SURFACE(1,1,((#1149,#1150),(#1151,#1152)),.UNSPECIFIED.,.F.,.F.,
.F.)
B_SPLINE_SURFACE_WITH_KNOTS((2,2),(2,2),(0.333333333333333,0.666666666666667),
(0.333333333333333,0.666666666666667),.UNSPECIFIED.)
GEOMETRIC_REPRESENTATION_ITEM()
RATIONAL_B_SPLINE_SURFACE(((1.,1.),(1.,1.)))
REPRESENTATION_ITEM('')
SURFACE()
);
#432=B_SPLINE_CURVE_WITH_KNOTS('',3,(#603,#604,#605,#606,#607,#608),.UNSPECIFIED.,
.F.,.F.,(4,2,4),(0.,0.5,1.),.UNSPECIFIED.);
#433=B_SPLINE_CURVE_WITH_KNOTS('',3,(#609,#610,#611,#612,#613,#614,#615,
#616,#617,#618,#619,#620,#621,#622,#623,#624,#625,#626),.UNSPECIFIED.,.F.,
.F.,(4,2,2,2,2,2,2,2,4),(0.,0.125,0.25,0.375,0.5,0.625,0.75,0.875,1.),.UNSPECIFIED.);
#434=B_SPLINE_CURVE_WITH_KNOTS('',3,(#627,#628,#629,#630,#631,#632),.UNSPECIFIED.,
.F.,.F.,(4,2,4),(0.,0.5,1.),.UNSPECIFIED.);
#435=B_SPLINE_CURVE_WITH_KNOTS('',3,(#633,#634,#635,#636,#637,#638,#639,
#640,#641,#642,#643,#644,#645,#646,#647,#648,#649,#650),.UNSPECIFIED.,.F.,
.F.,(4,2,2,2,2,2,2,2,4),(0.,0.125,0.25,0.375,0.5,0.625,0.75,0.875,1.),.UNSPECIFIED.);
#436=B_SPLINE_CURVE_WITH_KNOTS('',3,(#651,#652,#653,#654,#655,#656,#657,
#658,#659,#660,#661,#662,#663,#664,#665,#666,#667,#668),.UNSPECIFIED.,.F.,
.F.,(4,2,2,2,2,2,2,2,4),(0.,0.125,0.25,0.375,0.5,0.625,0.75,0.875,1.),.UNSPECIFIED.);
#437=B_SPLINE_CURVE_WITH_KNOTS('',3,(#669,#670,#671,#672,#673,#674,#675,
#676,#677,#678,#679,#680,#681,#682,#683,#684,#685,#686),.UNSPECIFIED.,.F.,
.F.,(4,2,2,2,2,2,2,2,4),(0.,0.125,0.25,0.375,0.5,0.625,0.75,0.875,1.),.UNSPECIFIED.);
#438=B_SPLINE_CURVE_WITH_KNOTS('',3,(#687,#688,#689,#690,#691,#692),.UNSPECIFIED.,
.F.,.F.,(4,2,4),(0.,0.5,1.),.UNSPECIFIED.);
#439=B_SPLINE_CURVE_WITH_KNOTS('',3,(#693,#694,#695,#696,#697,#698,#699,
#700,#701,#702,#703,#704,#705,#706,#707,#708,#709,#710),.UNSPECIFIED.,.F.,
.F.,(4,2,2,2,2,2,2,2,4),(0.,0.125,0.25,0.375,0.5,0.625,0.75,0.875,1.),.UNSPECIFIED.);
#440=B_SPLINE_CURVE_WITH_KNOTS('',3,(#711,#712,#713,#714,#715,#716),.UNSPECIFIED.,
.F.,.F.,(4,2,4),(0.,0.5,1.),.UNSPECIFIED.);
#441=B_SPLINE_CURVE_WITH_KNOTS('',1,(#717,#718),.UNSPECIFIED.,.F.,.F.,(2,
2),(0.,1.),.UNSPECIFIED.);
#442=B_SPLINE_CURVE_WITH_KNOTS('',3,(#719,#720,#721,#722,#723,#724,#725,
#726,#727,#728,#729,#730,#731,#732,#733,#734,#735,#736),.UNSPECIFIED.,.F.,
.F.,(4,2,2,2,2,2,2,2,4),(0.,0.125,0.25,0.375,0.5,0.625,0.75,0.875,1.),.UNSPECIFIED.);
#443=B_SPLINE_CURVE_WITH_KNOTS('',1,(#737,#738),.UNSPECIFIED.,.F.,.F.,(2,
2),(0.,1.),.UNSPECIFIED.);
#444=B_SPLINE_CURVE_WITH_KNOTS('',3,(#739,#740,#741,#742,#743,#744,#745,
#746,#747,#748,#749,#750,#751,#752),.UNSPECIFIED.,.F.,.F.,(4,2,2,2,2,2,4),
(0.,0.166666666666667,0.333333333333333,0.5,0.666666666666667,0.833333333333333,
1.),.UNSPECIFIED.);
#445=B_SPLINE_CURVE_WITH_KNOTS('',1,(#753,#754),.UNSPECIFIED.,.F.,.F.,(2,
2),(0.,1.),.UNSPECIFIED.);
#446=B_SPLINE_CURVE_WITH_KNOTS('',3,(#755,#756,#757,#758),.UNSPECIFIED.,
.F.,.F.,(4,4),(0.,1.),.UNSPECIFIED.);
#447=B_SPLINE_CURVE_WITH_KNOTS('',1,(#759,#760),.UNSPECIFIED.,.F.,.F.,(2,
2),(0.,1.),.UNSPECIFIED.);
#448=B_SPLINE_CURVE_WITH_KNOTS('',3,(#761,#762,#763,#764),.UNSPECIFIED.,
.F.,.F.,(4,4),(0.,1.),.UNSPECIFIED.);
#449=B_SPLINE_CURVE_WITH_KNOTS('',1,(#765,#766),.UNSPECIFIED.,.F.,.F.,(2,
2),(0.,1.),.UNSPECIFIED.);
#450=B_SPLINE_CURVE_WITH_KNOTS('',3,(#767,#768,#769,#770,#771,#772),.UNSPECIFIED.,
.F.,.F.,(4,2,4),(0.,0.5,1.),.UNSPECIFIED.);
#451=B_SPLINE_CURVE_WITH_KNOTS('',1,(#773,#774),.UNSPECIFIED.,.F.,.F.,(2,
2),(0.,1.),.UNSPECIFIED.);
#452=B_SPLINE_CURVE_WITH_KNOTS('',3,(#775,#776,#777,#778),.UNSPECIFIED.,
.F.,.F.,(4,4),(0.,1.),.UNSPECIFIED.);
#453=B_SPLINE_CURVE_WITH_KNOTS('',1,(#779,#780),.UNSPECIFIED.,.F.,.F.,(2,
2),(0.,1.),.UNSPECIFIED.);
#454=B_SPLINE_CURVE_WITH_KNOTS('',3,(#781,#782,#783,#784,#785,#786),.UNSPECIFIED.,
.F.,.F.,(4,2,4),(0.,0.500000000000001,1.),.UNSPECIFIED.);
#455=B_SPLINE_CURVE_WITH_KNOTS('',1,(#787,#788),.UNSPECIFIED.,.F.,.F.,(2,
2),(0.,1.),.UNSPECIFIED.);
#456=B_SPLINE_CURVE_WITH_KNOTS('',3,(#789,#790,#791,#792),.UNSPECIFIED.,
.F.,.F.,(4,4),(0.,1.),.UNSPECIFIED.);
#457=B_SPLINE_CURVE_WITH_KNOTS('',1,(#793,#794),.UNSPECIFIED.,.F.,.F.,(2,
2),(0.,1.),.UNSPECIFIED.);
#458=B_SPLINE_CURVE_WITH_KNOTS('',3,(#795,#796,#797,#798),.UNSPECIFIED.,
.F.,.F.,(4,4),(0.,1.),.UNSPECIFIED.);
#459=B_SPLINE_CURVE_WITH_KNOTS('',1,(#799,#800),.UNSPECIFIED.,.F.,.F.,(2,
2),(0.,1.),.UNSPECIFIED.);
#460=B_SPLINE_CURVE_WITH_KNOTS('',3,(#801,#802,#803,#804,#805,#806,#807,
#808,#809,#810,#811,#812,#813,#814),.UNSPECIFIED.,.F.,.F.,(4,2,2,2,2,2,4),
(0.,0.166666666666667,0.333333333333333,0.5,0.666666666666667,0.833333333333334,
1.),.UNSPECIFIED.);
#461=B_SPLINE_CURVE_WITH_KNOTS('',3,(#815,#816,#817,#818,#819,#820),.UNSPECIFIED.,
.F.,.F.,(4,2,4),(0.,0.500000000000001,1.),.UNSPECIFIED.);
#462=B_SPLINE_CURVE_WITH_KNOTS('',1,(#821,#822),.UNSPECIFIED.,.F.,.F.,(2,
2),(0.,1.),.UNSPECIFIED.);
#463=B_SPLINE_CURVE_WITH_KNOTS('',3,(#823,#824,#825,#826),.UNSPECIFIED.,
.F.,.F.,(4,4),(0.,1.),.UNSPECIFIED.);
#464=B_SPLINE_CURVE_WITH_KNOTS('',1,(#827,#828),.UNSPECIFIED.,.F.,.F.,(2,
2),(0.,1.),.UNSPECIFIED.);
#465=B_SPLINE_CURVE_WITH_KNOTS('',3,(#829,#830,#831,#832,#833,#834),.UNSPECIFIED.,
.F.,.F.,(4,2,4),(0.,0.5,1.),.UNSPECIFIED.);
#466=B_SPLINE_CURVE_WITH_KNOTS('',1,(#835,#836),.UNSPECIFIED.,.F.,.F.,(2,
2),(0.,1.),.UNSPECIFIED.);
#467=B_SPLINE_CURVE_WITH_KNOTS('',3,(#837,#838,#839,#840),.UNSPECIFIED.,
.F.,.F.,(4,4),(0.,1.),.UNSPECIFIED.);
#468=B_SPLINE_CURVE_WITH_KNOTS('',1,(#841,#842),.UNSPECIFIED.,.F.,.F.,(2,
2),(0.,1.),.UNSPECIFIED.);
#469=B_SPLINE_CURVE_WITH_KNOTS('',3,(#843,#844,#845,#846,#847,#848),.UNSPECIFIED.,
.F.,.F.,(4,2,4),(0.,0.499999999999999,1.),.UNSPECIFIED.);
#470=B_SPLINE_CURVE_WITH_KNOTS('',3,(#849,#850,#851,#852,#853,#854,#855,
#856,#857,#858,#859,#860,#861,#862,#863,#864,#865,#866),.UNSPECIFIED.,.F.,
.F.,(4,2,2,2,2,2,2,2,4),(0.,0.125,0.25,0.375,0.5,0.625,0.75,0.875,1.),.UNSPECIFIED.);
#471=B_SPLINE_CURVE_WITH_KNOTS('',3,(#867,#868,#869,#870,#871,#872,#873,
#874,#875,#876,#877,#878,#879,#880,#881,#882,#883,#884),.UNSPECIFIED.,.F.,
.F.,(4,2,2,2,2,2,2,2,4),(0.,0.125,0.25,0.375,0.5,0.625,0.75,0.875,1.),.UNSPECIFIED.);
#472=B_SPLINE_CURVE_WITH_KNOTS('',1,(#885,#886),.UNSPECIFIED.,.F.,.F.,(2,
2),(0.,1.),.UNSPECIFIED.);
#473=B_SPLINE_CURVE_WITH_KNOTS('',1,(#887,#888),.UNSPECIFIED.,.F.,.F.,(2,
2),(0.,1.),.UNSPECIFIED.);
#474=B_SPLINE_CURVE_WITH_KNOTS('',1,(#889,#890),.UNSPECIFIED.,.F.,.F.,(2,
2),(0.,1.),.UNSPECIFIED.);
#475=B_SPLINE_CURVE_WITH_KNOTS('',1,(#891,#892),.UNSPECIFIED.,.F.,.F.,(2,
2),(0.,1.),.UNSPECIFIED.);
#476=B_SPLINE_CURVE_WITH_KNOTS('',1,(#893,#894),.UNSPECIFIED.,.F.,.F.,(2,
2),(0.,1.),.UNSPECIFIED.);
#477=B_SPLINE_CURVE_WITH_KNOTS('',1,(#895,#896),.UNSPECIFIED.,.F.,.F.,(2,
2),(0.,1.),.UNSPECIFIED.);
#478=B_SPLINE_CURVE_WITH_KNOTS('',1,(#897,#898),.UNSPECIFIED.,.F.,.F.,(2,
2),(0.,1.),.UNSPECIFIED.);
#479=B_SPLINE_CURVE_WITH_KNOTS('',1,(#899,#900),.UNSPECIFIED.,.F.,.F.,(2,
2),(0.,1.),.UNSPECIFIED.);
#480=B_SPLINE_CURVE_WITH_KNOTS('',1,(#901,#902),.UNSPECIFIED.,.F.,.F.,(2,
2),(0.,1.),.UNSPECIFIED.);
#481=B_SPLINE_CURVE_WITH_KNOTS('',1,(#903,#904),.UNSPECIFIED.,.F.,.F.,(2,
2),(0.,1.),.UNSPECIFIED.);
#482=B_SPLINE_CURVE_WITH_KNOTS('',1,(#905,#906),.UNSPECIFIED.,.F.,.F.,(2,
2),(0.,1.),.UNSPECIFIED.);
#483=B_SPLINE_CURVE_WITH_KNOTS('',1,(#907,#908),.UNSPECIFIED.,.F.,.F.,(2,
2),(0.,1.),.UNSPECIFIED.);
#484=B_SPLINE_CURVE_WITH_KNOTS('',1,(#909,#910),.UNSPECIFIED.,.F.,.F.,(2,
2),(0.,1.),.UNSPECIFIED.);
#485=B_SPLINE_CURVE_WITH_KNOTS('',1,(#911,#912),.UNSPECIFIED.,.F.,.F.,(2,
2),(0.,1.),.UNSPECIFIED.);
#486=B_SPLINE_CURVE_WITH_KNOTS('',1,(#913,#914),.UNSPECIFIED.,.F.,.F.,(2,
2),(0.,1.),.UNSPECIFIED.);
#487=B_SPLINE_CURVE_WITH_KNOTS('',1,(#915,#916),.UNSPECIFIED.,.F.,.F.,(2,
2),(0.,1.),.UNSPECIFIED.);
#488=B_SPLINE_CURVE_WITH_KNOTS('',1,(#917,#918),.UNSPECIFIED.,.F.,.F.,(2,
2),(0.,1.),.UNSPECIFIED.);
#489=B_SPLINE_CURVE_WITH_KNOTS('',1,(#919,#920),.UNSPECIFIED.,.F.,.F.,(2,
2),(0.,1.),.UNSPECIFIED.);
#490=B_SPLINE_CURVE_WITH_KNOTS('',1,(#921,#922),.UNSPECIFIED.,.F.,.F.,(2,
2),(0.,1.),.UNSPECIFIED.);
#491=B_SPLINE_CURVE_WITH_KNOTS('',1,(#923,#924),.UNSPECIFIED.,.F.,.F.,(2,
2),(0.,1.),.UNSPECIFIED.);
#492=B_SPLINE_CURVE_WITH_KNOTS('',1,(#925,#926),.UNSPECIFIED.,.F.,.F.,(2,
2),(0.,1.),.UNSPECIFIED.);
#493=B_SPLINE_CURVE_WITH_KNOTS('',1,(#927,#928),.UNSPECIFIED.,.F.,.F.,(2,
2),(0.,1.),.UNSPECIFIED.);
#494=B_SPLINE_CURVE_WITH_KNOTS('',1,(#929,#930),.UNSPECIFIED.,.F.,.F.,(2,
2),(0.,1.),.UNSPECIFIED.);
#495=B_SPLINE_CURVE_WITH_KNOTS('',1,(#931,#932),.UNSPECIFIED.,.F.,.F.,(2,
2),(0.,1.),.UNSPECIFIED.);
#496=B_SPLINE_CURVE_WITH_KNOTS('',1,(#933,#934),.UNSPECIFIED.,.F.,.F.,(2,
2),(0.,1.),.UNSPECIFIED.);
#497=B_SPLINE_CURVE_WITH_KNOTS('',1,(#935,#936),.UNSPECIFIED.,.F.,.F.,(2,
2),(0.,1.),.UNSPECIFIED.);
#498=B_SPLINE_CURVE_WITH_KNOTS('',1,(#937,#938),.UNSPECIFIED.,.F.,.F.,(2,
2),(0.,1.),.UNSPECIFIED.);
#499=B_SPLINE_CURVE_WITH_KNOTS('',1,(#939,#940),.UNSPECIFIED.,.F.,.F.,(2,
2),(0.,1.),.UNSPECIFIED.);
#500=B_SPLINE_CURVE_WITH_KNOTS('',1,(#941,#942),.UNSPECIFIED.,.F.,.F.,(2,
2),(0.,1.),.UNSPECIFIED.);
#501=B_SPLINE_CURVE_WITH_KNOTS('',1,(#943,#944),.UNSPECIFIED.,.F.,.F.,(2,
2),(0.,1.),.UNSPECIFIED.);
#502=B_SPLINE_CURVE_WITH_KNOTS('',1,(#945,#946),.UNSPECIFIED.,.F.,.F.,(2,
2),(0.,1.),.UNSPECIFIED.);
#503=B_SPLINE_CURVE_WITH_KNOTS('',1,(#947,#948),.UNSPECIFIED.,.F.,.F.,(2,
2),(0.,1.),.UNSPECIFIED.);
#504=B_SPLINE_CURVE_WITH_KNOTS('',1,(#949,#950),.UNSPECIFIED.,.F.,.F.,(2,
2),(0.,1.),.UNSPECIFIED.);
#505=B_SPLINE_CURVE_WITH_KNOTS('',1,(#951,#952),.UNSPECIFIED.,.F.,.F.,(2,
2),(0.,1.),.UNSPECIFIED.);
#506=B_SPLINE_CURVE_WITH_KNOTS('',1,(#953,#954),.UNSPECIFIED.,.F.,.F.,(2,
2),(0.,1.),.UNSPECIFIED.);
#507=B_SPLINE_CURVE_WITH_KNOTS('',1,(#955,#956),.UNSPECIFIED.,.F.,.F.,(2,
2),(0.,1.),.UNSPECIFIED.);
#508=B_SPLINE_CURVE_WITH_KNOTS('',1,(#957,#958),.UNSPECIFIED.,.F.,.F.,(2,
2),(0.,1.),.UNSPECIFIED.);
#509=B_SPLINE_CURVE_WITH_KNOTS('',1,(#959,#960),.UNSPECIFIED.,.F.,.F.,(2,
2),(0.,1.),.UNSPECIFIED.);
#510=B_SPLINE_CURVE_WITH_KNOTS('',1,(#961,#962),.UNSPECIFIED.,.F.,.F.,(2,
2),(0.,1.),.UNSPECIFIED.);
#511=B_SPLINE_CURVE_WITH_KNOTS('',1,(#963,#964),.UNSPECIFIED.,.F.,.F.,(2,
2),(0.,1.),.UNSPECIFIED.);
#512=SHAPE_DEFINITION_REPRESENTATION(#513,#598);
#513=PRODUCT_DEFINITION_SHAPE($,$,#515);
#514=DESIGN_CONTEXT('3D Mechanical Parts',#587,'design');
#515=PRODUCT_DEFINITION('A','First version',#557,#514);
#516=DATE_TIME_ROLE('classification_date');
#517=DATE_TIME_ROLE('creation_date');
#518=CC_DESIGN_DATE_AND_TIME_ASSIGNMENT(#542,#516,(#521));
#519=CC_DESIGN_DATE_AND_TIME_ASSIGNMENT(#544,#517,(#515));
#520=SECURITY_CLASSIFICATION_LEVEL('unclassified');
#521=SECURITY_CLASSIFICATION('A','Security for version',#520);
#522=CC_DESIGN_SECURITY_CLASSIFICATION(#521,(#557));
#523=APPROVAL_ROLE('Version approval');
#524=APPROVAL_ROLE('Version Security approval');
#525=APPROVAL_ROLE('Definition approval');
#526=APPROVAL_PERSON_ORGANIZATION(#575,#551,#523);
#527=APPROVAL_PERSON_ORGANIZATION(#576,#552,#524);
#528=APPROVAL_PERSON_ORGANIZATION(#579,#553,#525);
#529=COORDINATED_UNIVERSAL_TIME_OFFSET(5,0,.BEHIND.);
#530=LOCAL_TIME(0,0,0.,#529);
#531=LOCAL_TIME(0,0,0.,#529);
#532=LOCAL_TIME(0,0,0.,#529);
#533=LOCAL_TIME(0,0,0.,#529);
#534=LOCAL_TIME(0,0,0.,#529);
#535=CALENDAR_DATE(1999,1,1);
#536=CALENDAR_DATE(1999,1,1);
#537=CALENDAR_DATE(1999,1,1);
#538=CALENDAR_DATE(1999,1,1);
#539=CALENDAR_DATE(1999,1,1);
#540=DATE_AND_TIME(#535,#530);
#541=DATE_AND_TIME(#536,#531);
#542=DATE_AND_TIME(#537,#532);
#543=DATE_AND_TIME(#538,#533);
#544=DATE_AND_TIME(#539,#534);
#545=APPROVAL_DATE_TIME(#540,#551);
#546=APPROVAL_DATE_TIME(#541,#552);
#547=APPROVAL_DATE_TIME(#543,#553);
#548=APPROVAL_STATUS('not_yet_approved');
#549=APPROVAL_STATUS('not_yet_approved');
#550=APPROVAL_STATUS('approved');
#551=APPROVAL(#548,'Version approval');
#552=APPROVAL(#549,'Version Security approval');
#553=APPROVAL(#550,'Definition approval');
#554=CC_DESIGN_APPROVAL(#551,(#557));
#555=CC_DESIGN_APPROVAL(#552,(#521));
#556=CC_DESIGN_APPROVAL(#553,(#515));
#557=PRODUCT_DEFINITION_FORMATION_WITH_SPECIFIED_SOURCE('A',
'First version',#589,.MADE.);
#558=PERSON_AND_ORGANIZATION_ROLE('design_owner');
#559=PERSON_AND_ORGANIZATION_ROLE('creator');
#560=PERSON_AND_ORGANIZATION_ROLE('design_supplier');
#561=PERSON_AND_ORGANIZATION_ROLE('classification_officer');
#562=PERSON_AND_ORGANIZATION_ROLE('creator');
#563=ORGANIZATION('STI','lab','lab');
#564=ORGANIZATION('STI','unknown','unknown');
#565=ORGANIZATION('STI','unknown','unknown');
#566=ORGANIZATION('STI','unknown','unknown');
#567=ORGANIZATION('STI','unknown','unknown');
#568=ORGANIZATION('STI','unknown','unknown');
#569=ORGANIZATION('STI','unknown','unknown');
#570=PERSON('1','Box','vc60',$,$,$);
#571=PERSON('2','last','first',$,$,$);
#572=PERSON('3','President','Mr.',$,$,$);
#573=PERSON_AND_ORGANIZATION(#570,#563);
#574=PERSON_AND_ORGANIZATION(#571,#564);
#575=PERSON_AND_ORGANIZATION(#572,#565);
#576=PERSON_AND_ORGANIZATION(#572,#566);
#577=PERSON_AND_ORGANIZATION(#572,#567);
#578=PERSON_AND_ORGANIZATION(#571,#568);
#579=PERSON_AND_ORGANIZATION(#572,#569);
#580=CC_DESIGN_PERSON_AND_ORGANIZATION_ASSIGNMENT(#573,#558,(#589));
#581=CC_DESIGN_PERSON_AND_ORGANIZATION_ASSIGNMENT(#574,#559,(#557));
#582=CC_DESIGN_PERSON_AND_ORGANIZATION_ASSIGNMENT(#574,#560,(#557));
#583=CC_DESIGN_PERSON_AND_ORGANIZATION_ASSIGNMENT(#577,#561,(#521));
#584=CC_DESIGN_PERSON_AND_ORGANIZATION_ASSIGNMENT(#578,#562,(#515));
#585=PRODUCT_RELATED_PRODUCT_CATEGORY('detail','detail',(#589));
#586=APPLICATION_PROTOCOL_DEFINITION('International Standard',
'config_control_design',1994,#587);
#587=APPLICATION_CONTEXT(
'configuration controlled 3d designs of mechanical parts and assemblies
');
#588=MECHANICAL_CONTEXT('3D Mechanical Parts',#587,'mechanical');
#589=PRODUCT('1','Document','Rhino converted to STEP',(#588));
#590=(
LENGTH_UNIT()
NAMED_UNIT(*)
SI_UNIT(.MILLI.,.METRE.)
);
#591=(
NAMED_UNIT(*)
PLANE_ANGLE_UNIT()
SI_UNIT($,.RADIAN.)
);
#592=DIMENSIONAL_EXPONENTS(0.,0.,0.,0.,0.,0.,0.);
#593=PLANE_ANGLE_MEASURE_WITH_UNIT(PLANE_ANGLE_MEASURE(0.01745329252),#591);
#594=(
CONVERSION_BASED_UNIT('DEGREES',#593)
NAMED_UNIT(#592)
PLANE_ANGLE_UNIT()
);
#595=(
NAMED_UNIT(*)
SI_UNIT($,.STERADIAN.)
SOLID_ANGLE_UNIT()
);
#596=UNCERTAINTY_MEASURE_WITH_UNIT(LENGTH_MEASURE(0.001),#590,
'DISTANCE_ACCURACY_VALUE',
'Maximum model space distance between geometric entities at asserted co
nnectivities');
#597=(
GEOMETRIC_REPRESENTATION_CONTEXT(3)
GLOBAL_UNCERTAINTY_ASSIGNED_CONTEXT((#596))
GLOBAL_UNIT_ASSIGNED_CONTEXT((#595,#594,#590))
REPRESENTATION_CONTEXT('ID1','3D')
);
#598=SHAPE_REPRESENTATION('',(#599),#597);
#599=AXIS2_PLACEMENT_3D('',#602,#600,#601);
#600=DIRECTION('',(0.,0.,1.));
#601=DIRECTION('',(1.,0.,0.));
#602=CARTESIAN_POINT('',(0.,0.,0.));
#603=CARTESIAN_POINT('',(7.61792182171481E-14,797.071067811865,622.071067811866));
#604=CARTESIAN_POINT('',(7.62929331504422E-14,796.14248424753,622.999651376201));
#605=CARTESIAN_POINT('',(7.63831374273289E-14,795.040087218604,623.736249521435));
#606=CARTESIAN_POINT('',(7.65062215841831E-14,792.613581428697,624.741341128791));
#607=CARTESIAN_POINT('',(7.65378971138986E-14,791.31321547048,625.));
#608=CARTESIAN_POINT('',(7.65378971138986E-14,790.,625.));
#609=CARTESIAN_POINT('',(7.61792182171481E-14,797.071067811865,622.071067811866));
#610=CARTESIAN_POINT('',(-81.6913349988554,797.071067811865,622.071067811866));
#611=CARTESIAN_POINT('',(-162.583339016296,797.071067811865,605.980647790672));
#612=CARTESIAN_POINT('',(-313.529243794227,797.071067811865,543.456806846975));
#613=CARTESIAN_POINT('',(-382.106173487854,797.071067811865,497.6351673716));
#614=CARTESIAN_POINT('',(-497.6351673716,797.071067811865,382.106173487855));
#615=CARTESIAN_POINT('',(-543.456806846975,797.071067811865,313.529243794227));
#616=CARTESIAN_POINT('',(-605.980647790672,797.071067811865,162.583339016296));
#617=CARTESIAN_POINT('',(-622.071067811866,797.071067811865,81.6913349988561));
#618=CARTESIAN_POINT('',(-622.071067811866,797.071067811865,-81.6913349988548));
#619=CARTESIAN_POINT('',(-605.980647790673,797.071067811865,-162.583339016295));
#620=CARTESIAN_POINT('',(-543.456806846976,797.071067811865,-313.529243794226));
#621=CARTESIAN_POINT('',(-497.635167371601,797.071067811865,-382.106173487854));
#622=CARTESIAN_POINT('',(-382.106173487856,797.071067811865,-497.6351673716));
#623=CARTESIAN_POINT('',(-313.529243794229,797.071067811865,-543.456806846975));
#624=CARTESIAN_POINT('',(-162.583339016298,797.071067811865,-605.980647790672));
#625=CARTESIAN_POINT('',(-81.6913349988578,797.071067811865,-622.071067811867));
#626=CARTESIAN_POINT('',(0.,797.071067811865,-622.071067811866));
#627=CARTESIAN_POINT('',(0.,797.071067811865,-622.071067811866));
#628=CARTESIAN_POINT('',(0.,796.14248424753,-622.999651376201));
#629=CARTESIAN_POINT('',(0.,795.040087218604,-623.736249521435));
#630=CARTESIAN_POINT('',(0.,792.613581428697,-624.741341128791));
#631=CARTESIAN_POINT('',(0.,791.31321547048,-625.));
#632=CARTESIAN_POINT('',(0.,790.,-625.));
#633=CARTESIAN_POINT('',(7.65378971138986E-14,790.,625.));
#634=CARTESIAN_POINT('',(-82.0759669049999,790.,625.));
#635=CARTESIAN_POINT('',(-163.348839293578,790.,608.833820549443));
#636=CARTESIAN_POINT('',(-315.005451162784,790.,546.015595089665));
#637=CARTESIAN_POINT('',(-383.905265470624,790.,499.97821101256));
#638=CARTESIAN_POINT('',(-499.97821101256,790.,383.905265470624));
#639=CARTESIAN_POINT('',(-546.015595089665,790.,315.005451162784));
#640=CARTESIAN_POINT('',(-608.833820549443,790.,163.348839293578));
#641=CARTESIAN_POINT('',(-625.,790.,82.0759669050002));
#642=CARTESIAN_POINT('',(-625.,790.,-82.0759669049993));
#643=CARTESIAN_POINT('',(-608.833820549443,790.,-163.348839293577));
#644=CARTESIAN_POINT('',(-546.015595089666,790.,-315.005451162784));
#645=CARTESIAN_POINT('',(-499.978211012561,790.,-383.905265470624));
#646=CARTESIAN_POINT('',(-383.905265470625,790.,-499.97821101256));
#647=CARTESIAN_POINT('',(-315.005451162785,790.,-546.015595089665));
#648=CARTESIAN_POINT('',(-163.348839293579,790.,-608.833820549443));
#649=CARTESIAN_POINT('',(-82.0759669050009,790.,-625.));
#650=CARTESIAN_POINT('',(0.,790.,-625.));
#651=CARTESIAN_POINT('',(0.,797.071067811865,-622.071067811866));
#652=CARTESIAN_POINT('',(81.6913349988555,797.071067811865,-622.071067811866));
#653=CARTESIAN_POINT('',(162.583339016296,797.071067811865,-605.980647790672));
#654=CARTESIAN_POINT('',(313.529243794227,797.071067811865,-543.456806846975));
#655=CARTESIAN_POINT('',(382.106173487854,797.071067811865,-497.635167371599));
#656=CARTESIAN_POINT('',(497.635167371599,797.071067811865,-382.106173487854));
#657=CARTESIAN_POINT('',(543.456806846975,797.071067811865,-313.529243794227));
#658=CARTESIAN_POINT('',(605.980647790671,797.071067811865,-162.583339016295));
#659=CARTESIAN_POINT('',(622.071067811866,797.071067811865,-81.6913349988551));
#660=CARTESIAN_POINT('',(622.071067811866,797.071067811865,81.6913349988557));
#661=CARTESIAN_POINT('',(605.980647790671,797.071067811865,162.583339016296));
#662=CARTESIAN_POINT('',(543.456806846974,797.071067811865,313.529243794227));
#663=CARTESIAN_POINT('',(497.635167371599,797.071067811865,382.106173487854));
#664=CARTESIAN_POINT('',(382.106173487854,797.071067811865,497.6351673716));
#665=CARTESIAN_POINT('',(313.529243794226,797.071067811865,543.456806846975));
#666=CARTESIAN_POINT('',(162.583339016295,797.071067811865,605.980647790671));
#667=CARTESIAN_POINT('',(81.6913349988548,797.071067811865,622.071067811866));
#668=CARTESIAN_POINT('',(7.61792182171481E-14,797.071067811865,622.071067811866));
#669=CARTESIAN_POINT('',(0.,790.,-625.));
#670=CARTESIAN_POINT('',(82.075966905,790.,-625.));
#671=CARTESIAN_POINT('',(163.348839293578,790.,-608.833820549443));
#672=CARTESIAN_POINT('',(315.005451162784,790.,-546.015595089665));
#673=CARTESIAN_POINT('',(383.905265470624,790.,-499.97821101256));
#674=CARTESIAN_POINT('',(499.97821101256,790.,-383.905265470624));
#675=CARTESIAN_POINT('',(546.015595089665,790.,-315.005451162785));
#676=CARTESIAN_POINT('',(608.833820549443,790.,-163.348839293578));
#677=CARTESIAN_POINT('',(625.,790.,-82.0759669050003));
#678=CARTESIAN_POINT('',(625.,790.,82.0759669049994));
#679=CARTESIAN_POINT('',(608.833820549443,790.,163.348839293577));
#680=CARTESIAN_POINT('',(546.015595089666,790.,315.005451162784));
#681=CARTESIAN_POINT('',(499.978211012561,790.,383.905265470624));
#682=CARTESIAN_POINT('',(383.905265470625,790.,499.97821101256));
#683=CARTESIAN_POINT('',(315.005451162785,790.,546.015595089665));
#684=CARTESIAN_POINT('',(163.348839293578,790.,608.833820549442));
#685=CARTESIAN_POINT('',(82.0759669050006,790.,624.999999999999));
#686=CARTESIAN_POINT('',(7.65378971138986E-14,790.,625.));
#687=CARTESIAN_POINT('',(0.,800.,-615.));
#688=CARTESIAN_POINT('',(0.,800.,-616.31321547048));
#689=CARTESIAN_POINT('',(0.,799.741341128791,-617.613581428697));
#690=CARTESIAN_POINT('',(0.,798.736249521435,-620.040087218605));
#691=CARTESIAN_POINT('',(0.,797.999651376201,-621.14248424753));
#692=CARTESIAN_POINT('',(0.,797.071067811865,-622.071067811866));
#693=CARTESIAN_POINT('',(7.59255939369874E-14,800.,615.));
#694=CARTESIAN_POINT('',(80.7627514345201,800.,615.));
#695=CARTESIAN_POINT('',(160.735257864881,800.,599.092479420652));
#696=CARTESIAN_POINT('',(309.96536394418,800.,537.279345568231));
#697=CARTESIAN_POINT('',(377.762781223094,800.,491.978559636359));
#698=CARTESIAN_POINT('',(491.97855963636,800.,377.762781223094));
#699=CARTESIAN_POINT('',(537.279345568231,800.,309.96536394418));
#700=CARTESIAN_POINT('',(599.092479420652,800.,160.73525786488));
#701=CARTESIAN_POINT('',(615.,800.,80.7627514345197));
#702=CARTESIAN_POINT('',(615.,800.,-80.7627514345204));
#703=CARTESIAN_POINT('',(599.092479420652,800.,-160.735257864881));
#704=CARTESIAN_POINT('',(537.27934556823,800.,-309.96536394418));
#705=CARTESIAN_POINT('',(491.978559636359,800.,-377.762781223095));
#706=CARTESIAN_POINT('',(377.762781223094,800.,-491.97855963636));
#707=CARTESIAN_POINT('',(309.96536394418,800.,-537.279345568231));
#708=CARTESIAN_POINT('',(160.73525786488,800.,-599.092479420653));
#709=CARTESIAN_POINT('',(80.7627514345194,800.,-615.));
#710=CARTESIAN_POINT('',(0.,800.,-615.));
#711=CARTESIAN_POINT('',(7.59255939369874E-14,800.,615.));
#712=CARTESIAN_POINT('',(7.5474107960985E-14,800.,616.31321547048));
#713=CARTESIAN_POINT('',(7.56333516024577E-14,799.741341128791,617.613581428697));
#714=CARTESIAN_POINT('',(7.59305030432484E-14,798.736249521435,620.040087218605));
#715=CARTESIAN_POINT('',(7.60655032838541E-14,797.999651376201,621.14248424753));
#716=CARTESIAN_POINT('',(7.61792182171481E-14,797.071067811865,622.071067811866));
#717=CARTESIAN_POINT('',(7.65378971138986E-14,790.,625.));
#718=CARTESIAN_POINT('',(7.65378971138986E-14,750.,625.));
#719=CARTESIAN_POINT('',(0.,750.,-625.));
#720=CARTESIAN_POINT('',(82.075966905,750.,-625.));
#721=CARTESIAN_POINT('',(163.348839293578,750.,-608.833820549443));
#722=CARTESIAN_POINT('',(315.005451162784,750.,-546.015595089665));
#723=CARTESIAN_POINT('',(383.905265470624,750.,-499.97821101256));
#724=CARTESIAN_POINT('',(499.97821101256,750.,-383.905265470624));
#725=CARTESIAN_POINT('',(546.015595089665,750.,-315.005451162785));
#726=CARTESIAN_POINT('',(608.833820549443,750.,-163.348839293578));
#727=CARTESIAN_POINT('',(625.,750.,-82.0759669050003));
#728=CARTESIAN_POINT('',(625.,750.,82.0759669049994));
#729=CARTESIAN_POINT('',(608.833820549443,750.,163.348839293577));
#730=CARTESIAN_POINT('',(546.015595089666,750.,315.005451162784));
#731=CARTESIAN_POINT('',(499.978211012561,750.,383.905265470624));
#732=CARTESIAN_POINT('',(383.905265470625,750.,499.97821101256));
#733=CARTESIAN_POINT('',(315.005451162785,750.,546.015595089665));
#734=CARTESIAN_POINT('',(163.348839293578,750.,608.833820549442));
#735=CARTESIAN_POINT('',(82.0759669050006,750.,624.999999999999));
#736=CARTESIAN_POINT('',(7.65378971138986E-14,750.,625.));
#737=CARTESIAN_POINT('',(0.,790.,-625.));
#738=CARTESIAN_POINT('',(0.,750.,-625.));
#739=CARTESIAN_POINT('',(0.,750.,-40.1522586525134));
#740=CARTESIAN_POINT('',(7.04797607683876,750.,-40.1522586525134));
#741=CARTESIAN_POINT('',(13.9724029984493,750.,-38.2968640508195));
#742=CARTESIAN_POINT('',(26.179855654064,750.,-31.2488879739807));
#743=CARTESIAN_POINT('',(31.2488879739807,750.,-26.1798556540641));
#744=CARTESIAN_POINT('',(38.2968640508195,750.,-13.9724029984493));
#745=CARTESIAN_POINT('',(40.1522586525133,750.,-7.04797607683876));
#746=CARTESIAN_POINT('',(40.1522586525133,750.,7.04797607683875));
#747=CARTESIAN_POINT('',(38.2968640508195,750.,13.9724029984493));
#748=CARTESIAN_POINT('',(31.2488879739807,750.,26.179855654064));
#749=CARTESIAN_POINT('',(26.179855654064,750.,31.2488879739807));
#750=CARTESIAN_POINT('',(13.9724029984493,750.,38.2968640508195));
#751=CARTESIAN_POINT('',(7.04797607683877,750.,40.1522586525134));
#752=CARTESIAN_POINT('',(4.91707110661874E-15,750.,40.1522586525134));
#753=CARTESIAN_POINT('',(4.91707110661873E-15,750.,40.1522586525133));
#754=CARTESIAN_POINT('',(4.91707110661873E-15,89.110510742211,40.1522586525133));
#755=CARTESIAN_POINT('',(2.75645233365911,89.2599540417835,40.0575316941845));
#756=CARTESIAN_POINT('',(1.83699557782554,89.2053256201612,40.1208016614822));
#757=CARTESIAN_POINT('',(0.921631062090412,89.1556983903076,40.1522586525133));
#758=CARTESIAN_POINT('',(4.91707110661873E-15,89.110510742211,40.1522586525133));
#759=CARTESIAN_POINT('',(2.75645233365914,0.,40.0575316941844));
#760=CARTESIAN_POINT('',(2.75645233365911,89.2599540417836,40.0575316941845));
#761=CARTESIAN_POINT('',(21.3152095909645,0.,34.0274259236807));
#762=CARTESIAN_POINT('',(15.7190079233575,0.,37.5329573654621));
#763=CARTESIAN_POINT('',(9.34437426962933,0.,39.6042013958275));
#764=CARTESIAN_POINT('',(2.75645233365914,0.,40.0575316941844));
#765=CARTESIAN_POINT('',(21.3152095909645,0.,34.0274259236807));
#766=CARTESIAN_POINT('',(21.3152095909646,89.2599540417835,34.0274259236808));
#767=CARTESIAN_POINT('',(38.948767159739,89.2599540417835,9.75691609243253));
#768=CARTESIAN_POINT('',(37.6997656322522,88.9552894882581,14.7428224193271));
#769=CARTESIAN_POINT('',(35.5050567527942,88.798704267549,19.4425843599924));
#770=CARTESIAN_POINT('',(29.4626624720489,88.798704267549,27.7592266043686));
#771=CARTESIAN_POINT('',(25.6711255948013,88.9552894882581,31.29882509473));
#772=CARTESIAN_POINT('',(21.3152095909646,89.2599540417835,34.0274259236808));
#773=CARTESIAN_POINT('',(38.9487671597389,0.,9.75691609243247));
#774=CARTESIAN_POINT('',(38.948767159739,89.2599540417835,9.75691609243252));
#775=CARTESIAN_POINT('',(38.9487671597391,0.,-9.7569160924319));
#776=CARTESIAN_POINT('',(40.5534042612828,0.,-3.35134324012626));
#777=CARTESIAN_POINT('',(40.5534042612828,0.,3.35134324012685));
#778=CARTESIAN_POINT('',(38.9487671597389,0.,9.75691609243247));
#779=CARTESIAN_POINT('',(38.9487671597391,0.,-9.7569160924319));
#780=CARTESIAN_POINT('',(38.9487671597391,89.2599540417835,-9.75691609243192));
#781=CARTESIAN_POINT('',(21.315209590965,89.2599540417836,-34.0274259236804));
#782=CARTESIAN_POINT('',(25.6711255948017,88.9552894882581,-31.2988250947297));
#783=CARTESIAN_POINT('',(29.4626624720493,88.798704267549,-27.7592266043681));
#784=CARTESIAN_POINT('',(35.5050567527945,88.798704267549,-19.4425843599919));
#785=CARTESIAN_POINT('',(37.6997656322525,88.9552894882581,-14.7428224193265));
#786=CARTESIAN_POINT('',(38.9487671597391,89.2599540417835,-9.75691609243193));
#787=CARTESIAN_POINT('',(21.315209590965,0.,-34.0274259236804));
#788=CARTESIAN_POINT('',(21.3152095909651,89.2599540417835,-34.0274259236805));
#789=CARTESIAN_POINT('',(2.7564523336597,0.,-40.0575316941844));
#790=CARTESIAN_POINT('',(9.34437426962989,0.,-39.6042013958273));
#791=CARTESIAN_POINT('',(15.719007923358,0.,-37.5329573654619));
#792=CARTESIAN_POINT('',(21.315209590965,0.,-34.0274259236804));
#793=CARTESIAN_POINT('',(2.7564523336597,0.,-40.0575316941844));
#794=CARTESIAN_POINT('',(2.75645233365968,89.2599540417835,-40.0575316941845));
#795=CARTESIAN_POINT('',(0.,89.110510742211,-40.1522586525133));
#796=CARTESIAN_POINT('',(0.921631062090591,89.1556983903076,-40.1522586525133));
#797=CARTESIAN_POINT('',(1.83699557782591,89.2053256201612,-40.1208016614822));
#798=CARTESIAN_POINT('',(2.75645233365968,89.2599540417835,-40.0575316941845));
#799=CARTESIAN_POINT('',(0.,750.,-40.1522586525133));
#800=CARTESIAN_POINT('',(1.18779551652337E-29,89.110510742211,-40.1522586525133));
#801=CARTESIAN_POINT('',(4.91707110661874E-15,750.,40.1522586525134));
#802=CARTESIAN_POINT('',(-7.04797607683876,750.,40.1522586525134));
#803=CARTESIAN_POINT('',(-13.9724029984493,750.,38.2968640508195));
#804=CARTESIAN_POINT('',(-26.179855654064,750.,31.2488879739807));
#805=CARTESIAN_POINT('',(-31.2488879739807,750.,26.179855654064));
#806=CARTESIAN_POINT('',(-38.2968640508195,750.,13.9724029984494));
#807=CARTESIAN_POINT('',(-40.1522586525134,750.,7.04797607683879));
#808=CARTESIAN_POINT('',(-40.1522586525134,750.,-7.04797607683875));
#809=CARTESIAN_POINT('',(-38.2968640508195,750.,-13.9724029984493));
#810=CARTESIAN_POINT('',(-31.2488879739808,750.,-26.179855654064));
#811=CARTESIAN_POINT('',(-26.1798556540641,750.,-31.2488879739807));
#812=CARTESIAN_POINT('',(-13.9724029984494,750.,-38.2968640508195));
#813=CARTESIAN_POINT('',(-7.0479760768388,750.,-40.1522586525134));
#814=CARTESIAN_POINT('',(0.,750.,-40.1522586525134));
#815=CARTESIAN_POINT('',(-25.775243155195,89.2599540417835,-30.7870218629361));
#816=CARTESIAN_POINT('',(-22.1896546718623,88.9827725080032,-33.7889171233422));
#817=CARTESIAN_POINT('',(-18.1071295601225,88.8279457890927,-36.1414381827498));
#818=CARTESIAN_POINT('',(-9.3167800778973,88.776979874897,-39.3353442060024));
#819=CARTESIAN_POINT('',(-4.67630408830052,88.8812311614475,-40.1522586525133));
#820=CARTESIAN_POINT('',(0.,89.110510742211,-40.1522586525133));
#821=CARTESIAN_POINT('',(-25.7752431551949,0.,-30.7870218629361));
#822=CARTESIAN_POINT('',(-25.7752431551949,89.2599540417835,-30.7870218629361));
#823=CARTESIAN_POINT('',(-37.2451859291684,0.,-15.));
#824=CARTESIAN_POINT('',(-34.7782633590516,0.,-21.1253993197908));
#825=CARTESIAN_POINT('',(-30.8385230952187,0.,-26.5479865902828));
#826=CARTESIAN_POINT('',(-25.7752431551949,0.,-30.7870218629361));
#827=CARTESIAN_POINT('',(-37.2451859291684,0.,-15.));
#828=CARTESIAN_POINT('',(-37.2451859291685,89.2599540417836,-15.));
#829=CARTESIAN_POINT('',(-37.2451859291685,89.2599540417835,15.));
#830=CARTESIAN_POINT('',(-39.1653646756919,88.9552894882581,10.2321723712333));
#831=CARTESIAN_POINT('',(-40.1522586525133,88.798704267549,5.1399675792977));
#832=CARTESIAN_POINT('',(-40.1522586525133,88.798704267549,-5.13996757929768));
#833=CARTESIAN_POINT('',(-39.1653646756918,88.9552894882581,-10.2321723712333));
#834=CARTESIAN_POINT('',(-37.2451859291685,89.2599540417835,-15.));
#835=CARTESIAN_POINT('',(-37.2451859291684,0.,15.));
#836=CARTESIAN_POINT('',(-37.2451859291685,89.2599540417835,15.));
#837=CARTESIAN_POINT('',(-25.7752431551954,0.,30.7870218629357));
#838=CARTESIAN_POINT('',(-30.8385230952189,0.,26.5479865902825));
#839=CARTESIAN_POINT('',(-34.7782633590517,0.,21.1253993197907));
#840=CARTESIAN_POINT('',(-37.2451859291684,0.,15.));
#841=CARTESIAN_POINT('',(-25.7752431551954,0.,30.7870218629357));
#842=CARTESIAN_POINT('',(-25.7752431551954,89.2599540417836,30.7870218629358));
#843=CARTESIAN_POINT('',(4.91707110661873E-15,89.110510742211,40.1522586525133));
#844=CARTESIAN_POINT('',(-4.67630408830061,88.8812311614474,40.1522586525133));
#845=CARTESIAN_POINT('',(-9.31678007789747,88.776979874897,39.3353442060023));
#846=CARTESIAN_POINT('',(-18.1071295601228,88.8279457890926,36.1414381827496));
#847=CARTESIAN_POINT('',(-22.1896546718627,88.9827725080031,33.7889171233419));
#848=CARTESIAN_POINT('',(-25.7752431551954,89.2599540417835,30.7870218629358));
#849=CARTESIAN_POINT('',(0.,800.,-615.));
#850=CARTESIAN_POINT('',(-80.76275143452,800.,-615.));
#851=CARTESIAN_POINT('',(-160.735257864881,800.,-599.092479420652));
#852=CARTESIAN_POINT('',(-309.96536394418,800.,-537.279345568231));
#853=CARTESIAN_POINT('',(-377.762781223094,800.,-491.978559636359));
#854=CARTESIAN_POINT('',(-491.97855963636,800.,-377.762781223094));
#855=CARTESIAN_POINT('',(-537.279345568231,800.,-309.96536394418));
#856=CARTESIAN_POINT('',(-599.092479420652,800.,-160.73525786488));
#857=CARTESIAN_POINT('',(-615.,800.,-80.7627514345198));
#858=CARTESIAN_POINT('',(-615.,800.,80.7627514345202));
#859=CARTESIAN_POINT('',(-599.092479420652,800.,160.735257864881));
#860=CARTESIAN_POINT('',(-537.27934556823,800.,309.96536394418));
#861=CARTESIAN_POINT('',(-491.978559636359,800.,377.762781223094));
#862=CARTESIAN_POINT('',(-377.762781223094,800.,491.97855963636));
#863=CARTESIAN_POINT('',(-309.96536394418,800.,537.279345568231));
#864=CARTESIAN_POINT('',(-160.73525786488,800.,599.092479420652));
#865=CARTESIAN_POINT('',(-80.7627514345194,800.,615.));
#866=CARTESIAN_POINT('',(7.59255939369874E-14,800.,615.));
#867=CARTESIAN_POINT('',(7.65378971138986E-14,750.,625.));
#868=CARTESIAN_POINT('',(-82.0759669049999,750.,625.));
#869=CARTESIAN_POINT('',(-163.348839293578,750.,608.833820549443));
#870=CARTESIAN_POINT('',(-315.005451162784,750.,546.015595089665));
#871=CARTESIAN_POINT('',(-383.905265470624,750.,499.97821101256));
#872=CARTESIAN_POINT('',(-499.97821101256,750.,383.905265470624));
#873=CARTESIAN_POINT('',(-546.015595089665,750.,315.005451162784));
#874=CARTESIAN_POINT('',(-608.833820549443,750.,163.348839293578));
#875=CARTESIAN_POINT('',(-625.,750.,82.0759669050002));
#876=CARTESIAN_POINT('',(-625.,750.,-82.0759669049993));
#877=CARTESIAN_POINT('',(-608.833820549443,750.,-163.348839293577));
#878=CARTESIAN_POINT('',(-546.015595089666,750.,-315.005451162784));
#879=CARTESIAN_POINT('',(-499.978211012561,750.,-383.905265470624));
#880=CARTESIAN_POINT('',(-383.905265470625,750.,-499.97821101256));
#881=CARTESIAN_POINT('',(-315.005451162785,750.,-546.015595089665));
#882=CARTESIAN_POINT('',(-163.348839293579,750.,-608.833820549443));
#883=CARTESIAN_POINT('',(-82.0759669050009,750.,-625.));
#884=CARTESIAN_POINT('',(0.,750.,-625.));
#885=CARTESIAN_POINT('',(-113.604496526899,0.,398.179708372401));
#886=CARTESIAN_POINT('',(2.75645233365918,0.,40.0575316941844));
#887=CARTESIAN_POINT('',(-113.604496526899,0.,398.179708372401));
#888=CARTESIAN_POINT('',(-142.136192015753,0.,388.909198541152));
#889=CARTESIAN_POINT('',(-142.136192015753,0.,388.909198541152));
#890=CARTESIAN_POINT('',(-25.7752431551952,0.,30.7870218629357));
#891=CARTESIAN_POINT('',(-413.797126368297,0.,14.9999999999998));
#892=CARTESIAN_POINT('',(-37.2451859291684,0.,15.0000000000003));
#893=CARTESIAN_POINT('',(-413.797126368297,0.,15.));
#894=CARTESIAN_POINT('',(-413.797126368297,0.,-14.9999999999999));
#895=CARTESIAN_POINT('',(-413.797126368297,0.,-14.9999999999999));
#896=CARTESIAN_POINT('',(-37.2451859291685,0.,-15.));
#897=CARTESIAN_POINT('',(-142.136192015748,0.,-388.909198541154));
#898=CARTESIAN_POINT('',(-25.775243155195,0.,-30.7870218629359));
#899=CARTESIAN_POINT('',(-142.136192015748,0.,-388.909198541154));
#900=CARTESIAN_POINT('',(-113.604496526893,0.,-398.179708372402));
#901=CARTESIAN_POINT('',(-113.604496526893,0.,-398.179708372402));
#902=CARTESIAN_POINT('',(2.75645233365981,0.,-40.0575316941844));
#903=CARTESIAN_POINT('',(325.952128671084,0.,-255.359103235912));
#904=CARTESIAN_POINT('',(21.3152095909649,0.,-34.0274259236805));
#905=CARTESIAN_POINT('',(325.952128671084,0.,-255.359103235912));
#906=CARTESIAN_POINT('',(343.585686239858,0.,-231.088593404664));
#907=CARTESIAN_POINT('',(343.585686239858,0.,-231.088593404664));
#908=CARTESIAN_POINT('',(38.9487671597391,0.,-9.75691609243182));
#909=CARTESIAN_POINT('',(343.585686239855,0.,231.088593404669));
#910=CARTESIAN_POINT('',(38.948767159739,0.,9.75691609243245));
#911=CARTESIAN_POINT('',(343.585686239855,0.,231.088593404669));
#912=CARTESIAN_POINT('',(325.95212867108,0.,255.359103235917));
#913=CARTESIAN_POINT('',(325.95212867108,0.,255.359103235917));
#914=CARTESIAN_POINT('',(21.3152095909645,0.,34.0274259236808));
#915=CARTESIAN_POINT('',(-37.2451859291685,89.2599540417835,15.));
#916=CARTESIAN_POINT('',(-413.797126368297,29.5144595034523,15.));
#917=CARTESIAN_POINT('',(-37.2451859291685,89.2599540417835,-15.));
#918=CARTESIAN_POINT('',(-413.797126368297,29.5144595034523,-15.));
#919=CARTESIAN_POINT('',(-413.797126368297,29.5144595034523,15.));
#920=CARTESIAN_POINT('',(-413.797126368297,29.5144595034523,-15.));
#921=CARTESIAN_POINT('',(-413.797126368297,29.5144595034523,15.));
#922=CARTESIAN_POINT('',(-413.797126368297,0.,15.));
#923=CARTESIAN_POINT('',(-413.797126368297,29.5144595034523,-15.));
#924=CARTESIAN_POINT('',(-413.797126368297,0.,-15.));
#925=CARTESIAN_POINT('',(-25.775243155195,89.2599540417836,-30.7870218629362));
#926=CARTESIAN_POINT('',(-142.136192015748,29.5144595034523,-388.909198541154));
#927=CARTESIAN_POINT('',(2.75645233365969,89.2599540417836,-40.0575316941844));
#928=CARTESIAN_POINT('',(-113.604496526893,29.5144595034523,-398.179708372402));
#929=CARTESIAN_POINT('',(-142.136192015748,29.5144595034523,-388.909198541154));
#930=CARTESIAN_POINT('',(-113.604496526893,29.5144595034524,-398.179708372402));
#931=CARTESIAN_POINT('',(-142.136192015748,29.5144595034523,-388.909198541154));
#932=CARTESIAN_POINT('',(-142.136192015748,0.,-388.909198541154));
#933=CARTESIAN_POINT('',(-113.604496526893,29.5144595034523,-398.179708372403));
#934=CARTESIAN_POINT('',(-113.604496526893,0.,-398.179708372402));
#935=CARTESIAN_POINT('',(21.315209590965,89.2599540417836,-34.0274259236804));
#936=CARTESIAN_POINT('',(325.952128671084,29.5144595034523,-255.359103235912));
#937=CARTESIAN_POINT('',(38.9487671597391,89.2599540417836,-9.75691609243191));
#938=CARTESIAN_POINT('',(343.585686239858,29.5144595034523,-231.088593404664));
#939=CARTESIAN_POINT('',(325.952128671084,29.5144595034523,-255.359103235912));
#940=CARTESIAN_POINT('',(343.585686239858,29.5144595034523,-231.088593404664));
#941=CARTESIAN_POINT('',(325.952128671084,29.5144595034524,-255.359103235912));
#942=CARTESIAN_POINT('',(325.952128671084,0.,-255.359103235912));
#943=CARTESIAN_POINT('',(343.585686239858,29.5144595034523,-231.088593404663));
#944=CARTESIAN_POINT('',(343.585686239858,0.,-231.088593404664));
#945=CARTESIAN_POINT('',(38.9487671597389,89.2599540417836,9.75691609243253));
#946=CARTESIAN_POINT('',(343.585686239855,29.5144595034523,231.088593404669));
#947=CARTESIAN_POINT('',(21.3152095909646,89.2599540417836,34.0274259236808));
#948=CARTESIAN_POINT('',(325.95212867108,29.5144595034523,255.359103235917));
#949=CARTESIAN_POINT('',(343.585686239855,29.5144595034523,231.088593404669));
#950=CARTESIAN_POINT('',(325.95212867108,29.5144595034523,255.359103235917));
#951=CARTESIAN_POINT('',(343.585686239855,29.5144595034523,231.088593404669));
#952=CARTESIAN_POINT('',(343.585686239855,0.,231.088593404669));
#953=CARTESIAN_POINT('',(325.95212867108,29.5144595034523,255.359103235917));
#954=CARTESIAN_POINT('',(325.95212867108,0.,255.359103235917));
#955=CARTESIAN_POINT('',(2.75645233365915,89.2599540417835,40.0575316941845));
#956=CARTESIAN_POINT('',(-113.604496526899,29.5144595034523,398.179708372401));
#957=CARTESIAN_POINT('',(-25.7752431551954,89.2599540417835,30.7870218629357));
#958=CARTESIAN_POINT('',(-142.136192015753,29.5144595034523,388.909198541152));
#959=CARTESIAN_POINT('',(-113.604496526899,29.5144595034523,398.179708372401));
#960=CARTESIAN_POINT('',(-142.136192015753,29.5144595034523,388.909198541152));
#961=CARTESIAN_POINT('',(-113.604496526899,29.5144595034524,398.179708372401));
#962=CARTESIAN_POINT('',(-113.604496526899,0.,398.179708372401));
#963=CARTESIAN_POINT('',(-142.136192015753,29.5144595034524,388.909198541152));
#964=CARTESIAN_POINT('',(-142.136192015753,0.,388.909198541152));
#965=CARTESIAN_POINT('',(7.65378971138986E-14,790.,625.));
#966=CARTESIAN_POINT('',(-1250.,790.,625.));
#967=CARTESIAN_POINT('',(-1250.,790.,-625.));
#968=CARTESIAN_POINT('',(-1.53075794227797E-13,790.,-625.));
#969=CARTESIAN_POINT('',(7.65378971138986E-14,792.687611020647,625.));
#970=CARTESIAN_POINT('',(-1250.,792.687611020647,625.));
#971=CARTESIAN_POINT('',(-1250.,792.687611020647,-625.));
#972=CARTESIAN_POINT('',(-1.53075794227797E-13,792.687611020647,-625.));
#973=CARTESIAN_POINT('',(7.64119458348189E-14,795.170639833974,623.971495789757));
#974=CARTESIAN_POINT('',(-1247.94299157951,795.170639833974,623.971495789757));
#975=CARTESIAN_POINT('',(-1247.94299157951,795.170639833974,-623.971495789756));
#976=CARTESIAN_POINT('',(-1.52823891669638E-13,795.170639833974,-623.971495789757));
#977=CARTESIAN_POINT('',(7.61792182171481E-14,797.071067811865,622.071067811866));
#978=CARTESIAN_POINT('',(-1244.14213562373,797.071067811865,622.071067811865));
#979=CARTESIAN_POINT('',(-1244.14213562373,797.071067811865,-622.071067811865));
#980=CARTESIAN_POINT('',(-1.52358436434296E-13,797.071067811865,-622.071067811866));
#981=CARTESIAN_POINT('',(0.,790.,-625.));
#982=CARTESIAN_POINT('',(1250.,790.,-625.));
#983=CARTESIAN_POINT('',(1250.,790.,625.));
#984=CARTESIAN_POINT('',(7.65378971138986E-14,790.,625.));
#985=CARTESIAN_POINT('',(0.,792.687611020647,-625.));
#986=CARTESIAN_POINT('',(1250.,792.687611020647,-625.));
#987=CARTESIAN_POINT('',(1250.,792.687611020647,625.));
#988=CARTESIAN_POINT('',(7.65378971138986E-14,792.687611020647,625.));
#989=CARTESIAN_POINT('',(0.,795.170639833974,-623.971495789757));
#990=CARTESIAN_POINT('',(1247.94299157951,795.170639833974,-623.971495789757));
#991=CARTESIAN_POINT('',(1247.94299157951,795.170639833974,623.971495789757));
#992=CARTESIAN_POINT('',(7.64119458348189E-14,795.170639833974,623.971495789757));
#993=CARTESIAN_POINT('',(0.,797.071067811865,-622.071067811866));
#994=CARTESIAN_POINT('',(1244.14213562373,797.071067811865,-622.071067811865));
#995=CARTESIAN_POINT('',(1244.14213562373,797.071067811865,622.071067811865));
#996=CARTESIAN_POINT('',(7.61792182171481E-14,797.071067811865,622.071067811866));
#997=CARTESIAN_POINT('',(0.,797.071067811865,-622.071067811866));
#998=CARTESIAN_POINT('',(1244.14213562373,797.071067811865,-622.071067811865));
#999=CARTESIAN_POINT('',(1244.14213562373,797.071067811865,622.071067811865));
#1000=CARTESIAN_POINT('',(7.61792182171481E-14,797.071067811865,622.071067811866));
#1001=CARTESIAN_POINT('',(0.,798.971495789757,-620.170639833974));
#1002=CARTESIAN_POINT('',(1240.34127966795,798.971495789756,-620.170639833974));
#1003=CARTESIAN_POINT('',(1240.34127966795,798.971495789756,620.170639833974));
#1004=CARTESIAN_POINT('',(7.59464905994774E-14,798.971495789757,620.170639833974));
#1005=CARTESIAN_POINT('',(0.,800.,-617.687611020647));
#1006=CARTESIAN_POINT('',(1235.37522204129,800.,-617.687611020647));
#1007=CARTESIAN_POINT('',(1235.37522204129,800.,617.687611020647));
#1008=CARTESIAN_POINT('',(7.56424173133249E-14,800.,617.687611020647));
#1009=CARTESIAN_POINT('',(0.,800.,-615.));
#1010=CARTESIAN_POINT('',(1230.,800.,-615.));
#1011=CARTESIAN_POINT('',(1230.,800.,615.));
#1012=CARTESIAN_POINT('',(7.53132907600762E-14,800.,615.));
#1013=CARTESIAN_POINT('',(0.,790.,-625.));
#1014=CARTESIAN_POINT('',(0.,750.,-625.));
#1015=CARTESIAN_POINT('',(1250.,790.,-625.));
#1016=CARTESIAN_POINT('',(1250.,750.,-625.));
#1017=CARTESIAN_POINT('',(1250.,790.,625.));
#1018=CARTESIAN_POINT('',(1250.,750.,625.));
#1019=CARTESIAN_POINT('',(7.65378971138986E-14,790.,625.));
#1020=CARTESIAN_POINT('',(7.65378971138986E-14,750.,625.));
#1021=CARTESIAN_POINT('',(0.,750.,-40.1522586525133));
#1022=CARTESIAN_POINT('',(0.,0.,-40.1522586525133));
#1023=CARTESIAN_POINT('',(80.3045173050266,750.,-40.1522586525133));
#1024=CARTESIAN_POINT('',(80.3045173050266,0.,-40.1522586525133));
#1025=CARTESIAN_POINT('',(80.3045173050266,750.,40.1522586525133));
#1026=CARTESIAN_POINT('',(80.3045173050266,0.,40.1522586525133));
#1027=CARTESIAN_POINT('',(4.91707110661873E-15,750.,40.1522586525133));
#1028=CARTESIAN_POINT('',(4.91707110661873E-15,0.,40.1522586525133));
#1029=CARTESIAN_POINT('',(4.91707110661873E-15,750.,40.1522586525133));
#1030=CARTESIAN_POINT('',(4.91707110661873E-15,0.,40.1522586525133));
#1031=CARTESIAN_POINT('',(-80.3045173050266,750.,40.1522586525133));
#1032=CARTESIAN_POINT('',(-80.3045173050266,0.,40.1522586525133));
#1033=CARTESIAN_POINT('',(-80.3045173050266,750.,-40.1522586525133));
#1034=CARTESIAN_POINT('',(-80.3045173050266,0.,-40.1522586525133));
#1035=CARTESIAN_POINT('',(0.,750.,-40.1522586525133));
#1036=CARTESIAN_POINT('',(0.,0.,-40.1522586525133));
#1037=CARTESIAN_POINT('',(-627.3,800.,627.3));
#1038=CARTESIAN_POINT('',(-627.3,800.,-627.3));
#1039=CARTESIAN_POINT('',(627.300000000001,800.,627.3));
#1040=CARTESIAN_POINT('',(627.300000000001,800.,-627.3));
#1041=CARTESIAN_POINT('',(7.65378971138986E-14,790.,625.));
#1042=CARTESIAN_POINT('',(7.65378971138986E-14,750.,625.));
#1043=CARTESIAN_POINT('',(-1250.,790.,625.));
#1044=CARTESIAN_POINT('',(-1250.,750.,625.));
#1045=CARTESIAN_POINT('',(-1250.,790.,-625.));
#1046=CARTESIAN_POINT('',(-1250.,750.,-625.));
#1047=CARTESIAN_POINT('',(0.,790.,-625.));
#1048=CARTESIAN_POINT('',(0.,750.,-625.));
#1049=CARTESIAN_POINT('',(-637.5,750.,-637.5));
#1050=CARTESIAN_POINT('',(-637.5,750.,637.5));
#1051=CARTESIAN_POINT('',(637.5,750.,-637.5));
#1052=CARTESIAN_POINT('',(637.5,750.,637.5));
#1053=CARTESIAN_POINT('',(-413.797126368297,0.,-406.14330253985));
#1054=CARTESIAN_POINT('',(-413.797126368297,0.,406.143302539849));
#1055=CARTESIAN_POINT('',(351.15951436594,0.,-406.14330253985));
#1056=CARTESIAN_POINT('',(351.15951436594,0.,406.143302539849));
#1057=CARTESIAN_POINT('',(7.61792182171481E-14,797.071067811865,622.071067811866));
#1058=CARTESIAN_POINT('',(-1244.14213562373,797.071067811865,622.071067811865));
#1059=CARTESIAN_POINT('',(-1244.14213562373,797.071067811865,-622.071067811865));
#1060=CARTESIAN_POINT('',(-1.52358436434296E-13,797.071067811865,-622.071067811866));
#1061=CARTESIAN_POINT('',(7.59464905994774E-14,798.971495789757,620.170639833974));
#1062=CARTESIAN_POINT('',(-1240.34127966795,798.971495789756,620.170639833974));
#1063=CARTESIAN_POINT('',(-1240.34127966795,798.971495789756,-620.170639833974));
#1064=CARTESIAN_POINT('',(-1.51892981198955E-13,798.971495789757,-620.170639833974));
#1065=CARTESIAN_POINT('',(7.56424173133249E-14,800.,617.687611020647));
#1066=CARTESIAN_POINT('',(-1235.37522204129,800.,617.687611020647));
#1067=CARTESIAN_POINT('',(-1235.37522204129,800.,-617.687611020647));
#1068=CARTESIAN_POINT('',(-1.5128483462665E-13,800.,-617.687611020647));
#1069=CARTESIAN_POINT('',(7.53132907600762E-14,800.,615.));
#1070=CARTESIAN_POINT('',(-1230.,800.,615.));
#1071=CARTESIAN_POINT('',(-1230.,800.,-615.));
#1072=CARTESIAN_POINT('',(-1.50626581520152E-13,800.,-615.));
#1073=CARTESIAN_POINT('',(-413.797126368297,29.5144595034523,-15.));
#1074=CARTESIAN_POINT('',(-37.2451859291685,89.2599540417835,-15.));
#1075=CARTESIAN_POINT('',(-413.797126368297,29.5144595034523,15.));
#1076=CARTESIAN_POINT('',(-37.2451859291685,89.2599540417835,15.));
#1077=CARTESIAN_POINT('',(-37.2451859291684,-1.4210854715202E-14,15.));
#1078=CARTESIAN_POINT('',(-413.797126368297,-1.4210854715202E-14,15.));
#1079=CARTESIAN_POINT('',(-37.2451859291684,89.2599540417836,15.));
#1080=CARTESIAN_POINT('',(-413.797126368297,89.2599540417836,15.));
#1081=CARTESIAN_POINT('',(-37.2451859291685,-1.4210854715202E-14,-15.));
#1082=CARTESIAN_POINT('',(-37.2451859291685,89.2599540417836,-15.));
#1083=CARTESIAN_POINT('',(-413.797126368297,-1.4210854715202E-14,-15.));
#1084=CARTESIAN_POINT('',(-413.797126368297,89.2599540417836,-15.));
#1085=CARTESIAN_POINT('',(-413.797126368297,0.,15.));
#1086=CARTESIAN_POINT('',(-413.797126368297,0.,-15.));
#1087=CARTESIAN_POINT('',(-413.797126368297,29.5144595034523,15.));
#1088=CARTESIAN_POINT('',(-413.797126368297,29.5144595034523,-15.));
#1089=CARTESIAN_POINT('',(-143.585118459242,84.1676764278553,-26.2545195814064));
#1090=CARTESIAN_POINT('',(-143.585118459242,27.5218825829995,-401.643112613061));
#1091=CARTESIAN_POINT('',(4.20537877715374,91.2525309622364,-27.3236176222771));
#1092=CARTESIAN_POINT('',(4.20537877715374,34.6067371173806,-402.712210653932));
#1093=CARTESIAN_POINT('',(-25.7752431551949,0.,-30.7870218629359));
#1094=CARTESIAN_POINT('',(-142.136192015748,0.,-388.909198541154));
#1095=CARTESIAN_POINT('',(-25.7752431551949,89.2599540417835,-30.7870218629359));
#1096=CARTESIAN_POINT('',(-142.136192015748,89.2599540417835,-388.909198541154));
#1097=CARTESIAN_POINT('',(2.75645233365967,0.,-40.0575316941845));
#1098=CARTESIAN_POINT('',(2.75645233365967,89.2599540417835,-40.0575316941845));
#1099=CARTESIAN_POINT('',(-113.604496526893,0.,-398.179708372403));
#1100=CARTESIAN_POINT('',(-113.604496526893,89.2599540417835,-398.179708372403));
#1101=CARTESIAN_POINT('',(-142.136192015748,1.77635683940025E-15,-388.909198541154));
#1102=CARTESIAN_POINT('',(-113.604496526893,1.77635683940025E-15,-398.179708372402));
#1103=CARTESIAN_POINT('',(-142.136192015748,29.5144595034523,-388.909198541154));
#1104=CARTESIAN_POINT('',(-113.604496526893,29.5144595034523,-398.179708372402));
#1105=CARTESIAN_POINT('',(15.4337205657747,69.1443050754057,-257.815125107347));
#1106=CARTESIAN_POINT('',(346.516837396518,26.6456731416586,-257.815125107347));
#1107=CARTESIAN_POINT('',(18.3840584343056,92.1287404035772,-7.30089422099715));
#1108=CARTESIAN_POINT('',(349.467175265049,49.6301084698302,-7.30089422099715));
#1109=CARTESIAN_POINT('',(21.315209590965,7.105427357601E-15,-34.0274259236804));
#1110=CARTESIAN_POINT('',(325.952128671084,7.105427357601E-15,-255.359103235912));
#1111=CARTESIAN_POINT('',(21.315209590965,89.2599540417835,-34.0274259236804));
#1112=CARTESIAN_POINT('',(325.952128671084,89.2599540417835,-255.359103235912));
#1113=CARTESIAN_POINT('',(38.9487671597391,-2.1316282072803E-14,-9.75691609243192));
#1114=CARTESIAN_POINT('',(38.9487671597391,89.2599540417835,-9.75691609243192));
#1115=CARTESIAN_POINT('',(343.585686239858,-2.1316282072803E-14,-231.088593404664));
#1116=CARTESIAN_POINT('',(343.585686239858,89.2599540417835,-231.088593404664));
#1117=CARTESIAN_POINT('',(325.952128671084,-1.77635683940025E-15,-255.359103235912));
#1118=CARTESIAN_POINT('',(343.585686239858,-1.77635683940025E-15,-231.088593404664));
#1119=CARTESIAN_POINT('',(325.952128671084,29.5144595034524,-255.359103235912));
#1120=CARTESIAN_POINT('',(343.585686239858,29.5144595034524,-231.088593404664));
#1121=CARTESIAN_POINT('',(18.3840584343051,92.1287404035773,7.30089422099768));
#1122=CARTESIAN_POINT('',(349.467175265045,49.6301084698311,7.30089422099768));
#1123=CARTESIAN_POINT('',(15.4337205657742,69.1443050754048,257.815125107352));
#1124=CARTESIAN_POINT('',(346.516837396514,26.6456731416586,257.815125107352));
#1125=CARTESIAN_POINT('',(38.948767159739,-2.8421709430404E-14,9.7569160924325));
#1126=CARTESIAN_POINT('',(343.585686239855,-2.8421709430404E-14,231.088593404668));
#1127=CARTESIAN_POINT('',(38.948767159739,89.2599540417835,9.75691609243248));
#1128=CARTESIAN_POINT('',(343.585686239855,89.2599540417835,231.088593404668));
#1129=CARTESIAN_POINT('',(21.3152095909645,0.,34.0274259236808));
#1130=CARTESIAN_POINT('',(21.3152095909645,89.2599540417835,34.0274259236808));
#1131=CARTESIAN_POINT('',(325.95212867108,1.4210854715202E-14,255.359103235917));
#1132=CARTESIAN_POINT('',(325.95212867108,89.2599540417835,255.359103235917));
#1133=CARTESIAN_POINT('',(343.585686239855,-1.77635683940025E-15,231.088593404669));
#1134=CARTESIAN_POINT('',(325.95212867108,-1.77635683940025E-15,255.359103235917));
#1135=CARTESIAN_POINT('',(343.585686239855,29.5144595034523,231.088593404669));
#1136=CARTESIAN_POINT('',(325.95212867108,29.5144595034523,255.359103235917));
#1137=CARTESIAN_POINT('',(-143.585118459247,27.5218825829994,401.64311261306));
#1138=CARTESIAN_POINT('',(-143.585118459247,84.1676764278548,26.2545195814059));
#1139=CARTESIAN_POINT('',(4.2053787771533,34.6067371173811,402.71221065393));
#1140=CARTESIAN_POINT('',(4.2053787771533,91.2525309622365,27.3236176222767));
#1141=CARTESIAN_POINT('',(2.75645233365913,0.,40.0575316941844));
#1142=CARTESIAN_POINT('',(-113.604496526899,0.,398.179708372401));
#1143=CARTESIAN_POINT('',(2.75645233365913,89.2599540417836,40.0575316941844));
#1144=CARTESIAN_POINT('',(-113.604496526899,89.2599540417836,398.179708372401));
#1145=CARTESIAN_POINT('',(-25.7752431551954,7.105427357601E-15,30.7870218629357));
#1146=CARTESIAN_POINT('',(-25.7752431551954,89.2599540417836,30.7870218629357));
#1147=CARTESIAN_POINT('',(-142.136192015753,7.105427357601E-15,388.909198541152));
#1148=CARTESIAN_POINT('',(-142.136192015753,89.2599540417836,388.909198541152));
#1149=CARTESIAN_POINT('',(-113.604496526899,3.5527136788005E-15,398.179708372401));
#1150=CARTESIAN_POINT('',(-142.136192015753,3.5527136788005E-15,388.909198541152));
#1151=CARTESIAN_POINT('',(-113.604496526899,29.5144595034524,398.179708372401));
#1152=CARTESIAN_POINT('',(-142.136192015753,29.5144595034524,388.909198541152));
#1153=CARTESIAN_POINT('',(7.65378971138986E-14,790.,625.));
#1154=CARTESIAN_POINT('',(7.61792182171481E-14,797.071067811865,622.071067811866));
#1155=CARTESIAN_POINT('',(0.,797.071067811865,-622.071067811866));
#1156=CARTESIAN_POINT('',(0.,790.,-625.));
#1157=CARTESIAN_POINT('',(0.,800.,-615.));
#1158=CARTESIAN_POINT('',(7.59255939369874E-14,800.,615.));
#1159=CARTESIAN_POINT('',(7.65378971138986E-14,750.,625.));
#1160=CARTESIAN_POINT('',(0.,750.,-625.));
#1161=CARTESIAN_POINT('',(0.,750.,-40.1522586525134));
#1162=CARTESIAN_POINT('',(4.91707110661874E-15,750.,40.1522586525134));
#1163=CARTESIAN_POINT('',(4.91707110661873E-15,89.110510742211,40.1522586525133));
#1164=CARTESIAN_POINT('',(2.75645233365912,89.2599540417835,40.0575316941845));
#1165=CARTESIAN_POINT('',(2.75645233365915,0.,40.0575316941844));
#1166=CARTESIAN_POINT('',(21.3152095909645,0.,34.0274259236808));
#1167=CARTESIAN_POINT('',(21.3152095909646,89.2599540417835,34.0274259236808));
#1168=CARTESIAN_POINT('',(38.948767159739,89.2599540417835,9.75691609243253));
#1169=CARTESIAN_POINT('',(38.948767159739,0.,9.75691609243246));
#1170=CARTESIAN_POINT('',(38.9487671597391,0.,-9.75691609243188));
#1171=CARTESIAN_POINT('',(38.9487671597391,89.2599540417835,-9.75691609243192));
#1172=CARTESIAN_POINT('',(21.315209590965,89.2599540417835,-34.0274259236805));
#1173=CARTESIAN_POINT('',(21.315209590965,0.,-34.0274259236804));
#1174=CARTESIAN_POINT('',(2.75645233365974,0.,-40.0575316941844));
#1175=CARTESIAN_POINT('',(2.75645233365968,89.2599540417835,-40.0575316941845));
#1176=CARTESIAN_POINT('',(3.95931838841123E-30,89.110510742211,-40.1522586525133));
#1177=CARTESIAN_POINT('',(-25.775243155195,89.2599540417835,-30.7870218629361));
#1178=CARTESIAN_POINT('',(-25.775243155195,0.,-30.787021862936));
#1179=CARTESIAN_POINT('',(-37.2451859291684,0.,-15.));
#1180=CARTESIAN_POINT('',(-37.2451859291685,89.2599540417835,-15.));
#1181=CARTESIAN_POINT('',(-37.2451859291685,89.2599540417835,15.));
#1182=CARTESIAN_POINT('',(-37.2451859291684,0.,15.0000000000001));
#1183=CARTESIAN_POINT('',(-25.7752431551953,0.,30.7870218629357));
#1184=CARTESIAN_POINT('',(-25.7752431551954,89.2599540417835,30.7870218629357));
#1185=CARTESIAN_POINT('',(-113.604496526899,0.,398.179708372401));
#1186=CARTESIAN_POINT('',(-142.136192015753,0.,388.909198541152));
#1187=CARTESIAN_POINT('',(-413.797126368297,0.,14.9999999999999));
#1188=CARTESIAN_POINT('',(-413.797126368297,0.,-14.9999999999999));
#1189=CARTESIAN_POINT('',(-142.136192015748,0.,-388.909198541154));
#1190=CARTESIAN_POINT('',(-113.604496526893,0.,-398.179708372402));
#1191=CARTESIAN_POINT('',(325.952128671084,0.,-255.359103235912));
#1192=CARTESIAN_POINT('',(343.585686239858,0.,-231.088593404664));
#1193=CARTESIAN_POINT('',(343.585686239855,0.,231.088593404669));
#1194=CARTESIAN_POINT('',(325.95212867108,0.,255.359103235917));
#1195=CARTESIAN_POINT('',(-413.797126368297,29.5144595034523,15.));
#1196=CARTESIAN_POINT('',(-413.797126368297,29.5144595034523,-15.));
#1197=CARTESIAN_POINT('',(-142.136192015748,29.5144595034523,-388.909198541154));
#1198=CARTESIAN_POINT('',(-113.604496526893,29.5144595034523,-398.179708372402));
#1199=CARTESIAN_POINT('',(325.952128671084,29.5144595034523,-255.359103235912));
#1200=CARTESIAN_POINT('',(343.585686239858,29.5144595034523,-231.088593404664));
#1201=CARTESIAN_POINT('',(343.585686239855,29.5144595034523,231.088593404669));
#1202=CARTESIAN_POINT('',(325.95212867108,29.5144595034523,255.359103235917));
#1203=CARTESIAN_POINT('',(-113.604496526899,29.5144595034523,398.179708372401));
#1204=CARTESIAN_POINT('',(-142.136192015753,29.5144595034523,388.909198541152));
ENDSEC;
END-ISO-10303-21;
